BasicallyASansSerif-Medium.ufo
<glyph name="exclamation" format="2">
  <advance width="417.3140794223827"/>
  <unicode hex="0021"/>
  <outline>
    <contour>
      <point x="136.52707581227435" y="307.3104693140794" type="line"/>
      <point x="280.7870036101083" y="307.3104693140794" type="line"/>
      <point x="280.7870036101083" y="1095.0" type="line"/>
      <point x="136.52707581227435" y="1095.0" type="line"/>
    </contour>
    <contour>
      <point x="315.87725631768956" y="92.2202166064982" type="curve" smooth="yes"/>
      <point x="315.87725631768956" y="151.39666459927798"/>
      <point x="267.8334877039711" y="199.4404332129964"/>
      <point x="208.65703971119132" y="199.4404332129964" type="curve" smooth="yes"/>
      <point x="149.48059171841155" y="199.4404332129964"/>
      <point x="101.43682310469313" y="151.39666459927798"/>
      <point x="101.43682310469313" y="92.2202166064982" type="curve" smooth="yes"/>
      <point x="101.43682310469312" y="33.04376861371842"/>
      <point x="149.48059171841152" y="-14.999999999999982"/>
      <point x="208.65703971119132" y="-14.999999999999996" type="curve" smooth="yes"/>
      <point x="267.83348770397106" y="-15.00000000000001"/>
      <point x="315.87725631768956" y="33.043768613718385"/>
    </contour>
  </outline>
</glyph>
<glyph name="quote_dbl" format="2">
  <advance width="569.7487364620938"/>
  <unicode hex="0022"/>
  <outline>
    <contour>
      <point x="329.55596" y="795.07446" type="line"/>
      <point x="468.76679" y="795.07446" type="line"/>
      <point x="468.76679" y="1081.70578" type="line"/>
      <point x="329.55596" y="1081.70578" type="line"/>
    </contour>
    <contour>
      <point x="100.98195" y="795.07446" type="line"/>
      <point x="240.19278" y="795.07446" type="line"/>
      <point x="240.19278" y="1081.70578" type="line"/>
      <point x="100.98195" y="1081.70578" type="line"/>
    </contour>
  </outline>
</glyph>
<glyph name="quotedbl" format="2">
  <advance width="608.3610108303249"/>
  <unicode hex="0022"/>
  <outline>
    <contour>
      <point x="362.66426" y="773.93502" type="line"/>
      <point x="506.92419" y="773.93502" type="line"/>
      <point x="506.92419" y="1080.0" type="line"/>
      <point x="362.66426" y="1080.0" type="line"/>
    </contour>
    <contour>
      <point x="101.43682" y="773.93502" type="line"/>
      <point x="245.69675" y="773.93502" type="line"/>
      <point x="245.69675" y="1080.0" type="line"/>
      <point x="101.43682" y="1080.0" type="line"/>
    </contour>
  </outline>
</glyph>
<glyph name="numbersign" format="2">
  <advance width="946.9874670682423"/>
  <unicode hex="0023"/>
  <outline>
    <contour>
      <point x="126.38542175292969" y="0" type="line"/>
      <point x="271.3883819580078" y="0" type="line"/>
      <point x="324.5822982788086" y="273.6589813232422" type="line"/>
      <point x="518.467529296875" y="273.6589813232422" type="line"/>
      <point x="465.2736129760742" y="0" type="line"/>
      <point x="610.2765731811523" y="0" type="line"/>
      <point x="663.4704895019531" y="273.6589813232422" type="line"/>
      <point x="858.5199813842773" y="273.6589813232422" type="line"/>
      <point x="858.5199813842773" y="411.37693786621094" type="line"/>
      <point x="690.2401504516602" y="411.37693786621094" type="line"/>
      <point x="740.6384658813477" y="670.6538162231445" type="line"/>
      <point x="935.6879577636719" y="670.6538162231445" type="line"/>
      <point x="935.6879577636719" y="808.3717803955078" type="line"/>
      <point x="767.4081268310547" y="808.3717803955078" type="line"/>
      <point x="820.6020431518555" y="1082.03076171875" type="line"/>
      <point x="675.5990905761719" y="1082.03076171875" type="line"/>
      <point x="622.4051742553711" y="808.3717803955078" type="line"/>
      <point x="428.51993560791016" y="808.3717803955078" type="line"/>
      <point x="481.71385192871094" y="1082.03076171875" type="line"/>
      <point x="336.71089935302734" y="1082.03076171875" type="line"/>
      <point x="283.51698303222656" y="808.3717803955078" type="line"/>
      <point x="88.46749114990234" y="808.3717803955078" type="line"/>
      <point x="88.46749114990234" y="670.6538162231445" type="line"/>
      <point x="256.74732208251953" y="670.6538162231445" type="line"/>
      <point x="206.3489990234375" y="411.37693786621094" type="line"/>
      <point x="11.299507141113281" y="411.37693786621094" type="line"/>
      <point x="11.299507141113281" y="273.6589813232422" type="line"/>
      <point x="179.57933807373047" y="273.6589813232422" type="line"/>
    </contour>
    <contour>
      <point x="351.3519592285156" y="411.37693786621094" type="line"/>
      <point x="401.7502746582031" y="670.6538162231445" type="line"/>
      <point x="595.6355133056641" y="670.6538162231445" type="line"/>
      <point x="545.237190246582" y="411.37693786621094" type="line"/>
    </contour>
  </outline>
</glyph>
<glyph name="dollar" format="2">
  <advance width="927.0974729241876"/>
  <unicode hex="0024"/>
  <outline>
    <contour>
      <point x="403.97381591796875" y="639.5644607543945" type="line"/>
      <point x="307.21144646804794" y="657.7748795743719"/>
      <point x="235.94945848375448" y="719.3489990424115"/>
      <point x="235.94945848375448" y="792.4007187165078" type="curve"/>
      <point x="235.94945848375448" y="865.9225150880886"/>
      <point x="308.1335182100637" y="927.807820398375"/>
      <point x="405.84476470947266" y="945.582275390625" type="curve"/>
      <point x="405.84476470947266" y="639.2123565673828" type="line"/>
    </contour>
    <contour>
      <point x="62.447654724121094" y="302.22021484375" type="line"/>
      <point x="62.44765342960288" y="142.6371211793926"/>
      <point x="211.76898342034514" y="10.418777153400413"/>
      <point x="405.84476470947266" y="-11.7283935546875" type="curve"/>
      <point x="405.84476470947266" y="-116.9675064086914" type="line"/>
      <point x="521.2527084350586" y="-116.9675064086914" type="line"/>
      <point x="521.2527084350586" y="-11.726409912109375" type="line"/>
      <point x="715.3284895038425" y="10.41877715340042"/>
      <point x="864.6498194945848" y="142.6371211793925"/>
      <point x="864.6498194945848" y="302.2202166064981" type="curve"/>
      <point x="864.6498194945848" y="451.95969270391697"/>
      <point x="733.1820286656827" y="577.6083424745877"/>
      <point x="556.6315343423009" y="610.8346786223593" type="curve"/>
      <point x="521.2527084350586" y="617.4928817749023" type="line"/>
      <point x="521.2527084350586" y="945.590217590332" type="line"/>
      <point x="618.963954714124" y="927.8078203983752"/>
      <point x="691.1480144404331" y="865.9225150880887"/>
      <point x="691.1480144404331" y="792.4007220216606" type="curve"/>
      <point x="835.4079437255859" y="792.4007186889648" type="line"/>
      <point x="835.4079422382671" y="943.4400657042696"/>
      <point x="699.1258155859725" y="1068.7819086627924"/>
      <point x="521.2527084350586" y="1091.3619003295898" type="curve"/>
      <point x="521.2527084350586" y="1196.9675064086914" type="line"/>
      <point x="405.84476470947266" y="1196.9675064086914" type="line"/>
      <point x="405.84476470947266" y="1091.3620529174805" type="line"/>
      <point x="227.97165733821515" y="1068.7819086627924"/>
      <point x="91.68953068592052" y="943.4400657042696"/>
      <point x="91.6895306859205" y="792.4007220216605" type="curve"/>
      <point x="91.68953068592057" y="648.8418823350441"/>
      <point x="214.8089701956652" y="528.5102674423842"/>
      <point x="379.7340615062507" y="497.54197736939796" type="curve"/>
      <point x="405.84476470947266" y="492.63912200927734" type="line"/>
      <point x="405.84476470947266" y="133.65072631835938" type="line"/>
      <point x="291.8367633610621" y="151.30320636271927"/>
      <point x="206.70758122743683" y="220.11980300009367"/>
      <point x="206.70758122743683" y="302.22021660649824" type="curve"/>
    </contour>
    <contour>
      <point x="532.6972732543945" y="468.8197937011719" type="line"/>
      <point x="640.9153236543694" y="448.4994876938899"/>
      <point x="720.3898916967509" y="381.5492534562484"/>
      <point x="720.3898916967509" y="302.2202166064982" type="curve"/>
      <point x="720.3898916967509" y="220.1198030000936"/>
      <point x="635.2607095631255" y="151.3032063627192"/>
      <point x="521.2527084350586" y="133.6603012084961" type="curve"/>
      <point x="521.2527084350586" y="470.96875762939453" type="line"/>
    </contour>
  </outline>
</glyph>
<glyph name="percent" format="2">
  <advance width="1236.690046415678"/>
  <unicode hex="0025"/>
  <outline>
    <contour>
      <point x="570.88499" y="831.03404" type="curve" smooth="yes"/>
      <point x="570.88499" y="976.72082"/>
      <point x="452.60581" y="1095.0"/>
      <point x="306.91903" y="1095.0" type="curve" smooth="yes"/>
      <point x="161.23225" y="1095.0"/>
      <point x="42.95307" y="976.72082"/>
      <point x="42.95307" y="831.03404" type="curve" smooth="yes"/>
      <point x="42.95307" y="685.34726"/>
      <point x="161.23225" y="567.06808"/>
      <point x="306.91903" y="567.06808" type="curve" smooth="yes"/>
      <point x="452.60581" y="567.06808"/>
      <point x="570.88499" y="685.34726"/>
    </contour>
    <contour>
      <point x="139.17264" y="0.0" type="line"/>
      <point x="283.67904" y="0.0" type="line"/>
      <point x="1097.51741" y="1080.0" type="line"/>
      <point x="953.01101" y="1080.0" type="line"/>
    </contour>
    <contour>
      <point x="426.62506" y="831.03404" type="curve" smooth="yes"/>
      <point x="426.62506" y="764.96648"/>
      <point x="372.98659" y="711.328"/>
      <point x="306.91903" y="711.328" type="curve" smooth="yes"/>
      <point x="240.85147" y="711.328"/>
      <point x="187.213" y="764.96648"/>
      <point x="187.213" y="831.03404" type="curve" smooth="yes"/>
      <point x="187.213" y="897.1016"/>
      <point x="240.85147" y="950.74007"/>
      <point x="306.91903" y="950.74007" type="curve" smooth="yes"/>
      <point x="372.98659" y="950.74007"/>
      <point x="426.62506" y="897.1016"/>
    </contour>
    <contour>
      <point x="1193.73698" y="248.96596" type="curve" smooth="yes"/>
      <point x="1193.73698" y="394.65274"/>
      <point x="1075.4578" y="512.93192"/>
      <point x="929.77102" y="512.93192" type="curve" smooth="yes"/>
      <point x="784.08424" y="512.93192"/>
      <point x="665.80505" y="394.65274"/>
      <point x="665.80505" y="248.96596" type="curve" smooth="yes"/>
      <point x="665.80505" y="103.27918"/>
      <point x="784.08424" y="-15.0"/>
      <point x="929.77102" y="-15.0" type="curve" smooth="yes"/>
      <point x="1075.4578" y="-15.0"/>
      <point x="1193.73698" y="103.27918"/>
    </contour>
    <contour>
      <point x="1049.47705" y="248.96596" type="curve" smooth="yes"/>
      <point x="1049.47705" y="182.8984"/>
      <point x="995.83857" y="129.25993"/>
      <point x="929.77102" y="129.25993" type="curve" smooth="yes"/>
      <point x="863.70346" y="129.25993"/>
      <point x="810.06498" y="182.8984"/>
      <point x="810.06498" y="248.96596" type="curve" smooth="yes"/>
      <point x="810.06498" y="315.03352"/>
      <point x="863.70346" y="368.672"/>
      <point x="929.77102" y="368.672" type="curve" smooth="yes"/>
      <point x="995.83857" y="368.672"/>
      <point x="1049.47705" y="315.03352"/>
    </contour>
  </outline>
</glyph>
<glyph name="ampersand" format="2">
  <advance width="981.4247473765244"/>
  <unicode hex="0026"/>
  <outline>
    <contour>
      <point x="330.89109802246094" y="771.0993499755859" type="line"/>
      <point x="314.51291" y="790.78033"/>
      <point x="305.54513" y="815.57608"/>
      <point x="305.54513" y="841.18051" type="curve"/>
      <point x="305.54513" y="901.64808"/>
      <point x="354.63712" y="950.74007"/>
      <point x="415.10469" y="950.74007" type="curve" smooth="yes"/>
      <point x="475.57226" y="950.74007"/>
      <point x="524.66426" y="901.64808"/>
      <point x="524.66426" y="841.18051" type="curve"/>
      <point x="524.66426" y="802.01983"/>
      <point x="504.07578" y="767.6272"/>
      <point x="473.13793" y="748.29152" type="curve"/>
      <point x="392.0469741821289" y="697.6108932495117" type="line"/>
    </contour>
    <contour>
      <point x="279.84526" y="457.42831" type="curve"/>
      <point x="361.69481658935547" y="508.55877685546875" type="line"/>
      <point x="625.5835418701172" y="191.45474243164062" type="line"/>
      <point x="569.9377517582649" y="152.274388888637"/>
      <point x="502.1082500302801" y="129.25992999999997"/>
      <point x="428.9458500000002" y="129.25992999999997" type="curve"/>
      <point x="303.59937" y="129.25993"/>
      <point x="201.83394" y="215.69018"/>
      <point x="201.83394" y="322.14801" type="curve"/>
      <point x="201.83394" y="378.35331"/>
      <point x="232.74916" y="428.00793"/>
    </contour>
    <contour>
      <point x="57.57401" y="322.14801" type="curve"/>
      <point x="57.57401" y="136.07096"/>
      <point x="223.98015" y="-15.0"/>
      <point x="428.94585" y="-15.0" type="curve"/>
      <point x="537.18752798224" y="-15.0"/>
      <point x="637.2184499782124" y="20.43402044301927"/>
      <point x="718.0618438720703" y="80.32744598388672" type="curve"/>
      <point x="784.9090118408203" y="0" type="line"/>
      <point x="972.5871963500977" y="0" type="line"/>
      <point x="820.4286193847656" y="182.84259033203125" type="line"/>
      <point x="880.0665632290228" y="263.5832338983776"/>
      <point x="915.33574" y="363.40028270846994"/>
      <point x="915.33574" y="471.38989" type="curve"/>
      <point x="771.075813293457" y="471.389892578125" type="line"/>
      <point x="771.07581" y="408.33443694621997"/>
      <point x="753.9807676195163" y="349.24023811656417"/>
      <point x="724.1765899658203" y="298.50463104248047" type="curve"/>
      <point x="485.17906188964844" y="585.6979598999023" type="line"/>
      <point x="549.5436096191406" y="625.9057464599609" type="line"/>
      <point x="621.26254" y="670.70773"/>
      <point x="668.92419" y="750.45245"/>
      <point x="668.92419" y="841.18051" type="curve"/>
      <point x="668.92419" y="981.2673"/>
      <point x="555.19148" y="1095.0"/>
      <point x="415.10469" y="1095.0" type="curve" smooth="yes"/>
      <point x="275.0179" y="1095.0"/>
      <point x="161.2852" y="981.2673"/>
      <point x="161.2852" y="841.18051" type="curve"/>
      <point x="161.2852" y="781.86208"/>
      <point x="182.06109" y="724.41712"/>
      <point x="220.00487" y="678.82166" type="curve"/>
      <point x="268.58277130126953" y="620.447624206543" type="line"/>
      <point x="203.4990234375" y="579.7712631225586" type="line"/>
      <point x="115.58807" y="524.82825"/>
      <point x="57.57401" y="429.86782"/>
    </contour>
  </outline>
</glyph>
<glyph name="quote" format="2">
  <advance width="341.17472924187723"/>
  <unicode hex="0027"/>
  <outline>
    <contour>
      <point x="100.98195" y="795.07446" type="line"/>
      <point x="240.19278" y="795.07446" type="line"/>
      <point x="240.19278" y="1081.70578" type="line"/>
      <point x="100.98195" y="1081.70578" type="line"/>
    </contour>
  </outline>
</glyph>
<glyph name="quotesingle" format="2">
  <advance width="347.1335740072202"/>
  <unicode hex="0027"/>
  <outline>
    <contour>
      <point x="101.43682310469313" y="780.7581227436823" type="line"/>
      <point x="245.69675090252707" y="780.7581227436823" type="line"/>
      <point x="245.69675090252707" y="1086.8231046931407" type="line"/>
      <point x="101.43682310469313" y="1086.8231046931407" type="line"/>
    </contour>
  </outline>
</glyph>
<glyph name="parenleft" format="2">
  <advance width="523.6215656707433"/>
  <unicode hex="0028"/>
  <outline>
    <contour>
      <point x="490.41579" y="-144.25993" type="line"/>
      <point x="209.6111" y="289.96554"/>
      <point x="209.6111" y="848.51821"/>
      <point x="490.41579" y="1282.74368" type="curve"/>
      <point x="322.02377" y="1282.74368" type="line"/>
      <point x="73.39573" y="839.85297"/>
      <point x="73.3952" y="298.63377"/>
      <point x="322.0222" y="-144.25993" type="curve"/>
    </contour>
  </outline>
</glyph>
<glyph name="parenright" format="2">
  <advance width="480.18919009194497"/>
  <unicode hex="0029"/>
  <outline>
    <contour>
      <point x="33.20578" y="-72.12996" type="curve"/>
      <point x="196.01719" y="-72.12996" type="line"/>
      <point x="394.17632" y="332.33505"/>
      <point x="394.17673" y="806.14582"/>
      <point x="196.01841" y="1210.61372" type="curve"/>
      <point x="33.20578" y="1210.61372" type="line"/>
      <point x="256.10063" y="812.08084"/>
      <point x="256.10063" y="326.40291"/>
    </contour>
  </outline>
</glyph>
<glyph name="asterisk" format="2">
  <advance width="793.2262780036006"/>
  <unicode hex="002A"/>
  <outline>
    <contour>
      <point x="327.6355209350586" y="411.09205627441406" type="line"/>
      <point x="465.59075927734375" y="411.09205627441406" type="line"/>
      <point x="465.59075927734375" y="626.9261779785156" type="line"/>
      <point x="652.5085906982422" y="519.0091171264648" type="line"/>
      <point x="721.486213684082" y="638.4818572998047" type="line"/>
      <point x="534.5683822631836" y="746.3989181518555" type="line"/>
      <point x="721.486213684082" y="854.3159790039062" type="line"/>
      <point x="652.5085906982422" y="973.7887191772461" type="line"/>
      <point x="465.59075927734375" y="865.8716583251953" type="line"/>
      <point x="465.59075927734375" y="1081.7057800292969" type="line"/>
      <point x="327.6355209350586" y="1081.7057800292969" type="line"/>
      <point x="327.6355209350586" y="865.8716583251953" type="line"/>
      <point x="140.71768951416016" y="973.7887191772461" type="line"/>
      <point x="71.74006652832031" y="854.3159790039062" type="line"/>
      <point x="258.65789794921875" y="746.3989181518555" type="line"/>
      <point x="71.74006652832031" y="638.4818572998047" type="line"/>
      <point x="140.71768951416016" y="519.0091171264648" type="line"/>
      <point x="327.6355209350586" y="626.9261779785156" type="line"/>
    </contour>
  </outline>
</glyph>
<glyph name="plus" format="2">
  <advance width="990.4548736462093"/>
  <unicode hex="002B"/>
  <outline>
    <contour>
      <point x="101.43682098388672" y="419.1335754394531" type="line"/>
      <point x="423.09747314453125" y="419.1335754394531" type="line"/>
      <point x="423.09747314453125" y="97.4729232788086" type="line"/>
      <point x="567.3573989868164" y="97.4729232788086" type="line"/>
      <point x="567.3573989868164" y="419.1335754394531" type="line"/>
      <point x="889.0180511474609" y="419.1335754394531" type="line"/>
      <point x="889.0180511474609" y="563.3935012817383" type="line"/>
      <point x="567.3573989868164" y="563.3935012817383" type="line"/>
      <point x="567.3573989868164" y="885.0541534423828" type="line"/>
      <point x="423.09747314453125" y="885.0541534423828" type="line"/>
      <point x="423.09747314453125" y="563.3935012817383" type="line"/>
      <point x="101.43682098388672" y="563.3935012817383" type="line"/>
    </contour>
  </outline>
</glyph>
<glyph name="comma" format="2">
  <advance width="394.281211850864"/>
  <unicode hex="002C"/>
  <outline>
    <contour>
      <point x="192.25405883789062" y="-244.169677734375" type="line"/>
      <point x="245.38084" y="-152.1514"/>
      <point x="273.3498" y="-47.76979"/>
      <point x="273.3498" y="58.48375" type="curve"/>
      <point x="273.3498001098633" y="189.09747314453125" type="line"/>
      <point x="129.08988189697266" y="189.09747314453125" type="line"/>
      <point x="129.08988189697266" y="58.48374938964844" type="line"/>
      <point x="129.08988" y="-22.44689"/>
      <point x="107.78662" y="-101.95172"/>
      <point x="67.3213" y="-172.03971" type="curve"/>
    </contour>
  </outline>
</glyph>
<glyph name="hyphen" format="2">
  <advance width="770.6911764705883"/>
  <unicode hex="002D"/>
  <outline>
    <contour>
      <point x="98.59183" y="417.06331" type="line"/>
      <point x="672.09935" y="417.06331" type="line"/>
      <point x="672.09935" y="565.94522" type="line"/>
      <point x="98.59183" y="565.94522" type="line"/>
    </contour>
  </outline>
</glyph>
<glyph name="period" format="2">
  <advance width="387.1624548736462"/>
  <unicode hex="002E"/>
  <outline>
    <contour>
      <point x="300.80144" y="91.59799" type="curve" smooth="yes"/>
      <point x="300.80144" y="150.77444"/>
      <point x="252.75768" y="198.81821"/>
      <point x="193.58123" y="198.81821" type="curve" smooth="yes"/>
      <point x="134.40478" y="198.81821"/>
      <point x="86.36101" y="150.77444"/>
      <point x="86.36101" y="91.59799" type="curve" smooth="yes"/>
      <point x="86.36101" y="32.42155"/>
      <point x="134.40478" y="-15.62222"/>
      <point x="193.58123" y="-15.62222" type="curve" smooth="yes"/>
      <point x="252.75768" y="-15.62222"/>
      <point x="300.80144" y="32.42155"/>
    </contour>
  </outline>
</glyph>
<glyph name="slash" format="2">
  <advance width="789.4897930097108"/>
  <unicode hex="002F"/>
  <outline>
    <contour>
      <point x="98.59183" y="-84.81365" type="line"/>
      <point x="255.57924" y="-84.81365" type="line"/>
      <point x="734.54413" y="1231.13157" type="line"/>
      <point x="577.55672" y="1231.13157" type="line"/>
    </contour>
  </outline>
</glyph>
<glyph name="zero" format="2">
  <advance width="917.3501805054151"/>
  <unicode hex="0030"/>
  <outline>
    <contour>
      <point x="686.2743684732967" y="396.8592071533203" type="line"/>
      <point x="686.2743674205406" y="171.8679155597706"/>
      <point x="540.4487792026976" y="129.25993"/>
      <point x="458.67509" y="129.25993" type="curve" smooth="yes"/>
      <point x="376.9014007973024" y="129.25993"/>
      <point x="231.07580833663252" y="171.8679184064503"/>
      <point x="231.07581035966393" y="396.85921" type="curve"/>
      <point x="231.0758129337931" y="683.1407928466797" type="line"/>
      <point x="231.07581495682453" y="908.1320844402294"/>
      <point x="376.9014007973024" y="950.74007"/>
      <point x="458.67509" y="950.74007" type="curve" smooth="yes"/>
      <point x="540.4487792026976" y="950.74007"/>
      <point x="686.2743708655922" y="908.1320815935497"/>
      <point x="686.2743698128361" y="683.14079" type="curve"/>
    </contour>
    <contour>
      <point x="86.81587984124025" y="396.8592071533203" type="line"/>
      <point x="86.81587968944906" y="84.89929587901867"/>
      <point x="304.9497671911797" y="-14.99999999999998"/>
      <point x="458.67509" y="-15.0" type="curve" smooth="yes"/>
      <point x="612.4004128088202" y="-15.0"/>
      <point x="830.5342986948442" y="84.89929872569837"/>
      <point x="830.534300191963" y="396.85921" type="curve"/>
      <point x="830.5343015658495" y="683.1407928466797" type="line"/>
      <point x="830.5343030629683" y="995.1007041209814"/>
      <point x="612.4004128088203" y="1095.0"/>
      <point x="458.67509" y="1095.0" type="curve" smooth="yes"/>
      <point x="304.9497671911798" y="1095.0"/>
      <point x="86.81588013232832" y="995.1007012743016"/>
      <point x="86.81587998053709" y="683.14079" type="curve"/>
    </contour>
  </outline>
</glyph>
<glyph name="one" format="2">
  <advance width="589.8411552346571"/>
  <unicode hex="0031"/>
  <outline>
    <contour>
      <point x="285.66065216064453" y="0" type="line"/>
      <point x="429.9205780029297" y="0" type="line"/>
      <point x="429.9205780029297" y="1080" type="line"/>
      <point x="285.66065216064453" y="1080" type="line"/>
      <point x="96.56317901611328" y="970.8245239257812" type="line"/>
      <point x="96.56317901611328" y="804.2475051879883" type="line"/>
      <point x="285.66065216064453" y="913.422981262207" type="line"/>
    </contour>
  </outline>
</glyph>
<glyph name="two" format="2">
  <advance width="902.7292418772562"/>
  <unicode hex="0032"/>
  <outline>
    <contour>
      <point x="101.11190795898438" y="0" type="line"/>
      <point x="811.0397109985352" y="0" type="line"/>
      <point x="811.0397109985352" y="144.2599334716797" type="line"/>
      <point x="319.6405715942383" y="144.2599334716797" type="line"/>
      <point x="659.58376571061" y="443.01978471516" type="line"/>
      <point x="727.4798767157902" y="502.690436679954"/>
      <point x="811.03971" y="586.8424277216691"/>
      <point x="811.03971" y="737.76173" type="curve"/>
      <point x="811.03971" y="934.9269000000002"/>
      <point x="650.96661" y="1095.0"/>
      <point x="453.80144" y="1095.0" type="curve" smooth="yes"/>
      <point x="256.63628" y="1095.0"/>
      <point x="96.56318" y="934.9269"/>
      <point x="96.56318" y="737.76173" type="curve"/>
      <point x="240.8230972290039" y="737.7617263793945" type="line"/>
      <point x="240.8231" y="855.30768"/>
      <point x="336.2555" y="950.74007"/>
      <point x="453.80144" y="950.74007" type="curve" smooth="yes"/>
      <point x="571.3473900000001" y="950.74007"/>
      <point x="666.77978" y="855.3076800000001"/>
      <point x="666.77978" y="737.76173" type="curve"/>
      <point x="666.77978" y="652.6583406280532"/>
      <point x="620.9298873480885" y="601.1031535549848"/>
      <point x="564.351733655316" y="551.3793137798574" type="curve"/>
      <point x="101.11190795898438" y="144.2599334716797" type="line"/>
    </contour>
  </outline>
</glyph>
<glyph name="three" format="2">
  <advance width="912.4765342960288"/>
  <unicode hex="0033"/>
  <outline>
    <contour>
      <point x="86.81588745117188" y="306.6804428100586" type="line"/>
      <point x="86.8158844765343" y="129.140175648195"/>
      <point x="253.44040925956676" y="-15.0"/>
      <point x="458.6750902527075" y="-15.0" type="curve" smooth="yes"/>
      <point x="663.9097712458483" y="-15.0"/>
      <point x="830.5342960288808" y="129.14017564819486"/>
      <point x="830.5342960288808" y="306.68044474107325" type="curve"/>
      <point x="830.5342960288808" y="408.8127925602498"/>
      <point x="775.3936554097183" y="499.8921303157644"/>
      <point x="689.4824676513672" y="558.8313446044922" type="curve"/>
      <point x="763.9307225562148" y="614.8438624007089"/>
      <point x="811.0397111913356" y="697.4658380399917"/>
      <point x="811.0397111913356" y="789.5504808421563" type="curve"/>
      <point x="811.0397111913358" y="958.1326583171481"/>
      <point x="653.1504170653429" y="1095.0"/>
      <point x="458.67509025270755" y="1095.0" type="curve" smooth="yes"/>
      <point x="264.1997634400722" y="1095.0"/>
      <point x="106.31046931407943" y="958.1326583171481"/>
      <point x="106.31046931407943" y="789.5504808421564" type="curve"/>
      <point x="250.57039642333984" y="789.5504837036133" type="line"/>
      <point x="250.57039711191334" y="878.513437381408"/>
      <point x="343.81898437581225" y="950.7400722021661"/>
      <point x="458.67509025270755" y="950.7400722021661" type="curve" smooth="yes"/>
      <point x="573.5311961296029" y="950.7400722021661"/>
      <point x="666.7797833935018" y="878.513437381408"/>
      <point x="666.7797833935018" y="789.5504808421564" type="curve"/>
      <point x="666.7797833935018" y="700.5875243029049"/>
      <point x="573.5311961296029" y="628.3608894821467"/>
      <point x="458.67509025270755" y="628.3608894821467" type="curve"/>
      <point x="386.54512786865234" y="628.3608932495117" type="line"/>
      <point x="386.54512786865234" y="484.10095977783203" type="line"/>
      <point x="458.67508697509766" y="484.10095977783203" type="line"/>
      <point x="584.2905503101083" y="484.1009616843127"/>
      <point x="686.2743682310469" y="404.6014928982116"/>
      <point x="686.2743682310469" y="306.6804447410733" type="curve"/>
      <point x="686.2743682310469" y="208.75939658393497"/>
      <point x="584.2905503101082" y="129.2599277978339"/>
      <point x="458.67509025270755" y="129.25992779783394" type="curve" smooth="yes"/>
      <point x="333.0596301953068" y="129.25992779783397"/>
      <point x="231.07581227436822" y="208.75939658393506"/>
      <point x="231.07581227436822" y="306.68044474107336" type="curve"/>
    </contour>
  </outline>
</glyph>
<glyph name="four" format="2">
  <advance width="958.841155234657"/>
  <unicode hex="0034"/>
  <outline>
    <contour>
      <point x="260.60350799560547" y="384.19349670410156" type="line"/>
      <point x="594.8215637207031" y="838.3249282836914" type="line"/>
      <point x="594.8215637207031" y="384.19349670410156" type="line"/>
    </contour>
    <contour>
      <point x="81.48735809326172" y="239.9335708618164" type="line"/>
      <point x="594.8215637207031" y="239.9335708618164" type="line"/>
      <point x="594.8215637207031" y="0" type="line"/>
      <point x="739.0814895629883" y="0" type="line"/>
      <point x="739.0814895629883" y="239.9335708618164" type="line"/>
      <point x="906.5956726074219" y="239.9335708618164" type="line"/>
      <point x="906.5956726074219" y="384.19349670410156" type="line"/>
      <point x="739.0814895629883" y="384.19349670410156" type="line"/>
      <point x="739.0814895629883" y="1081.7057800292969" type="line"/>
      <point x="594.8215637207031" y="1081.7057800292969" type="line"/>
      <point x="81.48735809326172" y="384.19349670410156" type="line"/>
    </contour>
  </outline>
</glyph>
<glyph name="five" format="2">
  <advance width="893.2317187969835"/>
  <unicode hex="0035"/>
  <outline>
    <contour>
      <point x="441.4971609326172" y="129.7324738256836" type="curve"/>
      <point x="353.42192" y="129.73248"/>
      <point x="276.99737" y="177.93777"/>
      <point x="239.38519" y="250.13181" type="curve"/>
      <point x="84.0431137084961" y="250.1318130493164" type="line"/>
      <point x="127.87278000000003" y="94.5179299999999"/>
      <point x="269.90976999999987" y="-15.74443999999998"/>
      <point x="441.49716" y="-15.74444" type="curve"/>
      <point x="649.7847000000002" y="-15.74444"/>
      <point x="818.88776" y="144.20218999999992"/>
      <point x="818.88776" y="352.48973" type="curve"/>
      <point x="818.88776" y="554.2202900000001"/>
      <point x="660.7319800000001" y="717.99991"/>
      <point x="459.00142" y="717.99991" type="curve" smooth="yes"/>
      <point x="389.49416261974" y="717.99991"/>
      <point x="324.3982585297" y="699.8498826247481"/>
      <point x="268.64793395996094" y="667.8759460449219" type="curve"/>
      <point x="312.6346893310547" y="936.553840637207" type="line"/>
      <point x="779.8459396362305" y="936.553840637207" type="line"/>
      <point x="779.8459396362305" y="1082.03076171875" type="line"/>
      <point x="190.8849334716797" y="1082.03076171875" type="line"/>
      <point x="91.97773742675781" y="457.5553207397461" type="line"/>
      <point x="234.21517181396484" y="457.55532455444336" type="line"/>
      <point x="249.2558822631836" y="457.5553283691406" type="line"/>
      <point x="286.81848" y="527.58126"/>
      <point x="360.73272" y="575.24698"/>
      <point x="445.69204" y="575.24698" type="curve" smooth="yes"/>
      <point x="568.63511" y="575.24698"/>
      <point x="668.44929" y="475.43280000000004"/>
      <point x="668.44929" y="352.48973" type="curve"/>
      <point x="668.44929" y="227.23143999999994"/>
      <point x="566.7554500000001" y="129.73248"/>
    </contour>
  </outline>
</glyph>
<glyph name="six" format="2">
  <advance width="911.1020117966611"/>
  <unicode hex="0036"/>
  <outline>
    <contour>
      <point x="455.55101" y="129.73248" type="curve" smooth="yes"/>
      <point x="322.67218" y="129.73248"/>
      <point x="214.79143" y="237.61323"/>
      <point x="214.79143" y="370.49206" type="curve"/>
      <point x="214.79143" y="503.37088"/>
      <point x="322.67218" y="611.25163"/>
      <point x="455.55101" y="611.25163" type="curve" smooth="yes"/>
      <point x="588.42983" y="611.25163"/>
      <point x="696.31059" y="503.37088"/>
      <point x="696.31059" y="370.49206" type="curve"/>
      <point x="696.31059" y="237.61323"/>
      <point x="588.42983" y="129.73248"/>
    </contour>
    <contour>
      <point x="64.64481" y="370.49206" type="curve"/>
      <point x="64.64481000000002" y="154.74505999999982"/>
      <point x="239.80401999999995" y="-15.744439999999974"/>
      <point x="455.55101" y="-15.74444" type="curve" smooth="yes"/>
      <point x="671.2980100000001" y="-15.74444"/>
      <point x="846.4572" y="154.74505999999982"/>
      <point x="846.4572" y="370.49206" type="curve"/>
      <point x="846.4572" y="581.7743800000001"/>
      <point x="677.2471100000001" y="753.32357"/>
      <point x="468.86039" y="753.32357" type="curve" smooth="yes"/>
      <point x="449.8790782108042" y="753.32357"/>
      <point x="429.6180563456677" y="751.9381222456319"/>
      <point x="408.45404052734375" y="748.547477722168" type="curve"/>
      <point x="638.3864288330078" y="1082.03076171875" type="line"/>
      <point x="463.40470123291016" y="1082.03076171875" type="line"/>
      <point x="143.16336484436388" y="607.5478409956511" type="line" smooth="yes"/>
      <point x="110.3253846891358" y="558.8937199805071"/>
      <point x="64.64481" y="481.8942742978208"/>
    </contour>
  </outline>
</glyph>
<glyph name="seven" format="2">
  <advance width="839.3718411552345"/>
  <unicode hex="0037"/>
  <outline>
    <contour>
      <point x="204.43321228027344" y="0" type="line"/>
      <point x="362.2252426147461" y="0" type="line"/>
      <point x="776.924186706543" y="935.7400665283203" type="line"/>
      <point x="776.924186706543" y="1080" type="line"/>
      <point x="62.44764709472656" y="1080" type="line"/>
      <point x="62.44764709472656" y="935.7400665283203" type="line"/>
      <point x="619.1321563720703" y="935.7400665283203" type="line"/>
    </contour>
  </outline>
</glyph>
<glyph name="eight" format="2">
  <advance width="921.3140794223826"/>
  <unicode hex="0038"/>
  <outline>
    <contour>
      <point x="839.82671" y="310.78894" type="curve" smooth="yes"/>
      <point x="839.82671" y="416.21061966165"/>
      <point x="782.8353287740704" y="509.4176803902625"/>
      <point x="693.6959075927734" y="568.9539642333984" type="curve"/>
      <point x="765.5913135315869" y="624.1444845262598"/>
      <point x="810.5848399999999" y="704.77691217269"/>
      <point x="810.5848399999999" y="795.13409" type="curve" smooth="yes"/>
      <point x="810.58484" y="963.01652"/>
      <point x="655.26204" y="1097.328"/>
      <point x="460.65704" y="1097.328" type="curve" smooth="yes"/>
      <point x="266.05204" y="1097.328"/>
      <point x="110.72924" y="963.01652"/>
      <point x="110.72924" y="795.13409" type="curve" smooth="yes"/>
      <point x="110.72924" y="704.7780873497001"/>
      <point x="155.72159611282348" y="624.1465819235409"/>
      <point x="227.6152114868164" y="568.9492797851562" type="curve"/>
      <point x="138.4775687324153" y="509.4157572820859"/>
      <point x="81.48735999999997" y="416.20953209835"/>
      <point x="81.48735999999998" y="310.78894" type="curve" smooth="yes"/>
      <point x="81.48736" y="129.52839"/>
      <point x="249.9703" y="-15.62222"/>
      <point x="460.65704" y="-15.62222" type="curve" smooth="yes"/>
      <point x="671.34378" y="-15.62222"/>
      <point x="839.82671" y="129.52839"/>
    </contour>
    <contour>
      <point x="666.32491" y="795.13409" type="curve" smooth="yes"/>
      <point x="666.32491" y="708.08996"/>
      <point x="574.30286" y="637.20011"/>
      <point x="460.65704" y="637.20011" type="curve" smooth="yes"/>
      <point x="347.01122" y="637.20011"/>
      <point x="254.98917" y="708.08996"/>
      <point x="254.98917" y="795.13409" type="curve" smooth="yes"/>
      <point x="254.98917" y="882.17822"/>
      <point x="347.01122" y="953.06807"/>
      <point x="460.65704" y="953.06807" type="curve" smooth="yes"/>
      <point x="574.30286" y="953.06807"/>
      <point x="666.32491" y="882.17822"/>
    </contour>
    <contour>
      <point x="695.56679" y="310.78894" type="curve" smooth="yes"/>
      <point x="695.56679" y="210.39267"/>
      <point x="590.49268" y="128.63771"/>
      <point x="460.65704" y="128.63771" type="curve" smooth="yes"/>
      <point x="330.8214" y="128.63771"/>
      <point x="225.74729" y="210.39267"/>
      <point x="225.74729" y="310.78894" type="curve" smooth="yes"/>
      <point x="225.74729" y="411.18522"/>
      <point x="330.8214" y="492.94018"/>
      <point x="460.65704" y="492.94018" type="curve" smooth="yes"/>
      <point x="590.49268" y="492.94018"/>
      <point x="695.56679" y="411.18522"/>
    </contour>
  </outline>
</glyph>
<glyph name="nine" format="2">
  <advance width="895.4837545126354"/>
  <unicode hex="0039"/>
  <outline>
    <contour>
      <point x="828.61733" y="716.4525500000001" type="curve" smooth="yes"/>
      <point x="828.61733" y="926.6634300000001"/>
      <point x="657.9527600000001" y="1097.328"/>
      <point x="447.74188" y="1097.328" type="curve" smooth="yes"/>
      <point x="237.53099" y="1097.328"/>
      <point x="66.86643" y="926.66343"/>
      <point x="66.86643" y="716.45255" type="curve" smooth="yes"/>
      <point x="66.86643" y="506.24166"/>
      <point x="237.53099" y="335.5771"/>
      <point x="447.74188" y="335.5771" type="curve" smooth="yes"/>
      <point x="458.37455652128" y="335.5771"/>
      <point x="468.90605627765706" y="336.0137346206355"/>
      <point x="479.31964111328125" y="336.87830352783203" type="curve"/>
      <point x="255.07422637939453" y="0" type="line"/>
      <point x="428.37232971191406" y="0" type="line"/>
      <point x="753.7037714107486" y="488.7610528899078" type="line"/>
      <point x="785.9169910510655" y="537.1565201898383"/>
      <point x="828.61733" y="610.5515313169739"/>
    </contour>
    <contour>
      <point x="684.3574" y="716.45255" type="curve" smooth="yes"/>
      <point x="684.3574" y="585.86089"/>
      <point x="578.33354" y="479.83702"/>
      <point x="447.74188" y="479.83702" type="curve" smooth="yes"/>
      <point x="317.15022" y="479.83702"/>
      <point x="211.12635" y="585.86089"/>
      <point x="211.12635" y="716.45255" type="curve" smooth="yes"/>
      <point x="211.12635" y="847.04421"/>
      <point x="317.15022" y="953.06807"/>
      <point x="447.74188" y="953.06807" type="curve" smooth="yes"/>
      <point x="578.33354" y="953.06807"/>
      <point x="684.3574" y="847.04421"/>
    </contour>
  </outline>
</glyph>
<glyph name="colon" format="2">
  <advance width="387.1624548736462"/>
  <unicode hex="003A"/>
  <outline>
    <contour>
      <point x="300.80144" y="723.94578" type="curve" smooth="yes"/>
      <point x="300.80144" y="783.12223"/>
      <point x="252.75768" y="831.16599"/>
      <point x="193.58123" y="831.16599" type="curve" smooth="yes"/>
      <point x="134.40478" y="831.16599"/>
      <point x="86.36101" y="783.12223"/>
      <point x="86.36101" y="723.94578" type="curve" smooth="yes"/>
      <point x="86.36101" y="664.76933"/>
      <point x="134.40478" y="616.72556"/>
      <point x="193.58123" y="616.72556" type="curve" smooth="yes"/>
      <point x="252.75768" y="616.72556"/>
      <point x="300.80144" y="664.76933"/>
    </contour>
    <contour>
      <point x="300.80144" y="91.59799" type="curve" smooth="yes"/>
      <point x="300.80144" y="150.77444"/>
      <point x="252.75768" y="198.81821"/>
      <point x="193.58123" y="198.81821" type="curve" smooth="yes"/>
      <point x="134.40478" y="198.81821"/>
      <point x="86.36101" y="150.77444"/>
      <point x="86.36101" y="91.59799" type="curve" smooth="yes"/>
      <point x="86.36101" y="32.42155"/>
      <point x="134.40478" y="-15.62222"/>
      <point x="193.58123" y="-15.62222" type="curve" smooth="yes"/>
      <point x="252.75768" y="-15.62222"/>
      <point x="300.80144" y="32.42155"/>
    </contour>
  </outline>
</glyph>
<glyph name="semicolon" format="2">
  <advance width="396.17443919272256"/>
  <unicode hex="003B"/>
  <outline>
    <contour>
      <point x="309.81343" y="723.94578" type="curve" smooth="yes"/>
      <point x="309.81343" y="783.12223"/>
      <point x="261.76966" y="831.16599"/>
      <point x="202.59321" y="831.16599" type="curve" smooth="yes"/>
      <point x="143.41676" y="831.16599"/>
      <point x="95.373" y="783.12223"/>
      <point x="95.373" y="723.94578" type="curve" smooth="yes"/>
      <point x="95.373" y="664.76933"/>
      <point x="143.41676" y="616.72556"/>
      <point x="202.59321" y="616.72556" type="curve" smooth="yes"/>
      <point x="261.76966" y="616.72556"/>
      <point x="309.81343" y="664.76933"/>
    </contour>
    <contour>
      <point x="191.79918670654297" y="-241.8953094482422" type="line"/>
      <point x="260.1041587981224" y="-123.58763455672678"/>
      <point x="274.7231784203811" y="-9.4548961967823"/>
      <point x="274.7231804100982" y="87.58123" type="curve"/>
      <point x="274.72318267822266" y="198.1949462890625" type="line"/>
      <point x="130.46324920654297" y="198.1949462890625" type="line"/>
      <point x="130.46324920654297" y="87.58123016357422" type="line"/>
      <point x="130.46324920654297" y="8.164150347303888"/>
      <point x="119.49634988626912" y="-78.60764152074192"/>
      <point x="66.86643" y="-169.76534" type="curve"/>
    </contour>
  </outline>
</glyph>
<glyph name="less" format="2">
  <advance width="1017.5076714801444"/>
  <unicode hex="003C"/>
  <outline>
    <contour>
      <point x="100.98194885253906" y="569.0627365112305" type="line"/>
      <point x="100.98194885253906" y="413.46434020996094" type="line"/>
      <point x="916.5257186889648" y="83.82671356201172" type="line"/>
      <point x="916.5257186889648" y="239.42510986328125" type="line"/>
      <point x="293.46195220947266" y="491.26353454589844" type="line"/>
      <point x="916.5257186889648" y="743.1019668579102" type="line"/>
      <point x="916.5257186889648" y="898.7003631591797" type="line"/>
    </contour>
  </outline>
</glyph>
<glyph name="equal" format="2">
  <advance width="990.4548736462093"/>
  <unicode hex="003D"/>
  <outline>
    <contour>
      <point x="101.43682" y="578.98917" type="line"/>
      <point x="889.01805" y="578.98917" type="line"/>
      <point x="889.01805" y="723.2491" type="line"/>
      <point x="101.43682" y="723.2491" type="line"/>
    </contour>
    <contour>
      <point x="101.43682" y="259.27798" type="line"/>
      <point x="889.01805" y="259.27798" type="line"/>
      <point x="889.01805" y="403.53791" type="line"/>
      <point x="101.43682" y="403.53791" type="line"/>
    </contour>
  </outline>
</glyph>
<glyph name="greater" format="2">
  <advance width="1017.5076714801444"/>
  <unicode hex="003E"/>
  <outline>
    <contour>
      <point x="916.5257186889648" y="569.0627365112305" type="line"/>
      <point x="100.98194885253906" y="898.7003631591797" type="line"/>
      <point x="100.98194885253906" y="743.1019668579102" type="line"/>
      <point x="724.0457153320312" y="491.26353454589844" type="line"/>
      <point x="100.98194885253906" y="239.42510986328125" type="line"/>
      <point x="100.98194885253906" y="83.82671356201172" type="line"/>
      <point x="916.5257186889648" y="413.46434020996094" type="line"/>
    </contour>
  </outline>
</glyph>
<glyph name="question" format="2">
  <advance width="815.0036101083033"/>
  <unicode hex="003F"/>
  <outline>
    <contour>
      <point x="335.37184143066406" y="307.3104705810547" type="line"/>
      <point x="479.6317672729492" y="307.3104705810547" type="line"/>
      <point x="479.6317672729492" y="432.18650817871094" type="line"/>
      <point x="630.0751043587243" y="465.2110372261439"/>
      <point x="742.8086642599278" y="599.390805373892"/>
      <point x="742.8086642599278" y="759.6931407942238" type="curve"/>
      <point x="742.8086642599278" y="944.7540326989171"/>
      <point x="592.5626969588449" y="1095.0"/>
      <point x="407.5018050541516" y="1095.0" type="curve" smooth="yes"/>
      <point x="222.44091314945848" y="1095.0"/>
      <point x="72.19494584837544" y="944.7540326989171"/>
      <point x="72.19494584837544" y="759.6931407942238" type="curve"/>
      <point x="216.45487213134766" y="759.6931381225586" type="line"/>
      <point x="216.45487364620936" y="865.1348117631769"/>
      <point x="302.06013408519857" y="950.7400722021661"/>
      <point x="407.5018050541516" y="950.7400722021661" type="curve" smooth="yes"/>
      <point x="512.9434760231047" y="950.7400722021661"/>
      <point x="598.5487364620939" y="865.1348117631769"/>
      <point x="598.5487364620939" y="759.6931407942238" type="curve"/>
      <point x="598.5487364620939" y="654.2514698252709"/>
      <point x="512.9434760231047" y="568.6462093862816"/>
      <point x="407.5018050541516" y="568.6462093862816" type="curve"/>
      <point x="335.37184143066406" y="568.6462097167969" type="line"/>
    </contour>
    <contour>
      <point x="514.7220216606498" y="92.2202166064982" type="curve" smooth="yes"/>
      <point x="514.7220216606498" y="151.39666459927798"/>
      <point x="466.6782530469314" y="199.4404332129964"/>
      <point x="407.5018050541516" y="199.4404332129964" type="curve" smooth="yes"/>
      <point x="348.3253570613718" y="199.4404332129964"/>
      <point x="300.2815884476534" y="151.39666459927798"/>
      <point x="300.2815884476534" y="92.2202166064982" type="curve" smooth="yes"/>
      <point x="300.2815884476534" y="33.04376861371842"/>
      <point x="348.3253570613718" y="-14.999999999999982"/>
      <point x="407.5018050541516" y="-14.999999999999996" type="curve" smooth="yes"/>
      <point x="466.67825304693133" y="-15.00000000000001"/>
      <point x="514.7220216606498" y="33.043768613718385"/>
    </contour>
  </outline>
</glyph>
<glyph name="at" format="2">
  <advance width="1394.1425684777728"/>
  <unicode hex="0040"/>
  <outline>
    <contour>
      <point x="1097.55197" y="257.59358" type="curve"/>
      <point x="1042.2112993890407" y="257.59358"/>
      <point x="1041.9931600730122" y="340.21971506490866"/>
      <point x="1041.9931598393382" y="369.30865" type="curve"/>
      <point x="1041.9931564331055" y="793.3341217041016" type="line"/>
      <point x="906.4391708374023" y="793.3341217041016" type="line"/>
      <point x="906.4391708374023" y="715.0290222167969" type="line"/>
      <point x="855.0535770445039" y="773.3121443991754"/>
      <point x="781.7810463004599" y="809.07857"/>
      <point x="690.41659" y="809.07857" type="curve" smooth="yes"/>
      <point x="500.1782299999999" y="809.07857"/>
      <point x="345.72881" y="656.0002100000002"/>
      <point x="345.72881" y="465.76184" type="curve"/>
      <point x="345.72881" y="273.68706999999995"/>
      <point x="501.66915999999986" y="122.44512000000003"/>
      <point x="693.74394" y="122.44512" type="curve" smooth="yes"/>
      <point x="801.71058417" y="122.44512"/>
      <point x="892.300585955976" y="172.39106600044278"/>
      <point x="950.2626266479492" y="250.43331909179688" type="curve"/>
      <point x="974.5793497890511" y="182.9628787030414"/>
      <point x="1025.47514859076" y="136.99384"/>
      <point x="1097.55197" y="136.99383999999998" type="curve"/>
      <point x="1222.63646" y="136.99384"/>
      <point x="1324.64818" y="285.8940899999999"/>
      <point x="1324.64818" y="470.19831" type="curve"/>
      <point x="1324.64818" y="816.5674200000001"/>
      <point x="1043.4404000000002" y="1097.7752"/>
      <point x="697.07128" y="1097.7752" type="curve" smooth="yes"/>
      <point x="350.70217" y="1097.7752"/>
      <point x="69.49439" y="816.56742"/>
      <point x="69.49439" y="470.19831" type="curve"/>
      <point x="69.49439" y="123.82919"/>
      <point x="350.70217" y="-157.37859"/>
      <point x="697.07128" y="-157.37859" type="curve"/>
      <point x="697.0712814331055" y="-28.926589965820312" type="line" smooth="yes"/>
      <point x="421.59676" y="-28.92659"/>
      <point x="197.94639" y="194.72378"/>
      <point x="197.94639" y="470.19831" type="curve"/>
      <point x="197.94639" y="745.67283"/>
      <point x="421.59676" y="969.32321"/>
      <point x="697.07128" y="969.32321" type="curve" smooth="yes"/>
      <point x="972.5458100000001" y="969.32321"/>
      <point x="1196.19618" y="745.6728300000001"/>
      <point x="1196.19618" y="470.19831" type="curve"/>
      <point x="1196.19618" y="375.8794776655537"/>
      <point x="1163.6780622749238" y="257.59358"/>
    </contour>
    <contour>
      <point x="697.07128" y="256.39396" type="curve" smooth="yes"/>
      <point x="581.51801" y="256.39396"/>
      <point x="487.7034" y="350.20857"/>
      <point x="487.7034" y="465.76184" type="curve"/>
      <point x="487.7034" y="581.31512"/>
      <point x="581.51801" y="675.12973"/>
      <point x="697.07128" y="675.12973" type="curve" smooth="yes"/>
      <point x="812.62456" y="675.12973"/>
      <point x="906.43917" y="581.31512"/>
      <point x="906.43917" y="465.76184" type="curve"/>
      <point x="906.43917" y="350.20857"/>
      <point x="812.62456" y="256.39396"/>
    </contour>
    <contour>
      <point x="697.07129" y="-157.37859" type="line"/>
      <point x="893.29528" y="-157.37859"/>
      <point x="1068.60629" y="-67.12734"/>
      <point x="1183.72326" y="74.10206" type="curve"/>
      <point x="1004.29323" y="74.10206" type="line"/>
      <point x="919.17823" y="9.49309"/>
      <point x="812.65754" y="-28.92659"/>
      <point x="697.07128" y="-28.92659" type="curve"/>
    </contour>
  </outline>
</glyph>
<glyph name="A" format="2">
  <advance width="1077.2057761732588"/>
  <unicode hex="0041"/>
  <anchor x="538.6028880866426" y="1196.9675090252708" name="above" identifier="above"/>
  <anchor x="538.6028880866426" y="-116.96750902527076" name="below" identifier="below"/>
  <anchor x="1063.494584837545" y="0" name="ogonek" identifier="ogonek"/>
  <outline>
    <contour>
      <point x="13.711189270019531" y="0" type="line"/>
      <point x="169.8305206298828" y="0" type="line"/>
      <point x="280.36710357666016" y="267.16864013671875" type="line"/>
      <point x="796.8386764526367" y="267.16864013671875" type="line"/>
      <point x="907.3752593994141" y="0" type="line"/>
      <point x="1063.4945831298828" y="0" type="line"/>
      <point x="616.6625518798828" y="1080" type="line"/>
      <point x="460.54322814941406" y="1080" type="line"/>
    </contour>
    <contour>
      <point x="340.05224609375" y="411.42857360839844" type="line"/>
      <point x="538.6028900146484" y="891.3285751342773" type="line"/>
      <point x="737.1535339355469" y="411.42857360839844" type="line"/>
    </contour>
  </outline>
</glyph>
<glyph name="B" format="2">
  <advance width="975.8339350180504"/>
  <unicode hex="0042"/>
  <outline>
    <contour>
      <point x="101.43682098388672" y="0" type="line"/>
      <point x="612.1949462890625" y="0" type="line"/>
      <point x="781.1168064823105" y="0.0"/>
      <point x="918.2599277978338" y="137.14312131552347"/>
      <point x="918.2599277978338" y="306.06498194945846" type="curve" smooth="yes"/>
      <point x="918.2599277978338" y="410.6901147702988"/>
      <point x="865.6491937384135" y="503.1243131353156"/>
      <point x="785.4623718261719" y="558.3269424438477" type="curve"/>
      <point x="840.4213937009124" y="613.6515486713791"/>
      <point x="874.3971119133573" y="689.8568646697704"/>
      <point x="874.3971119133572" y="773.9350180505414" type="curve" smooth="yes"/>
      <point x="874.3971119133573" y="942.8568786844766"/>
      <point x="737.253990597834" y="1080.0"/>
      <point x="568.332129963899" y="1080.0" type="curve"/>
      <point x="101.43682098388672" y="1080" type="line"/>
    </contour>
    <contour>
      <point x="568.3321304321289" y="935.7400741577148" type="line"/>
      <point x="657.634769662094" y="935.7400722021661"/>
      <point x="730.1371841155235" y="863.2376577487364"/>
      <point x="730.1371841155235" y="773.9350180505415" type="curve" smooth="yes"/>
      <point x="730.1371841155235" y="684.6323783523466"/>
      <point x="657.634769662094" y="612.1299638989169"/>
      <point x="568.332129963899" y="612.1299638989169" type="curve"/>
      <point x="245.6967544555664" y="612.1299667358398" type="line"/>
      <point x="245.6967544555664" y="935.7400741577148" type="line"/>
    </contour>
    <contour>
      <point x="612.1949462890625" y="467.87003326416016" type="line"/>
      <point x="701.4975855465705" y="467.87003610108303"/>
      <point x="774.0" y="395.36762164765344"/>
      <point x="774.0" y="306.06498194945846" type="curve" smooth="yes"/>
      <point x="774.0" y="216.76234225126353"/>
      <point x="701.4975855465705" y="144.25992779783394"/>
      <point x="612.1949458483755" y="144.25992779783394" type="curve"/>
      <point x="245.6967544555664" y="144.25992584228516" type="line"/>
      <point x="245.6967544555664" y="467.87003326416016" type="line"/>
    </contour>
  </outline>
</glyph>
<glyph name="C" format="2">
  <advance width="1202.4961213480262"/>
  <unicode hex="0043"/>
  <anchor x="623.3415363016446" y="1198.673285198556" name="above" identifier="above"/>
  <anchor x="623.3415363016446" y="-116.96750902527076" name="below" identifier="below"/>
  <anchor x="623.3415363016446" y="0" name="cedilla" identifier="cedilla"/>
  <outline>
    <contour>
      <point x="623.34154" y="128.63771" type="curve" smooth="yes"/>
      <point x="395.83379" y="128.63771"/>
      <point x="211.12635" y="313.34514"/>
      <point x="211.12635" y="540.85289" type="curve" smooth="yes"/>
      <point x="211.12635" y="768.36064"/>
      <point x="395.83379" y="953.06807"/>
      <point x="623.34154" y="953.06807" type="curve" smooth="yes"/>
      <point x="775.9592" y="953.06807"/>
      <point x="909.3165" y="869.94883"/>
      <point x="980.57548" y="746.54807" type="curve"/>
      <point x="1140.50334" y="746.54807" type="line"/>
      <point x="1058.63065" y="951.98406"/>
      <point x="857.82561" y="1097.328"/>
      <point x="623.34154" y="1097.328" type="curve" smooth="yes"/>
      <point x="316.21456" y="1097.328"/>
      <point x="66.86643" y="847.97986"/>
      <point x="66.86643" y="540.85289" type="curve" smooth="yes"/>
      <point x="66.86643" y="233.72592"/>
      <point x="316.21456" y="-15.62222"/>
      <point x="623.34154" y="-15.62222" type="curve" smooth="yes"/>
      <point x="857.82499" y="-15.62222"/>
      <point x="1058.6296" y="129.72095"/>
      <point x="1140.50252" y="335.15771" type="curve"/>
      <point x="980.56941" y="335.15771" type="line"/>
      <point x="909.30895" y="211.75224"/>
      <point x="775.95487" y="128.63771"/>
    </contour>
  </outline>
</glyph>
<glyph name="D" format="2">
  <advance width="1102.5487364620938"/>
  <unicode hex="0044"/>
  <outline>
    <contour>
      <point x="101.43682098388672" y="0" type="line"/>
      <point x="495.2274398803711" y="0" type="line"/>
      <point x="793.2615476231049" y="0.0"/>
      <point x="1035.2274368231047" y="241.96588920000005"/>
      <point x="1035.2274368231047" y="540.0" type="curve" smooth="yes"/>
      <point x="1035.2274368231047" y="838.0341108"/>
      <point x="793.2615476231047" y="1080.0"/>
      <point x="495.22743682310465" y="1080.0" type="curve"/>
      <point x="101.43682098388672" y="1080" type="line"/>
    </contour>
    <contour>
      <point x="495.2274398803711" y="935.7400741577148" type="line"/>
      <point x="713.6423266873646" y="935.7400722021661"/>
      <point x="890.9675090252708" y="758.4148898642599"/>
      <point x="890.9675090252708" y="540.0" type="curve" smooth="yes"/>
      <point x="890.9675090252708" y="321.5851101357401"/>
      <point x="713.6423266873646" y="144.25992779783394"/>
      <point x="495.22743682310465" y="144.25992779783394" type="curve"/>
      <point x="245.6967544555664" y="144.25992584228516" type="line"/>
      <point x="245.6967544555664" y="935.7400741577148" type="line"/>
    </contour>
  </outline>
</glyph>
<glyph name="E" format="2">
  <advance width="946.5920577617329"/>
  <unicode hex="0045"/>
  <outline>
    <contour>
      <point x="101.43682098388672" y="0" type="line"/>
      <point x="859.7761688232422" y="0" type="line"/>
      <point x="859.7761688232422" y="144.2599334716797" type="line"/>
      <point x="245.69674682617188" y="144.2599334716797" type="line"/>
      <point x="245.69674682617188" y="467.8700408935547" type="line"/>
      <point x="801.2924194335938" y="467.8700408935547" type="line"/>
      <point x="801.2924194335938" y="612.1299591064453" type="line"/>
      <point x="245.69674682617188" y="612.1299591064453" type="line"/>
      <point x="245.69674682617188" y="935.7400665283203" type="line"/>
      <point x="859.7761688232422" y="935.7400665283203" type="line"/>
      <point x="859.7761688232422" y="1080" type="line"/>
      <point x="101.43682098388672" y="1080" type="line"/>
    </contour>
  </outline>
</glyph>
<glyph name="F" format="2">
  <advance width="917.3501805054152"/>
  <unicode hex="0046"/>
  <anchor x="473.2960288808664" y="1196.9675090252708" name="above" identifier="above"/>
  <anchor x="101.43682310469313" y="0" name="hookleft" identifier="hookleft"/>
  <outline>
    <contour>
      <point x="101.43682098388672" y="0" type="line"/>
      <point x="245.69674682617188" y="0" type="line"/>
      <point x="245.69674682617188" y="467.8700408935547" type="line"/>
      <point x="786.6714782714844" y="467.8700408935547" type="line"/>
      <point x="786.6714782714844" y="612.1299591064453" type="line"/>
      <point x="245.69674682617188" y="612.1299591064453" type="line"/>
      <point x="245.69674682617188" y="935.7400665283203" type="line"/>
      <point x="845.1552276611328" y="935.7400665283203" type="line"/>
      <point x="845.1552276611328" y="1080" type="line"/>
      <point x="101.43682098388672" y="1080" type="line"/>
    </contour>
  </outline>
</glyph>
<glyph name="G" format="2">
  <advance width="1244.6425992779782"/>
  <unicode hex="0047"/>
  <outline>
    <contour>
      <point x="622.3212966918945" y="424.00721740722656" type="line"/>
      <point x="1016.4181747436523" y="424.00721740722656" type="line"/>
      <point x="966.3011300791705" y="253.70523822150517"/>
      <point x="808.7294191460235" y="129.25992779783388"/>
      <point x="622.321299638989" y="129.259927797834" type="curve" smooth="yes"/>
      <point x="395.62768447472916" y="129.259927797834"/>
      <point x="211.58122743682304" y="313.3063848357401"/>
      <point x="211.5812274368231" y="540.0" type="curve" smooth="yes"/>
      <point x="211.5812274368231" y="766.6936151642599"/>
      <point x="395.6276844747292" y="950.7400722021661"/>
      <point x="622.3212996389891" y="950.7400722021661" type="curve" smooth="yes"/>
      <point x="762.113277591721" y="950.7400722021661"/>
      <point x="885.6880500658312" y="880.7537157243679"/>
      <point x="959.8884710869634" y="773.9350147453886" type="curve"/>
      <point x="1125.681396484375" y="773.9350128173828" type="line"/>
      <point x="1037.353320225601" y="963.4864002355429"/>
      <point x="845.0744445535979" y="1095.0"/>
      <point x="622.3212996389891" y="1095.0" type="curve" smooth="yes"/>
      <point x="316.0084635389892" y="1095.0"/>
      <point x="67.32129963898916" y="846.3128361"/>
      <point x="67.32129963898916" y="540.0" type="curve" smooth="yes"/>
      <point x="67.32129963898916" y="233.68716390000003"/>
      <point x="316.0084635389891" y="-15.0"/>
      <point x="622.3212996389891" y="-15.0" type="curve" smooth="yes"/>
      <point x="928.634135738989" y="-15.00000000000011"/>
      <point x="1177.321299638989" y="233.68716389999986"/>
      <point x="1177.321299638989" y="540.0" type="curve" smooth="yes"/>
      <point x="1177.321299638989" y="549.5091756838884"/>
      <point x="1177.0816323744398" y="558.9628157823955"/>
      <point x="1176.6080344299976" y="568.2671447092875" type="curve"/>
      <point x="1033.0613708496094" y="568.2671432495117" type="line"/>
      <point x="1033.0613708496094" y="568.2671508789062" type="line"/>
      <point x="622.3212966918945" y="568.2671508789062" type="line"/>
    </contour>
  </outline>
</glyph>
<glyph name="H" format="2">
  <advance width="1048.9386281588447"/>
  <unicode hex="0048"/>
  <outline>
    <contour>
      <point x="101.43682098388672" y="0" type="line"/>
      <point x="245.6967544555664" y="0" type="line"/>
      <point x="245.6967544555664" y="467.87003326416016" type="line"/>
      <point x="803.2418746948242" y="467.87003326416016" type="line"/>
      <point x="803.2418746948242" y="0" type="line"/>
      <point x="947.5018081665039" y="0" type="line"/>
      <point x="947.5018081665039" y="1080" type="line"/>
      <point x="803.2418746948242" y="1080" type="line"/>
      <point x="803.2418746948242" y="612.1299667358398" type="line"/>
      <point x="245.6967544555664" y="612.1299667358398" type="line"/>
      <point x="245.6967544555664" y="1080" type="line"/>
      <point x="101.43682098388672" y="1080" type="line"/>
    </contour>
  </outline>
</glyph>
<glyph name="I" format="2">
  <advance width="347.1335740072202"/>
  <unicode hex="0049"/>
  <anchor x="173.5667870036101" y="1196.9675090252708" name="above" identifier="above"/>
  <anchor x="173.5667870036101" y="-116.96750902527076" name="below" identifier="below"/>
  <anchor x="245.69675090252707" y="0" name="ogonek" identifier="ogonek"/>
  <anchor x="173.5667870036101" y="540.0" name="stroke" identifier="stroke"/>
  <outline>
    <contour>
      <point x="101.43682" y="0.0" type="line"/>
      <point x="245.69675" y="0.0" type="line"/>
      <point x="245.69675" y="1080.0" type="line"/>
      <point x="101.43682" y="1080.0" type="line"/>
    </contour>
  </outline>
</glyph>
<glyph name="J" format="2">
  <advance width="873.4873646209386"/>
  <unicode hex="004A"/>
  <outline>
    <contour>
      <point x="57.574012756347656" y="364.5487365722656" type="line"/>
      <point x="57.57400999999999" y="163.34881"/>
      <point x="220.92281999999992" y="2.4639883801670367e-14"/>
      <point x="422.12274" y="0.0" type="curve" smooth="yes"/>
      <point x="572.2632110847592" y="0.0"/>
      <point x="786.6714806463002" y="97.03808891513933"/>
      <point x="786.6714799033608" y="404.54874" type="curve"/>
      <point x="786.6714782714844" y="1080" type="line"/>
      <point x="642.4115524291992" y="1080" type="line"/>
      <point x="642.4115524291992" y="404.5487365722656" type="line"/>
      <point x="642.4115524291992" y="186.3533927617591"/>
      <point x="503.07579410495754" y="144.25993"/>
      <point x="422.12274" y="144.25993" type="curve" smooth="yes"/>
      <point x="300.54203999999993" y="144.25993000000003"/>
      <point x="201.83394" y="242.96802999999994"/>
      <point x="201.83394" y="364.54874" type="curve"/>
    </contour>
  </outline>
</glyph>
<glyph name="K" format="2">
  <advance width="1004.1010830325523"/>
  <unicode hex="004B"/>
  <outline>
    <contour>
      <point x="101.43682098388672" y="0" type="line"/>
      <point x="245.69674682617188" y="0" type="line"/>
      <point x="245.69674682617188" y="467.8700408935547" type="line"/>
      <point x="749.2181930541992" y="0" type="line"/>
      <point x="961.1480102539062" y="0" type="line"/>
      <point x="380.00035095214844" y="540" type="line"/>
      <point x="961.1480102539062" y="1080" type="line"/>
      <point x="749.2181930541992" y="1080" type="line"/>
      <point x="245.69674682617188" y="612.1299591064453" type="line"/>
      <point x="245.69674682617188" y="1080" type="line"/>
      <point x="101.43682098388672" y="1080" type="line"/>
    </contour>
  </outline>
</glyph>
<glyph name="L" format="2">
  <advance width="873.4873646209386"/>
  <unicode hex="004C"/>
  <outline>
    <contour>
      <point x="101.43682098388672" y="0" type="line"/>
      <point x="830.5343017578125" y="0" type="line"/>
      <point x="830.5343017578125" y="144.2599334716797" type="line"/>
      <point x="245.69674682617188" y="144.2599334716797" type="line"/>
      <point x="245.69674682617188" y="1080" type="line"/>
      <point x="101.43682098388672" y="1080" type="line"/>
    </contour>
  </outline>
</glyph>
<glyph name="M" format="2">
  <advance width="1214.7888086642597"/>
  <unicode hex="004D"/>
  <anchor x="607.3944043321299" y="1198.673285198556" name="above" identifier="above"/>
  <anchor x="607.3944043321299" y="-116.96750902527076" name="below" identifier="below"/>
  <outline>
    <contour>
      <point x="100.98194885253906" y="0" type="line"/>
      <point x="245.24188232421875" y="0" type="line"/>
      <point x="245.24188232421875" y="814.1619186401367" type="line"/>
      <point x="536.3864593505859" y="274.2064208984375" type="line"/>
      <point x="607.394401550293" y="274.2064208984375" type="line"/>
      <point x="607.394401550293" y="446.4736785888672" type="line"/>
      <point x="264.87657928466797" y="1081.7057800292969" type="line"/>
      <point x="100.98194885253906" y="1081.7057800292969" type="line"/>
    </contour>
    <contour>
      <point x="607.3944091796875" y="274.2064208984375" type="line"/>
      <point x="678.40234375" y="274.2064208984375" type="line"/>
      <point x="969.5469284057617" y="814.1619262695312" type="line"/>
      <point x="969.5469284057617" y="0" type="line"/>
      <point x="1113.8068618774414" y="0" type="line"/>
      <point x="1113.8068618774414" y="1081.7057800292969" type="line"/>
      <point x="949.9122314453125" y="1081.7057800292969" type="line"/>
      <point x="607.3944091796875" y="446.4736785888672" type="line"/>
    </contour>
  </outline>
</glyph>
<glyph name="N" format="2">
  <advance width="1082.729241877256"/>
  <unicode hex="004E"/>
  <anchor x="541.3646209386281" y="1196.9675090252708" name="above" identifier="above"/>
  <anchor x="541.3646209386281" y="-116.96750902527076" name="below" identifier="below"/>
  <anchor x="101.43682310469313" y="0" name="hookleft" identifier="hookleft"/>
  <outline>
    <contour>
      <point x="101.43682098388672" y="0" type="line"/>
      <point x="245.69674682617188" y="0" type="line"/>
      <point x="245.69674682617188" y="831.1535720825195" type="line"/>
      <point x="837.0324935913086" y="0" type="line"/>
      <point x="981.2924194335938" y="0" type="line"/>
      <point x="981.2924194335938" y="1080" type="line"/>
      <point x="837.0324935913086" y="1080" type="line"/>
      <point x="837.0324935913086" y="248.84642791748047" type="line"/>
      <point x="245.69674682617188" y="1080" type="line"/>
      <point x="101.43682098388672" y="1080" type="line"/>
    </contour>
  </outline>
</glyph>
<glyph name="O" format="2">
  <advance width="1246.6830726032892"/>
  <unicode hex="004F"/>
  <anchor x="623.3415363016446" y="1198.673285198556" name="above" identifier="above"/>
  <anchor x="623.3415363016446" y="-116.96750902527076" name="below" identifier="below"/>
  <anchor x="623.3415363016446" y="0" name="ogonek" identifier="ogonek"/>
  <anchor x="623.3415363016446" y="540.8528880866426" name="stroke" identifier="stroke"/>
  <anchor x="623.3415363016446" y="1097.3279983955074" name="horn" identifier="horn"/>
  <outline>
    <contour>
      <point x="1179.81665" y="540.85289" type="curve" smooth="yes"/>
      <point x="1179.81665" y="847.97986"/>
      <point x="930.46851" y="1097.328"/>
      <point x="623.34154" y="1097.328" type="curve" smooth="yes"/>
      <point x="316.21456" y="1097.328"/>
      <point x="66.86643" y="847.97986"/>
      <point x="66.86643" y="540.85289" type="curve" smooth="yes"/>
      <point x="66.86643" y="233.72592"/>
      <point x="316.21456" y="-15.62222"/>
      <point x="623.34154" y="-15.62222" type="curve" smooth="yes"/>
      <point x="930.46851" y="-15.62222"/>
      <point x="1179.81665" y="233.72592"/>
    </contour>
    <contour>
      <point x="1035.55672" y="540.85289" type="curve" smooth="yes"/>
      <point x="1035.55672" y="313.34514"/>
      <point x="850.84929" y="128.63771"/>
      <point x="623.34154" y="128.63771" type="curve" smooth="yes"/>
      <point x="395.83379" y="128.63771"/>
      <point x="211.12635" y="313.34514"/>
      <point x="211.12635" y="540.85289" type="curve" smooth="yes"/>
      <point x="211.12635" y="768.36064"/>
      <point x="395.83379" y="953.06807"/>
      <point x="623.34154" y="953.06807" type="curve" smooth="yes"/>
      <point x="850.84929" y="953.06807"/>
      <point x="1035.55672" y="768.36064"/>
    </contour>
  </outline>
</glyph>
<glyph name="P" format="2">
  <advance width="975.8339350180506"/>
  <unicode hex="0050"/>
  <outline>
    <contour>
      <point x="101.43682098388672" y="0" type="line"/>
      <point x="245.69674682617188" y="0" type="line"/>
      <point x="245.69674682617188" y="375.9669876098633" type="line"/>
      <point x="511.6224899291992" y="375.9669876098633" type="line"/>
      <point x="811.511495691659" y="375.9669876098633"/>
      <point x="903.63899" y="583.9970968132734"/>
      <point x="903.63899" y="727.9835" type="curve" smooth="yes"/>
      <point x="903.63899" y="871.9699031867267"/>
      <point x="811.5114957624597" y="1080.0"/>
      <point x="511.62248999999997" y="1080.0" type="curve"/>
      <point x="101.43682098388672" y="1080" type="line"/>
    </contour>
    <contour>
      <point x="511.6224899291992" y="935.7400665283203" type="line"/>
      <point x="745.5565218164296" y="935.7400665283203"/>
      <point x="759.37906" y="772.258611243764"/>
      <point x="759.37906" y="727.9835" type="curve" smooth="yes"/>
      <point x="759.37906" y="683.7083887562361"/>
      <point x="745.5565218872304" y="520.2269193143826"/>
      <point x="511.62248999999997" y="520.2269201414124" type="curve"/>
      <point x="245.69674682617188" y="520.226921081543" type="line"/>
      <point x="245.69674682617188" y="935.7400665283203" type="line"/>
    </contour>
  </outline>
</glyph>
<glyph name="Q" format="2">
  <advance width="1247.5305927296067"/>
  <unicode hex="0051"/>
  <outline>
    <contour>
      <point x="626.85261" y="952.29828" type="curve"/>
      <point x="853.84582" y="952.29828"/>
      <point x="1038.13552" y="768.00859"/>
      <point x="1038.13552" y="541.01538" type="curve"/>
      <point x="1038.13552" y="445.07034398362003"/>
      <point x="1005.2109318865632" y="356.75457757370157"/>
      <point x="950.053596496582" y="286.77305603027344" type="curve"/>
      <point x="808.7423782348633" y="443.7150573730469" type="line"/>
      <point x="615.9206314086914" y="443.7150573730469" type="line"/>
      <point x="843.2258682250977" y="191.26702117919922" type="line"/>
      <point x="780.3550910262129" y="152.2588437163527"/>
      <point x="706.2137490869901" y="129.73247999999998"/>
      <point x="626.85261" y="129.73247999999995" type="curve"/>
      <point x="399.8594" y="129.73248"/>
      <point x="215.56971" y="314.02217"/>
      <point x="215.56971" y="541.01538" type="curve"/>
      <point x="215.56971" y="768.00859"/>
      <point x="399.8594" y="952.29828"/>
    </contour>
    <contour>
      <point x="1208.2652130126953" y="0" type="line"/>
      <point x="1050.5912551879883" y="175.1146697998047" type="line"/>
      <point x="1136.8103296777347" y="272.9354089624786"/>
      <point x="1189.06041" y="400.9050967771"/>
      <point x="1189.06041" y="541.01538" type="curve"/>
      <point x="1189.06041" y="848.66202"/>
      <point x="937.14698" y="1097.7752"/>
      <point x="626.85261" y="1097.7752" type="curve"/>
      <point x="316.55825" y="1097.7752"/>
      <point x="64.64481" y="848.66202"/>
      <point x="64.64481" y="541.01538" type="curve"/>
      <point x="64.64481" y="233.36873"/>
      <point x="316.55825" y="-15.74444"/>
      <point x="626.85261" y="-15.74444" type="curve"/>
      <point x="744.00518027661" y="-15.74444"/>
      <point x="852.8357654450388" y="19.765712645568943"/>
      <point x="942.928337097168" y="80.53620910644531" type="curve"/>
      <point x="1015.4434661865234" y="0" type="line"/>
    </contour>
  </outline>
</glyph>
<glyph name="R" format="2">
  <advance width="982.3208690302632"/>
  <unicode hex="0052"/>
  <outline>
    <contour>
      <point x="101.43682098388672" y="0" type="line"/>
      <point x="245.69674682617188" y="0" type="line"/>
      <point x="245.69674682617188" y="375.9669876098633" type="line"/>
      <point x="513.8007202148438" y="375.9669876098633" type="line"/>
      <point x="773.7341384887695" y="0" type="line"/>
      <point x="949.1150894165039" y="0" type="line"/>
      <point x="674.0363311767578" y="397.8731689453125" type="line"/>
      <point x="808.047205824093" y="447.6420360304775"/>
      <point x="903.63899" y="576.7375258976"/>
      <point x="903.6389899999999" y="727.9835" type="curve" smooth="yes"/>
      <point x="903.63899" y="922.26669"/>
      <point x="745.90568" y="1080.0"/>
      <point x="551.62249" y="1080.0" type="curve"/>
      <point x="101.43682098388672" y="1080" type="line"/>
    </contour>
    <contour>
      <point x="551.6224899291992" y="935.7400665283203" type="line"/>
      <point x="666.28646" y="935.74007"/>
      <point x="759.37906" y="842.64747"/>
      <point x="759.37906" y="727.9835" type="curve" smooth="yes"/>
      <point x="759.37906" y="613.31952"/>
      <point x="666.28646" y="520.22692"/>
      <point x="551.62249" y="520.22692" type="curve"/>
      <point x="245.69674682617188" y="520.226921081543" type="line"/>
      <point x="245.69674682617188" y="935.7400665283203" type="line"/>
    </contour>
  </outline>
</glyph>
<glyph name="S" format="2">
  <advance width="970.9602888086641"/>
  <unicode hex="0053"/>
  <outline>
    <contour>
      <point x="62.44764709472656" y="301.4891662597656" type="line"/>
      <point x="62.44765" y="126.81404"/>
      <point x="252.00216" y="-15.0"/>
      <point x="485.48014" y="-15.0" type="curve" smooth="yes"/>
      <point x="718.95813" y="-15.0"/>
      <point x="908.51264" y="126.81404"/>
      <point x="908.51264" y="301.48917" type="curve"/>
      <point x="908.51264" y="453.79819"/>
      <point x="764.3632" y="580.93375"/>
      <point x="572.70068" y="611.22374" type="curve"/>
      <point x="426.1113815307617" y="634.3904418945312" type="line"/>
      <point x="318.91572" y="651.33144"/>
      <point x="239.48014" y="714.96325"/>
      <point x="239.48015" y="790.20758" type="curve"/>
      <point x="239.48014068603516" y="790.2075805664062" type="line"/>
      <point x="239.48014" y="878.80787"/>
      <point x="349.70905" y="950.74007"/>
      <point x="485.48014" y="950.74007" type="curve" smooth="yes"/>
      <point x="621.25124" y="950.74007"/>
      <point x="731.48014" y="878.80787"/>
      <point x="731.48014" y="790.20758" type="curve"/>
      <point x="879.2707595825195" y="790.2075805664062" type="line"/>
      <point x="879.27076" y="958.4271"/>
      <point x="702.8191" y="1095.0"/>
      <point x="485.48014" y="1095.0" type="curve" smooth="yes"/>
      <point x="268.14119" y="1095.0"/>
      <point x="91.68953" y="958.4271"/>
      <point x="91.68953" y="790.20758" type="curve"/>
      <point x="91.68953" y="642.7472"/>
      <point x="227.30807" y="519.79429"/>
      <point x="407.14046" y="491.46193" type="curve"/>
      <point x="554.1692199707031" y="468.29773712158203" type="line"/>
      <point x="672.95156" y="449.58374"/>
      <point x="760.72202" y="381.70704"/>
      <point x="760.72202" y="301.48917" type="curve"/>
      <point x="760.72202" y="206.43326"/>
      <point x="637.39027" y="129.25993"/>
      <point x="485.48014" y="129.25993" type="curve" smooth="yes"/>
      <point x="333.57002" y="129.25993"/>
      <point x="210.23827" y="206.43326"/>
      <point x="210.23827" y="301.48917" type="curve"/>
    </contour>
  </outline>
</glyph>
<glyph name="T" format="2">
  <advance width="961.2129963898916"/>
  <unicode hex="0054"/>
  <outline>
    <contour>
      <point x="408.4765319824219" y="0" type="line"/>
      <point x="552.736457824707" y="0" type="line"/>
      <point x="552.736457824707" y="935.7400665283203" type="line"/>
      <point x="903.6389923095703" y="935.7400665283203" type="line"/>
      <point x="903.6389923095703" y="1080" type="line"/>
      <point x="57.574012756347656" y="1080" type="line"/>
      <point x="57.574012756347656" y="935.7400665283203" type="line"/>
      <point x="408.4765319824219" y="935.7400665283203" type="line"/>
    </contour>
  </outline>
</glyph>
<glyph name="U" format="2">
  <advance width="1039.1913357400722"/>
  <unicode hex="0055"/>
  <outline>
    <contour>
      <point x="86.81587982177734" y="457.77977752685547" type="line"/>
      <point x="86.81587982177737" y="108.53127084436267"/>
      <point x="336.2761436167827" y="-14.999999999999977"/>
      <point x="519.59567" y="-15.0" type="curve" smooth="yes"/>
      <point x="702.9151963832173" y="-15.0"/>
      <point x="952.3754499372942" y="108.53127331750721"/>
      <point x="952.3754500081108" y="457.77978" type="curve"/>
      <point x="952.3754501342773" y="1080" type="line"/>
      <point x="808.1155166625977" y="1080" type="line"/>
      <point x="808.1155166625977" y="457.77977752685547" type="line"/>
      <point x="808.1155166625977" y="196.5926765675386"/>
      <point x="632.4606550171876" y="129.25993"/>
      <point x="519.59567" y="129.25993" type="curve" smooth="yes"/>
      <point x="406.7310482007565" y="129.25993"/>
      <point x="231.07580889995623" y="196.59237402445024"/>
      <point x="231.07581019893422" y="457.77978" type="curve"/>
      <point x="231.07581329345703" y="1080" type="line"/>
      <point x="86.81587982177734" y="1080" type="line"/>
    </contour>
  </outline>
</glyph>
<glyph name="V" format="2">
  <advance width="1053.7698697799729"/>
  <unicode hex="0056"/>
  <anchor x="526.8849348899865" y="1198.4205208801077" name="above" identifier="above"/>
  <anchor x="526.8849348899865" y="-116.3897620116749" name="below" identifier="below"/>
  <outline>
    <contour>
      <point x="16.149078369140625" y="1082.03076171875" type="line"/>
      <point x="446.7655563354492" y="0" type="line"/>
      <point x="607.0043106079102" y="0" type="line"/>
      <point x="1037.6207885742188" y="1082.03076171875" type="line"/>
      <point x="877.3820419311523" y="1082.03076171875" type="line"/>
      <point x="526.8849334716797" y="197.12151336669922" type="line"/>
      <point x="176.38783264160156" y="1082.03076171875" type="line"/>
    </contour>
  </outline>
</glyph>
<glyph name="W" format="2">
  <advance width="1491.4657039710783"/>
  <unicode hex="0057"/>
  <anchor x="745.7328519855595" y="1196.9675090252708" name="above" identifier="above"/>
  <anchor x="745.7328519855595" y="-116.96750902527076" name="below" identifier="below"/>
  <outline>
    <contour>
      <point x="346.94761657714844" y="0" type="line"/>
      <point x="497.53981018066406" y="0" type="line"/>
      <point x="745.7328567504883" y="828.6166458129883" type="line"/>
      <point x="993.9258880615234" y="0" type="line"/>
      <point x="1144.518081665039" y="0" type="line"/>
      <point x="1468.0072174072266" y="1080" type="line"/>
      <point x="1317.4150314331055" y="1080" type="line"/>
      <point x="1069.2219848632812" y="251.38335418701172" type="line"/>
      <point x="821.0289535522461" y="1080" type="line"/>
      <point x="670.4367599487305" y="1080" type="line"/>
      <point x="422.24371337890625" y="251.38335418701172" type="line"/>
      <point x="174.0506820678711" y="1080" type="line"/>
      <point x="23.458480834960938" y="1080" type="line"/>
    </contour>
  </outline>
</glyph>
<glyph name="X" format="2">
  <advance width="1033.3429602888943"/>
  <unicode hex="0058"/>
  <outline>
    <contour>
      <point x="42.95307159423828" y="0" type="line"/>
      <point x="220.1429214477539" y="0" type="line"/>
      <point x="516.6714782714844" y="415.7768249511719" type="line"/>
      <point x="813.2000350952148" y="0" type="line"/>
      <point x="990.389892578125" y="0" type="line"/>
      <point x="605.2664108276367" y="540" type="line"/>
      <point x="990.389892578125" y="1080" type="line"/>
      <point x="813.2000350952148" y="1080" type="line"/>
      <point x="516.6714782714844" y="664.2231750488281" type="line"/>
      <point x="220.1429214477539" y="1080" type="line"/>
      <point x="42.95307159423828" y="1080" type="line"/>
      <point x="428.07655334472656" y="540" type="line"/>
    </contour>
  </outline>
</glyph>
<glyph name="Y" format="2">
  <advance width="984.9314079422381"/>
  <unicode hex="0059"/>
  <anchor x="492.4657039711191" y="1196.9675090252708" name="above" identifier="above"/>
  <anchor x="492.4657039711191" y="-116.96750902527076" name="below" identifier="below"/>
  <outline>
    <contour>
      <point x="420.3357391357422" y="0" type="line"/>
      <point x="564.5956726074219" y="0" type="line"/>
      <point x="564.5956726074219" y="411.42857360839844" type="line"/>
      <point x="956.5992813110352" y="1080" type="line"/>
      <point x="789.3707809448242" y="1080" type="line"/>
      <point x="492.46571350097656" y="573.6213836669922" type="line"/>
      <point x="492.46570587158203" y="411.42857360839844" type="line"/>
      <point x="492.4656982421875" y="573.6213836669922" type="line"/>
      <point x="195.56063079833984" y="1080" type="line"/>
      <point x="28.332130432128906" y="1080" type="line"/>
      <point x="420.3357391357422" y="411.42857360839844" type="line"/>
    </contour>
  </outline>
</glyph>
<glyph name="Z" format="2">
  <advance width="931.971119133574"/>
  <unicode hex="005A"/>
  <outline>
    <contour>
      <point x="72.1949462890625" y="0" type="line"/>
      <point x="859.7761764526367" y="0" type="line"/>
      <point x="859.7761764526367" y="144.25992584228516" type="line"/>
      <point x="253.87305450439453" y="144.25992584228516" type="line"/>
      <point x="859.7761764526367" y="935.7400741577148" type="line"/>
      <point x="859.7761764526367" y="1080" type="line"/>
      <point x="72.1949462890625" y="1080" type="line"/>
      <point x="72.1949462890625" y="935.7400741577148" type="line"/>
      <point x="678.0980606079102" y="935.7400741577148" type="line"/>
      <point x="72.1949462890625" y="144.25992584228516" type="line"/>
    </contour>
  </outline>
</glyph>
<glyph name="bracketleft" format="2">
  <advance width="522.5848375451263"/>
  <unicode hex="005B"/>
  <outline>
    <contour>
      <point x="159.9205780029297" y="-144.2599334716797" type="line"/>
      <point x="479.6317672729492" y="-144.2599334716797" type="line"/>
      <point x="479.6317672729492" y="0" type="line"/>
      <point x="304.1805114746094" y="0" type="line"/>
      <point x="304.1805114746094" y="1138.4837493896484" type="line"/>
      <point x="479.6317672729492" y="1138.4837493896484" type="line"/>
      <point x="479.6317672729492" y="1282.7436828613281" type="line"/>
      <point x="159.9205780029297" y="1282.7436828613281" type="line"/>
    </contour>
  </outline>
</glyph>
<glyph name="backslash" format="2">
  <advance width="800.6959033311082"/>
  <unicode hex="005C"/>
  <outline>
    <contour>
      <point x="699.25908" y="-58.48375" type="line"/>
      <point x="211.09222" y="1282.74368" type="line"/>
      <point x="57.57401" y="1282.74368" type="line"/>
      <point x="545.74087" y="-58.48375" type="line"/>
    </contour>
  </outline>
</glyph>
<glyph name="bracketright" format="2">
  <advance width="528.7732375392906"/>
  <unicode hex="005D"/>
  <outline>
    <contour>
      <point x="371.9865264892578" y="-71.03597259521484" type="line"/>
      <point x="371.9865264892578" y="1153.0667266845703" type="line"/>
      <point x="40.396949768066406" y="1153.0667266845703" type="line"/>
      <point x="40.396949768066406" y="1010.9947891235352" type="line"/>
      <point x="223.10462951660156" y="1010.9947891235352" type="line"/>
      <point x="223.10462951660156" y="71.03597259521484" type="line"/>
      <point x="40.396949768066406" y="71.03597259521484" type="line"/>
      <point x="40.396949768066406" y="-71.03597259521484" type="line"/>
    </contour>
  </outline>
</glyph>
<glyph name="asciicircum" format="2">
  <advance width="774.6648153290707"/>
  <unicode hex="005E"/>
  <outline>
    <contour>
      <point x="62.44764709472656" y="584.8375473022461" type="line"/>
      <point x="223.32852172851562" y="584.8375473022461" type="line"/>
      <point x="387.33240509033203" y="917.054573059082" type="line"/>
      <point x="551.3362884521484" y="584.8375473022461" type="line"/>
      <point x="712.2171630859375" y="584.8375473022461" type="line"/>
      <point x="467.77284240722656" y="1080" type="line"/>
      <point x="306.8919677734375" y="1080" type="line"/>
    </contour>
  </outline>
</glyph>
<glyph name="power" format="2">
  <advance width="783.2430560010264"/>
  <unicode hex="005E"/>
  <outline>
    <contour>
      <point x="59.79524230957031" y="567.0107192993164" type="line"/>
      <point x="218.0475616455078" y="567.0107192993164" type="line"/>
      <point x="391.6215286254883" y="915.8490982055664" type="line"/>
      <point x="565.1955032348633" y="567.0107192993164" type="line"/>
      <point x="723.4478225708008" y="567.0107192993164" type="line"/>
      <point x="461.0328674316406" y="1082.03076171875" type="line"/>
      <point x="322.2101821899414" y="1082.03076171875" type="line"/>
    </contour>
  </outline>
</glyph>
<glyph name="underscore" format="2">
  <advance width="789.0255949708128"/>
  <unicode hex="005F"/>
  <outline>
    <contour>
      <point x="0.0" y="-161.05433" type="line"/>
      <point x="789.02559" y="-161.05433" type="line"/>
      <point x="789.02559" y="-41.94881" type="line"/>
      <point x="0.0" y="-41.94881" type="line"/>
    </contour>
  </outline>
</glyph>
<glyph name="grave" format="2">
  <advance width="470.0016409369671"/>
  <unicode hex="0060"/>
  <outline>
    <contour>
      <point x="368.5648178322739" y="929.8916967509025" type="line"/>
      <point x="217.46059353504918" y="1196.9675090252708" type="line"/>
      <point x="101.43682310469313" y="1196.9675090252708" type="line"/>
      <point x="252.54104740191778" y="929.8916967509025" type="line"/>
    </contour>
  </outline>
</glyph>
<glyph name="a" format="2">
  <advance width="986.3393501805053"/>
  <unicode hex="0061"/>
  <anchor x="476.11191335740074" y="904.5487364620939" name="above" identifier="above"/>
  <anchor x="476.11191335740074" y="-116.96750902527076" name="below" identifier="below"/>
  <anchor x="884.9025270758123" y="0" name="ogonek" identifier="ogonek"/>
  <outline>
    <contour>
      <point x="743.1644821166992" y="0" type="line"/>
      <point x="884.9025268554688" y="0" type="line"/>
      <point x="884.9025268554688" y="787.5812301635742" type="line"/>
      <point x="743.1644821166992" y="787.5812301635742" type="line"/>
      <point x="743.1644821166992" y="703.1905670166016" type="line"/>
      <point x="671.5076560439819" y="765.11453757865"/>
      <point x="578.1506644275199" y="802.5812299999999"/>
      <point x="476.11190999999997" y="802.58123" type="curve" smooth="yes"/>
      <point x="250.49423" y="802.58123"/>
      <point x="67.3213" y="619.40829"/>
      <point x="67.3213" y="393.79061" type="curve" smooth="yes"/>
      <point x="67.3213" y="168.17293"/>
      <point x="250.49423" y="-15.0"/>
      <point x="476.11191" y="-15.0" type="curve" smooth="yes"/>
      <point x="578.15066442752" y="-15.0"/>
      <point x="671.507656043982" y="22.466690375922617"/>
      <point x="743.1644821166992" y="84.38996887207031" type="curve"/>
    </contour>
    <contour>
      <point x="743.16448" y="393.79061" type="curve" smooth="yes"/>
      <point x="743.16448" y="246.40029"/>
      <point x="623.50223" y="126.73805"/>
      <point x="476.11191" y="126.73805" type="curve" smooth="yes"/>
      <point x="328.72159" y="126.73805"/>
      <point x="209.05935" y="246.40029"/>
      <point x="209.05935" y="393.79061" type="curve" smooth="yes"/>
      <point x="209.05935" y="541.18093"/>
      <point x="328.72159" y="660.84318"/>
      <point x="476.11191" y="660.84318" type="curve" smooth="yes"/>
      <point x="623.50223" y="660.84318"/>
      <point x="743.16448" y="541.18093"/>
    </contour>
  </outline>
</glyph>
<glyph name="b" format="2">
  <advance width="1024.7897106554242"/>
  <unicode hex="0062"/>
  <anchor x="547.9852644913898" y="932.9897283340817" name="above" identifier="above"/>
  <anchor x="517.0755369705134" y="-116.3897620116749" name="below" identifier="below"/>
  <outline>
    <contour>
      <point x="96.96721649169922" y="0" type="line"/>
      <point x="238.1111068725586" y="0" type="line"/>
      <point x="238.1111068725586" y="139.77297973632812" type="line"/>
      <point x="307.4222197067561" y="44.85975148436495"/>
      <point x="415.81034948224" y="-15.744440000000033"/>
      <point x="547.9852599999999" y="-15.744440000000026" type="curve" smooth="yes"/>
      <point x="782.02175" y="-15.74444"/>
      <point x="961.7695" y="174.26349"/>
      <point x="961.7695" y="408.29998" type="curve"/>
      <point x="961.7695" y="642.33647"/>
      <point x="782.02175" y="832.34441"/>
      <point x="547.98526" y="832.34441" type="curve" smooth="yes"/>
      <point x="418.95556573696" y="832.34441"/>
      <point x="312.59406729759434" y="774.5901570185104"/>
      <point x="243.12513732910156" y="683.5374450683594" type="curve"/>
      <point x="243.12513732910156" y="1146.3179168701172" type="line"/>
      <point x="96.96721649169922" y="1146.3179168701172" type="line"/>
    </contour>
    <contour>
      <point x="527.69702" y="692.87187" type="curve" smooth="yes"/>
      <point x="684.75652" y="692.87187"/>
      <point x="812.2689" y="565.35948"/>
      <point x="812.2689" y="408.29998" type="curve"/>
      <point x="812.2689" y="251.24049"/>
      <point x="684.75652" y="123.7281"/>
      <point x="527.69702" y="123.7281" type="curve" smooth="yes"/>
      <point x="370.63752" y="123.7281"/>
      <point x="243.12514" y="251.24049"/>
      <point x="243.12514" y="408.29998" type="curve"/>
      <point x="243.12514" y="565.35948"/>
      <point x="370.63752" y="692.87187"/>
    </contour>
  </outline>
</glyph>
<glyph name="c" format="2">
  <advance width="958.1300102807714"/>
  <unicode hex="0063"/>
  <anchor x="491.2064390168503" y="932.9897283340817" name="above" identifier="above"/>
  <anchor x="491.2064390168503" y="-116.3897620116749" name="below" identifier="below"/>
  <anchor x="495.1425501279614" y="0" name="cedilla" identifier="cedilla"/>
  <outline>
    <contour>
      <point x="494.69378" y="-15.74444" type="curve" smooth="yes"/>
      <point x="684.15627" y="-15.74444"/>
      <point x="845.1762" y="103.98149"/>
      <point x="903.02673" y="271.33276" type="curve"/>
      <point x="743.48302" y="271.33276" type="line"/>
      <point x="695.13641" y="183.91952"/>
      <point x="602.00151" y="124.69247"/>
      <point x="495.14255" y="124.69247" type="curve" smooth="yes"/>
      <point x="338.6153" y="124.69247"/>
      <point x="211.53504" y="251.77274"/>
      <point x="211.53504" y="408.29998" type="curve"/>
      <point x="211.53504" y="564.82723"/>
      <point x="338.6153" y="691.9075"/>
      <point x="495.14255" y="691.9075" type="curve" smooth="yes"/>
      <point x="602.0073" y="691.9075"/>
      <point x="695.1465" y="632.67403"/>
      <point x="743.49088" y="545.26721" type="curve"/>
      <point x="903.02146" y="545.26721" type="line"/>
      <point x="845.16609" y="712.626"/>
      <point x="684.15032" y="832.34441"/>
      <point x="494.69378" y="832.34441" type="curve" smooth="yes"/>
      <point x="256.38327" y="832.34441"/>
      <point x="63.02021" y="643.37288"/>
      <point x="63.02021" y="408.29998" type="curve"/>
      <point x="63.02021" y="173.22709"/>
      <point x="256.38327" y="-15.74444"/>
    </contour>
  </outline>
</glyph>
<glyph name="d" format="2">
  <advance width="1011.9073505816285"/>
  <unicode hex="0064"/>
  <anchor x="488.8959135579622" y="932.5112815884477" name="above" identifier="above"/>
  <anchor x="492.8014691135178" y="-116.96750902527076" name="below" identifier="below"/>
  <anchor x="841.263379462495" y="978.7195397111913" name="stroke" identifier="stroke"/>
  <anchor x="1029.2575310870436" y="1141.8953068592057" name="caron" identifier="caron"/>
  <outline>
    <contour>
      <point x="770.2367401123047" y="0" type="line"/>
      <point x="912.2900238037109" y="0" type="line"/>
      <point x="912.2900238037109" y="1141.8953094482422" type="line"/>
      <point x="770.2367401123047" y="1141.8953094482422" type="line"/>
      <point x="770.2367401123047" y="724.0591201782227" type="line"/>
      <point x="695.4188179740628" y="790.677041033825"/>
      <point x="596.8484043680401" y="831.16599"/>
      <point x="488.8959100000001" y="831.16599" type="curve" smooth="yes"/>
      <point x="255.21835" y="831.16599"/>
      <point x="65.50181" y="641.44945"/>
      <point x="65.50181" y="407.77189" type="curve" smooth="yes"/>
      <point x="65.50181" y="174.09432"/>
      <point x="255.21835" y="-15.62222"/>
      <point x="488.89591" y="-15.62222" type="curve" smooth="yes"/>
      <point x="596.8484043680401" y="-15.62222"/>
      <point x="695.4188179740628" y="24.86672896617489"/>
      <point x="770.2367401123047" y="91.4775619506836" type="curve"/>
    </contour>
    <contour>
      <point x="770.23674" y="407.77189" type="curve" smooth="yes"/>
      <point x="770.23674" y="252.49566"/>
      <point x="644.17214" y="126.43106"/>
      <point x="488.89591" y="126.43106" type="curve" smooth="yes"/>
      <point x="333.61969" y="126.43106"/>
      <point x="207.55509" y="252.49566"/>
      <point x="207.55509" y="407.77189" type="curve" smooth="yes"/>
      <point x="207.55509" y="563.04811"/>
      <point x="333.61969" y="689.11271"/>
      <point x="488.89591" y="689.11271" type="curve" smooth="yes"/>
      <point x="644.17214" y="689.11271"/>
      <point x="770.23674" y="563.04811"/>
    </contour>
  </outline>
</glyph>
<glyph name="e" format="2">
  <advance width="988.1246103515107"/>
  <unicode hex="0065"/>
  <anchor x="494.0623051757553" y="932.9897283340817" name="above" identifier="above"/>
  <anchor x="494.0623051757553" y="-116.3897620116749" name="below" identifier="below"/>
  <anchor x="494.0623051757553" y="0" name="cedilla" identifier="cedilla"/>
  <anchor x="494.0623051757553" y="0" name="ogonek" identifier="ogonek"/>
  <outline>
    <contour>
      <point x="925.1044" y="408.29998" type="curve"/>
      <point x="925.1044" y="642.80127"/>
      <point x="732.12686" y="832.34441"/>
      <point x="494.06231" y="832.34441" type="curve"/>
      <point x="255.99775" y="832.34441"/>
      <point x="63.02021" y="642.80127"/>
      <point x="63.02021" y="408.29998" type="curve"/>
      <point x="63.02021" y="173.79869"/>
      <point x="255.99775" y="-15.74444"/>
      <point x="494.06231" y="-15.74444" type="curve"/>
      <point x="674.91686" y="-15.74444"/>
      <point x="829.75059" y="93.64551"/>
      <point x="893.72342" y="249.0465" type="curve"/>
      <point x="737.4376220703125" y="249.04650115966797" type="line"/>
      <point x="685.27926" y="171.02420999999998"/>
      <point x="595.71338" y="120.20602"/>
      <point x="494.06231" y="120.20602" type="curve"/>
      <point x="355.95705355447996" y="120.20602000000001"/>
      <point x="240.4183311874653" y="217.59329230186702"/>
      <point x="212.4330291748047" y="347.4010696411133" type="curve"/>
      <point x="920.7014999389648" y="347.4010696411133" type="line"/>
      <point x="923.60295" y="367.28047"/>
      <point x="925.1044" y="387.61533"/>
    </contour>
    <contour>
      <point x="494.0623100000001" y="693.04815" type="curve"/>
      <point x="628.6049540710401" y="693.04815"/>
      <point x="741.9761927451656" y="606.3633760487417"/>
      <point x="775.46142578125" y="483.8282928466797" type="curve"/>
      <point x="216.0537338256836" y="483.8282928466797" type="line"/>
      <point x="249.35446248137225" y="605.3536950309908"/>
      <point x="361.27778399404997" y="693.04815"/>
    </contour>
  </outline>
</glyph>
<glyph name="f" format="2">
  <advance width="573.4158740627603"/>
  <unicode hex="0066"/>
  <anchor x="331.5769745259253" y="1258.8628158844765" name="above" identifier="above"/>
  <outline>
    <contour>
      <point x="159.96038818359375" y="0" type="line"/>
      <point x="302.013671875" y="0" type="line"/>
      <point x="302.013671875" y="673.4904937744141" type="line"/>
      <point x="522.5350112915039" y="673.4904937744141" type="line"/>
      <point x="522.5350112915039" y="815.5437698364258" type="line"/>
      <point x="302.013671875" y="815.5437698364258" type="line"/>
      <point x="302.013671875" y="913.1748604949033" type="line"/>
      <point x="302.013671875" y="999.4075303089942"/>
      <point x="379.7351395566065" y="999.84201998889"/>
      <point x="396.7352705771849" y="999.8420197672871" type="curve"/>
      <point x="522.5350112915039" y="999.8420181274414" type="line"/>
      <point x="522.5350112915039" y="1141.8953094482422" type="line"/>
      <point x="398.8828430175781" y="1141.8953094482422" type="line"/>
      <point x="244.4898790567633" y="1141.8953094482422"/>
      <point x="159.96039211135547" y="1047.8463571601783"/>
      <point x="159.96038966184088" y="902.97286" type="curve"/>
      <point x="159.96038818359375" y="815.5437698364258" type="line"/>
      <point x="46.00721740722656" y="815.5437698364258" type="line"/>
      <point x="46.00721740722656" y="673.4904937744141" type="line"/>
      <point x="159.96038818359375" y="673.4904937744141" type="line"/>
    </contour>
  </outline>
</glyph>
<glyph name="g" format="2">
  <advance width="986.3393501805053"/>
  <unicode hex="0067"/>
  <outline>
    <contour>
      <point x="77.06858825683594" y="-34.11552429199219" type="line"/>
      <point x="77.06859205776172" y="-257.04336466678694"/>
      <point x="258.0577183657039" y="-438.0324909747292"/>
      <point x="480.98555956678695" y="-438.0324909747292" type="curve" smooth="yes"/>
      <point x="703.9134007678699" y="-438.0324909747292"/>
      <point x="884.9025270758123" y="-257.04336466678706"/>
      <point x="884.9025270758123" y="-34.115523465704015" type="curve"/>
      <point x="884.9025268554688" y="787.5812301635742" type="line"/>
      <point x="740.6426010131836" y="787.5812301635742" type="line"/>
      <point x="740.6426010131836" y="705.358268737793" type="line"/>
      <point x="669.3237711552943" y="765.9853929777412"/>
      <point x="576.9578269973222" y="802.581227436823"/>
      <point x="476.1119133574007" y="802.5812274368232" type="curve" smooth="yes"/>
      <point x="250.49423361119136" y="802.5812274368232"/>
      <point x="67.32129963898916" y="619.408293464621"/>
      <point x="67.32129963898916" y="393.7906137184115" type="curve" smooth="yes"/>
      <point x="67.32129963898916" y="168.1729339722022"/>
      <point x="250.49423361119128" y="-15.000000000000025"/>
      <point x="476.1119133574007" y="-15.000000000000025" type="curve" smooth="yes"/>
      <point x="576.9578269973222" y="-15.00000000000005"/>
      <point x="669.3237711552944" y="21.59583445908182"/>
      <point x="740.6426010131836" y="82.22425079345703" type="curve"/>
      <point x="740.6426010131836" y="-34.11552429199219" type="line"/>
      <point x="740.6425992779784" y="-177.42414373104697"/>
      <point x="624.2941798321299" y="-293.77256317689535"/>
      <point x="480.98555956678695" y="-293.77256317689535" type="curve" smooth="yes"/>
      <point x="337.676939301444" y="-293.77256317689535"/>
      <point x="221.32851985559566" y="-177.42414373104688"/>
      <point x="221.32851985559566" y="-34.11552346570391" type="curve"/>
    </contour>
    <contour>
      <point x="740.6425992779784" y="393.7906137184115" type="curve" smooth="yes"/>
      <point x="740.6425992779784" y="247.79215490794215"/>
      <point x="622.1103721678701" y="129.2599277978339"/>
      <point x="476.1119133574007" y="129.2599277978339" type="curve" smooth="yes"/>
      <point x="330.1134545469314" y="129.2599277978339"/>
      <point x="211.5812274368231" y="247.79215490794223"/>
      <point x="211.5812274368231" y="393.7906137184115" type="curve" smooth="yes"/>
      <point x="211.5812274368231" y="539.7890725288809"/>
      <point x="330.11345454693145" y="658.3212996389892"/>
      <point x="476.11191335740074" y="658.3212996389892" type="curve" smooth="yes"/>
      <point x="622.1103721678701" y="658.3212996389892"/>
      <point x="740.6425992779784" y="539.7890725288809"/>
    </contour>
  </outline>
</glyph>
<glyph name="h" format="2">
  <advance width="918.3394701392007"/>
  <unicode hex="0068"/>
  <anchor x="466.44409519533" y="1262.7076784912438" name="above" identifier="above"/>
  <anchor x="466.44409519533" y="-116.3897620116749" name="below" identifier="below"/>
  <anchor x="170.2164279299506" y="1262.7076784912438" name="stem" identifier="stem"/>
  <anchor x="170.2164279299506" y="0" name="cedilla" identifier="cedilla"/>
  <anchor x="170.2164279299506" y="981.4589414009879" name="stroke" identifier="stroke"/>
  <outline>
    <contour>
      <point x="96.96721649169922" y="0" type="line"/>
      <point x="243.46563720703125" y="0" type="line"/>
      <point x="243.46563720703125" y="449.5684814453125" type="line"/>
      <point x="243.46563720703125" y="622.2078325929386"/>
      <point x="365.18794511563846" y="692.54694"/>
      <point x="466.4441" y="692.54694" type="curve" smooth="yes"/>
      <point x="567.7002498843615" y="692.54694"/>
      <point x="689.4225594651062" y="622.2078318702823"/>
      <point x="689.422560070086" y="449.56848" type="curve"/>
      <point x="689.4225616455078" y="0" type="line"/>
      <point x="835.9209671020508" y="0" type="line"/>
      <point x="835.9209671020508" y="449.5684814453125" type="line"/>
      <point x="835.9209671020508" y="743.7819500725415"/>
      <point x="630.8847460825625" y="832.34441"/>
      <point x="500.48862" y="832.34441" type="curve" smooth="yes"/>
      <point x="383.53805220311995" y="832.34441"/>
      <point x="296.02736217939463" y="776.8841155447908"/>
      <point x="243.46563720703125" y="690.8351516723633" type="curve"/>
      <point x="243.46563720703125" y="1146.3179168701172" type="line"/>
      <point x="96.96721649169922" y="1146.3179168701172" type="line"/>
    </contour>
  </outline>
</glyph>
<glyph name="i" format="2">
  <advance width="342.8163448585541"/>
  <unicode hex="0069"/>
  <anchor x="171.40817242927704" y="-116.3897620116749" name="below" identifier="below"/>
  <anchor x="171.40817242927704" y="432.18949275798104" name="stroke" identifier="stroke"/>
  <anchor x="245.84912438257743" y="0" name="ogonek" identifier="ogonek"/>
  <anchor x="171.40817242927704" y="1205.656993713516" name="above" identifier="above"/>
  <outline>
    <contour>
      <point x="280.76605" y="1057.50253" type="curve" smooth="yes"/>
      <point x="280.76605" y="1117.85878"/>
      <point x="231.76443" y="1166.86041"/>
      <point x="171.40817" y="1166.86041" type="curve" smooth="yes"/>
      <point x="111.05192" y="1166.86041"/>
      <point x="62.05029" y="1117.85878"/>
      <point x="62.05029" y="1057.50253" type="curve" smooth="yes"/>
      <point x="62.05029" y="997.14627"/>
      <point x="111.05192" y="948.14465"/>
      <point x="171.40817" y="948.14465" type="curve" smooth="yes"/>
      <point x="231.76443" y="948.14465"/>
      <point x="280.76605" y="997.14627"/>
    </contour>
    <contour>
      <point x="96.96722" y="0.0" type="line"/>
      <point x="245.84912" y="0.0" type="line"/>
      <point x="245.84912" y="816.59997" type="line"/>
      <point x="96.96722" y="816.59997" type="line"/>
    </contour>
  </outline>
</glyph>
<glyph name="j" format="2">
  <advance width="347.13357400722015"/>
  <unicode hex="006A"/>
  <outline>
    <contour>
      <point x="282.04794" y="1006.2919" type="curve" smooth="yes"/>
      <point x="282.04794" y="1065.46835"/>
      <point x="234.00417" y="1113.51212"/>
      <point x="174.82773" y="1113.51212" type="curve" smooth="yes"/>
      <point x="115.65128" y="1113.51212"/>
      <point x="67.60751" y="1065.46835"/>
      <point x="67.60751" y="1006.2919" type="curve" smooth="yes"/>
      <point x="67.60751" y="947.11546"/>
      <point x="115.65128" y="899.07169"/>
      <point x="174.82773" y="899.07169" type="curve" smooth="yes"/>
      <point x="234.00417" y="899.07169"/>
      <point x="282.04794" y="947.11546"/>
    </contour>
    <contour>
      <point x="-134.44764709472656" y="-423.0324935913086" type="line"/>
      <point x="-53.07581329345703" y="-423.0324935913086" type="line"/>
      <point x="103.8816585995556" y="-423.0324935913086"/>
      <point x="245.69675062473118" y="-327.68202588675945"/>
      <point x="245.6967499318805" y="-124.25993" type="curve"/>
      <point x="245.69674682617188" y="787.5812301635742" type="line"/>
      <point x="103.95870208740234" y="787.5812301635742" type="line"/>
      <point x="103.95870208740234" y="-126.79305936127959" type="line"/>
      <point x="103.95870208740236" y="-279.99686974844553"/>
      <point x="-23.66420905721843" y="-281.2944398864404"/>
      <point x="-53.07580999999999" y="-281.2944402413184" type="curve"/>
      <point x="-134.44764709472656" y="-281.29444122314453" type="line"/>
    </contour>
  </outline>
</glyph>
<glyph name="k" format="2">
  <advance width="835.4729241876673"/>
  <unicode hex="006B"/>
  <anchor x="373.24703455389374" y="1255.451263537906" name="above" identifier="above"/>
  <anchor x="373.24703455389374" y="-116.96750902527076" name="below" identifier="below"/>
  <anchor x="172.30584837545126" y="1255.451263537906" name="stem" identifier="stem"/>
  <anchor x="450.6877256317689" y="-116.96750902527076" name="macronbelow" identifier="macronbelow"/>
  <outline>
    <contour>
      <point x="101.43682098388672" y="0" type="line"/>
      <point x="243.17487335205078" y="0" type="line"/>
      <point x="243.17487335205078" y="325.89139556884766" type="line"/>
      <point x="603.6024932861328" y="0" type="line"/>
      <point x="814.9386291503906" y="0" type="line"/>
      <point x="377.79915618896484" y="395.2527084350586" type="line"/>
      <point x="811.7045516967773" y="787.5812301635742" type="line"/>
      <point x="600.3684234619141" y="787.5812301635742" type="line"/>
      <point x="243.17487335205078" y="464.614013671875" type="line"/>
      <point x="243.17487335205078" y="1138.4837493896484" type="line"/>
      <point x="101.43682098388672" y="1138.4837493896484" type="line"/>
    </contour>
  </outline>
</glyph>
<glyph name="l" format="2">
  <advance width="343.49458483754506"/>
  <unicode hex="006C"/>
  <anchor x="171.74729241877253" y="1258.8628158844765" name="above" identifier="above"/>
  <anchor x="171.74729241877253" y="-116.96750902527076" name="below" identifier="below"/>
  <anchor x="360.8447653429603" y="1141.8953068592057" name="caron" identifier="caron"/>
  <anchor x="171.74729241877253" y="570.9476534296028" name="stroke" identifier="stroke"/>
  <anchor x="344.85920577617327" y="570.9476534296028" name="dotmiddle" identifier="dotmiddle"/>
  <outline>
    <contour>
      <point x="99.61733" y="0.0" type="line"/>
      <point x="243.87726" y="0.0" type="line"/>
      <point x="243.87726" y="1141.89531" type="line"/>
      <point x="99.61733" y="1141.89531" type="line"/>
    </contour>
  </outline>
</glyph>
<glyph name="m" format="2">
  <advance width="1397.1127211495286"/>
  <unicode hex="006D"/>
  <anchor x="704.6389762011676" y="932.9897283340817" name="above" identifier="above"/>
  <anchor x="704.6389762011676" y="-116.3897620116749" name="below" identifier="below"/>
  <anchor x="1314.694220925011" y="0" name="hookright" identifier="hookright"/>
  <outline>
    <contour>
      <point x="96.96721649169922" y="0" type="line"/>
      <point x="243.46563720703125" y="0" type="line"/>
      <point x="243.46563720703125" y="477.98899841308594" type="line"/>
      <point x="243.46563720703125" y="641.2548354260668"/>
      <point x="360.8776971856321" y="692.54694"/>
      <point x="438.02357" y="692.54694" type="curve" smooth="yes"/>
      <point x="515.1694405294609" y="692.54694"/>
      <point x="632.5815092948253" y="641.2548424986148"/>
      <point x="632.5815100984428" y="477.989" type="curve"/>
      <point x="632.5815124511719" y="0" type="line"/>
      <point x="779.0799331665039" y="0" type="line"/>
      <point x="779.0799331665039" y="477.98899841308594" type="line"/>
      <point x="779.0799331665039" y="641.2548354260668"/>
      <point x="896.491997185632" y="692.54694"/>
      <point x="973.63787" y="692.54694" type="curve" smooth="yes"/>
      <point x="1050.7837405294608" y="692.54694"/>
      <point x="1168.1958104572398" y="641.2548424986148"/>
      <point x="1168.195809936169" y="477.989" type="curve"/>
      <point x="1168.1958084106445" y="0" type="line"/>
      <point x="1314.694221496582" y="0" type="line"/>
      <point x="1314.694221496582" y="477.98899841308594" type="line"/>
      <point x="1314.694221496582" y="722.677052887907"/>
      <point x="1140.10175594485" y="832.34441"/>
      <point x="982.149" y="832.34441" type="curve" smooth="yes"/>
      <point x="874.0018119915001" y="832.34441"/>
      <point x="780.2267497192025" y="780.8881650971069"/>
      <point x="721.1220321655273" y="701.1270446777344" type="curve"/>
      <point x="667.7834813476112" y="781.345802447837"/>
      <point x="580.5936186502001" y="832.34441"/>
      <point x="472.06809999999996" y="832.3444099999999" type="curve" smooth="yes"/>
      <point x="362.38188366969996" y="832.34441"/>
      <point x="282.1387797605074" y="779.413210277788"/>
      <point x="235.08944702148438" y="697.7022171020508" type="curve"/>
      <point x="235.08944702148438" y="816.599967956543" type="line"/>
      <point x="96.96721649169922" y="816.599967956543" type="line"/>
    </contour>
  </outline>
</glyph>
<glyph name="n" format="2">
  <advance width="918.3394701392007"/>
  <unicode hex="006E"/>
  <anchor x="466.44409519533" y="932.9897283340817" name="above" identifier="above"/>
  <anchor x="466.44409519533" y="-116.3897620116749" name="below" identifier="below"/>
  <anchor x="96.96722047597666" y="0" name="hookleft" identifier="hookleft"/>
  <anchor x="835.9209699146834" y="0" name="hookright" identifier="hookright"/>
  <outline>
    <contour>
      <point x="96.96721649169922" y="0" type="line"/>
      <point x="243.46563720703125" y="0" type="line"/>
      <point x="243.46563720703125" y="449.5684814453125" type="line"/>
      <point x="243.46563720703125" y="622.2078325929386"/>
      <point x="365.18794511563846" y="692.54694"/>
      <point x="466.4441" y="692.54694" type="curve" smooth="yes"/>
      <point x="567.7002498843615" y="692.54694"/>
      <point x="689.4225594651062" y="622.2078318702823"/>
      <point x="689.422560070086" y="449.56848" type="curve"/>
      <point x="689.4225616455078" y="0" type="line"/>
      <point x="835.9209671020508" y="0" type="line"/>
      <point x="835.9209671020508" y="449.5684814453125" type="line"/>
      <point x="835.9209671020508" y="743.7819500725415"/>
      <point x="630.8847460825625" y="832.34441"/>
      <point x="500.48862" y="832.34441" type="curve" smooth="yes"/>
      <point x="379.7278374387199" y="832.34441"/>
      <point x="290.35646617589634" y="773.2114880904021"/>
      <point x="238.43993377685547" y="682.3317031860352" type="curve"/>
      <point x="238.43993377685547" y="816.599967956543" type="line"/>
      <point x="96.96721649169922" y="816.599967956543" type="line"/>
    </contour>
  </outline>
</glyph>
<glyph name="o" format="2">
  <advance width="990.2283625463103"/>
  <unicode hex="006F"/>
  <anchor x="495.1141812731552" y="932.9897283340817" name="above" identifier="above"/>
  <anchor x="495.1141812731552" y="-116.3897620116749" name="below" identifier="below"/>
  <anchor x="495.1141812731552" y="0" name="ogonek" identifier="ogonek"/>
  <anchor x="495.1141812731552" y="408.2999831612034" name="stroke" identifier="stroke"/>
  <anchor x="495.1141812731552" y="832.3444107668513" name="horn" identifier="horn"/>
  <outline>
    <contour>
      <point x="495.11418" y="692.4007" type="curve"/>
      <point x="651.91363" y="692.4007"/>
      <point x="779.2149" y="565.09944"/>
      <point x="779.2149" y="408.29998" type="curve"/>
      <point x="779.2149" y="251.50053"/>
      <point x="651.91363" y="124.19927"/>
      <point x="495.11418" y="124.19927" type="curve"/>
      <point x="338.31473" y="124.19927"/>
      <point x="211.01347" y="251.50053"/>
      <point x="211.01347" y="408.29998" type="curve"/>
      <point x="211.01347" y="565.09944"/>
      <point x="338.31473" y="692.4007"/>
    </contour>
    <contour>
      <point x="495.11418" y="832.34441" type="curve"/>
      <point x="256.6626" y="832.34441"/>
      <point x="63.02021" y="642.87225"/>
      <point x="63.02021" y="408.29998" type="curve"/>
      <point x="63.02021" y="173.72771"/>
      <point x="256.6626" y="-15.74444"/>
      <point x="495.11418" y="-15.74444" type="curve"/>
      <point x="733.56577" y="-15.74444"/>
      <point x="927.20816" y="173.72771"/>
      <point x="927.20816" y="408.29998" type="curve"/>
      <point x="927.20816" y="642.87225"/>
      <point x="733.56577" y="832.34441"/>
    </contour>
  </outline>
</glyph>
<glyph name="p" format="2">
  <advance width="986.3393501805053"/>
  <unicode hex="0070"/>
  <outline>
    <contour>
      <point x="101.43682098388672" y="-423.0324935913086" type="line"/>
      <point x="245.69674682617188" y="-423.0324935913086" type="line"/>
      <point x="245.69674682617188" y="82.22295379638672" type="line"/>
      <point x="317.0155808216494" y="21.595833665481827"/>
      <point x="409.38152624664" y="-14.999999999999972"/>
      <point x="510.22744000000006" y="-14.999999999999943" type="curve" smooth="yes"/>
      <point x="735.84512" y="-15.0"/>
      <point x="919.01805" y="168.17293"/>
      <point x="919.01805" y="393.79061" type="curve" smooth="yes"/>
      <point x="919.01805" y="619.40829"/>
      <point x="735.84512" y="802.58123"/>
      <point x="510.22744" y="802.58123" type="curve" smooth="yes"/>
      <point x="409.38152624664" y="802.58123"/>
      <point x="317.0155808216494" y="765.9853943366338"/>
      <point x="245.69674682617188" y="705.3569793701172" type="curve"/>
      <point x="245.69674682617188" y="787.5812301635742" type="line"/>
      <point x="101.43682098388672" y="787.5812301635742" type="line"/>
    </contour>
    <contour>
      <point x="774.75812" y="393.79061" type="curve" smooth="yes"/>
      <point x="774.75812" y="247.79215"/>
      <point x="656.2259" y="129.25993"/>
      <point x="510.22744" y="129.25993" type="curve" smooth="yes"/>
      <point x="364.22898" y="129.25993"/>
      <point x="245.69675" y="247.79215"/>
      <point x="245.69675" y="393.79061" type="curve" smooth="yes"/>
      <point x="245.69675" y="539.78907"/>
      <point x="364.22898" y="658.3213"/>
      <point x="510.22744" y="658.3213" type="curve" smooth="yes"/>
      <point x="656.2259" y="658.3213"/>
      <point x="774.75812" y="539.78907"/>
    </contour>
  </outline>
</glyph>
<glyph name="q" format="2">
  <advance width="1024.7897106554242"/>
  <unicode hex="0071"/>
  <outline>
    <contour>
      <point x="497.09269" y="123.7281" type="curve" smooth="yes"/>
      <point x="340.03319" y="123.7281"/>
      <point x="212.52081" y="251.24049"/>
      <point x="212.52081" y="408.29998" type="curve"/>
      <point x="212.52081" y="565.35948"/>
      <point x="340.03319" y="692.87187"/>
      <point x="497.09269" y="692.87187" type="curve" smooth="yes"/>
      <point x="654.15219" y="692.87187"/>
      <point x="781.66457" y="565.35948"/>
      <point x="781.66457" y="408.29998" type="curve"/>
      <point x="781.66457" y="251.24049"/>
      <point x="654.15219" y="123.7281"/>
    </contour>
    <contour>
      <point x="781.6645736694336" y="-337.3332977294922" type="line"/>
      <point x="927.8224868774414" y="-337.3332977294922" type="line"/>
      <point x="927.8224868774414" y="816.599967956543" type="line"/>
      <point x="786.678596496582" y="816.599967956543" type="line"/>
      <point x="786.678596496582" y="676.8269882202148" type="line"/>
      <point x="717.3674902932439" y="771.7402153260738"/>
      <point x="608.97936051776" y="832.3444099999999"/>
      <point x="476.8044499999999" y="832.3444099999999" type="curve" smooth="yes"/>
      <point x="242.76796" y="832.34441"/>
      <point x="63.02021" y="642.33647"/>
      <point x="63.02021" y="408.29998" type="curve"/>
      <point x="63.02021" y="174.26349"/>
      <point x="242.76796" y="-15.74444"/>
      <point x="476.80445" y="-15.74444" type="curve" smooth="yes"/>
      <point x="605.83414426304" y="-15.74444"/>
      <point x="712.1956427024056" y="42.0098099419191"/>
      <point x="781.6645736694336" y="133.0625228881836" type="curve"/>
    </contour>
  </outline>
</glyph>
<glyph name="r" format="2">
  <advance width="569.4151355078249"/>
  <unicode hex="0072"/>
  <anchor x="302.21026044005384" y="932.9897283340817" name="above" identifier="above"/>
  <anchor x="254.03566617486692" y="-116.3897620116749" name="below" identifier="below"/>
  <anchor x="173.12617198024248" y="-116.3897620116749" name="stembelow" identifier="stembelow"/>
  <outline>
    <contour>
      <point x="99.87696075439453" y="0" type="line"/>
      <point x="246.37538146972656" y="0" type="line"/>
      <point x="246.37538146972656" y="430.4847869873047" type="line"/>
      <point x="246.37538146972656" y="569.5525131405511"/>
      <point x="329.11840090179885" y="678.1334473567231"/>
      <point x="490.1342646032715" y="678.1334391820984" type="curve"/>
      <point x="511.24449920654297" y="678.1334381103516" type="line"/>
      <point x="511.24449920654297" y="817.9309005737305" type="line"/>
      <point x="490.1342658996582" y="817.9309005737305" type="line"/>
      <point x="401.1614073542931" y="817.9309005737305"/>
      <point x="303.9128691422746" y="788.3280751637978"/>
      <point x="241.34967041015625" y="674.3212203979492" type="curve"/>
      <point x="241.34967041015625" y="816.599967956543" type="line"/>
      <point x="99.87696075439453" y="816.599967956543" type="line"/>
    </contour>
  </outline>
</glyph>
<glyph name="s" format="2">
  <advance width="834.7581227436823"/>
  <unicode hex="0073"/>
  <anchor x="417.37906137184115" y="932.5112815884477" name="above" identifier="above"/>
  <anchor x="417.37906137184115" y="-116.96750902527076" name="below" identifier="below"/>
  <anchor x="417.37906137184115" y="0" name="cedilla" identifier="cedilla"/>
  <outline>
    <contour>
      <point x="62.57762145996094" y="238.18382263183594" type="line"/>
      <point x="62.57762000000002" y="88.87897999999996"/>
      <point x="222.28005" y="-15.622219999999976"/>
      <point x="419.65343" y="-15.62222" type="curve"/>
      <point x="614.55924" y="-15.62222"/>
      <point x="772.18051" y="87.45191999999994"/>
      <point x="772.18051" y="234.77227" type="curve"/>
      <point x="772.18051" y="336.2939929567733"/>
      <point x="710.4789736404068" y="446.39492849452745"/>
      <point x="475.56032016361536" y="477.87868228782986" type="curve"/>
      <point x="383.88508007442175" y="490.1649807370725" type="line"/>
      <point x="344.68268712066515" y="495.41887807386405"/>
      <point x="221.9504" y="511.0543422680792"/>
      <point x="221.9504" y="587.65959" type="curve"/>
      <point x="221.9504" y="652.0431143475128"/>
      <point x="318.2587600164747" y="691.81127"/>
      <point x="417.37906" y="691.81127" type="curve"/>
      <point x="528.5571199999999" y="691.81127"/>
      <point x="618.20484" y="646.07079"/>
      <point x="618.20484" y="584.24804" type="curve"/>
      <point x="757.5595703125" y="584.2480392456055" type="line"/>
      <point x="757.55957" y="728.85463"/>
      <point x="605.4639100000002" y="831.16599"/>
      <point x="417.37906" y="831.16599" type="curve"/>
      <point x="229.3974099999999" y="831.16599"/>
      <point x="77.19856000000001" y="730.69"/>
      <point x="77.19856" y="587.65959" type="curve"/>
      <point x="77.19856000000001" y="392.29635286609465"/>
      <point x="324.8691339563587" y="356.3917802952906"/>
      <point x="366.1207481955924" y="350.86704571496847" type="curve"/>
      <point x="457.61698373800135" y="338.61316363561747" type="line"/>
      <point x="499.5729391528503" y="332.99409824858554"/>
      <point x="627.42866" y="316.60124829739897"/>
      <point x="627.42866" y="234.77227" type="curve"/>
      <point x="627.42866" y="167.17424767427198"/>
      <point x="527.1540144233988" y="123.73251"/>
      <point x="419.65343" y="123.73251" type="curve"/>
      <point x="302.13487999999995" y="123.73251000000002"/>
      <point x="207.32946" y="172.43872999999996"/>
      <point x="207.32946" y="238.18382" type="curve"/>
    </contour>
  </outline>
</glyph>
<glyph name="t" format="2">
  <advance width="538.47456987637"/>
  <unicode hex="0074"/>
  <anchor x="263.4851520239506" y="1078.905959330297" name="above" identifier="above"/>
  <anchor x="317.4179928687063" y="-116.3897620116749" name="below" identifier="below"/>
  <anchor x="212.37556705386692" y="1078.905959330297" name="stem" identifier="stem"/>
  <anchor x="252.69858385499947" y="419.610555559071" name="stroke" identifier="stroke"/>
  <anchor x="317.4179928687063" y="0" name="cedilla" identifier="cedilla"/>
  <anchor x="402.0145365195158" y="932.9897283340817" name="t_caron" identifier="t_caron"/>
  <outline>
    <contour>
      <point x="139.12635803222656" y="270.55027770996094" type="line"/>
      <point x="139.12635803222656" y="82.05076856162054"/>
      <point x="274.18534350469025" y="-1.3309396699849554"/>
      <point x="417.70852" y="-1.3309400534337044" type="curve"/>
      <point x="490.0030822753906" y="-1.3309402465820312" type="line"/>
      <point x="490.0030822753906" y="138.4665298461914" type="line"/>
      <point x="411.99508941798064" y="138.4665298461914" type="line"/>
      <point x="286.76486645709997" y="138.46652984619143"/>
      <point x="285.6247699801442" y="242.98110427343093"/>
      <point x="285.6247700524649" y="270.55028" type="curve"/>
      <point x="285.62477111816406" y="676.8024978637695" type="line"/>
      <point x="490.0030822753906" y="676.8024978637695" type="line"/>
      <point x="490.0030822753906" y="816.599967956543" type="line"/>
      <point x="285.62477111816406" y="816.599967956543" type="line"/>
      <point x="285.62477111816406" y="1020.7110824584961" type="line"/>
      <point x="139.12635803222656" y="1020.7110824584961" type="line"/>
      <point x="139.12635803222656" y="816.599967956543" type="line"/>
      <point x="36.96721649169922" y="816.599967956543" type="line"/>
      <point x="36.96721649169922" y="676.8024978637695" type="line"/>
      <point x="139.12635803222656" y="676.8024978637695" type="line"/>
    </contour>
  </outline>
</glyph>
<glyph name="u" format="2">
  <advance width="918.3394701392007"/>
  <unicode hex="0075"/>
  <anchor x="451.89537494387065" y="932.9897283340817" name="above" identifier="above"/>
  <anchor x="451.89537494387065" y="-116.3897620116749" name="below" identifier="below"/>
  <anchor x="821.372249663224" y="0" name="ogonek" identifier="ogonek"/>
  <anchor x="821.372249663224" y="816.5999663224068" name="horn" identifier="horn"/>
  <outline>
    <contour>
      <point x="82.41850280761719" y="367.03147888183594" type="line"/>
      <point x="82.4185028076172" y="72.81801025460697"/>
      <point x="287.45472391743755" y="-15.744439999999985"/>
      <point x="417.85085" y="-15.74444" type="curve" smooth="yes"/>
      <point x="539.5915164844" y="-15.74444"/>
      <point x="629.4313015076845" y="44.35201464043011"/>
      <point x="681.1559677124023" y="136.4860076904297" type="curve"/>
      <point x="681.1559677124023" y="0" type="line"/>
      <point x="821.3722534179688" y="0" type="line"/>
      <point x="821.3722534179688" y="816.599967956543" type="line"/>
      <point x="674.8738327026367" y="816.599967956543" type="line"/>
      <point x="674.8738327026367" y="367.03147888183594" type="line"/>
      <point x="674.8738327026367" y="194.39212773420982"/>
      <point x="553.1515248843615" y="124.05302"/>
      <point x="451.89537" y="124.05302" type="curve" smooth="yes"/>
      <point x="350.63913689584973" y="124.05302000000002"/>
      <point x="228.91691885482" y="194.3921996081135"/>
      <point x="228.9169201500505" y="367.03148" type="curve"/>
      <point x="228.91692352294922" y="816.599967956543" type="line"/>
      <point x="82.41850280761719" y="816.599967956543" type="line"/>
    </contour>
  </outline>
</glyph>
<glyph name="v" format="2">
  <advance width="935.426638976201"/>
  <unicode hex="0076"/>
  <anchor x="467.7133194881006" y="932.9897283340817" name="above" identifier="above"/>
  <anchor x="467.7133194881006" y="-116.3897620116749" name="below" identifier="below"/>
  <outline>
    <contour>
      <point x="38.7723388671875" y="816.599967956543" type="line"/>
      <point x="386.22318267822266" y="0" type="line"/>
      <point x="549.2034606933594" y="0" type="line"/>
      <point x="896.654296875" y="816.599967956543" type="line"/>
      <point x="737.3180923461914" y="816.599967956543" type="line"/>
      <point x="467.71331787109375" y="171.765869140625" type="line"/>
      <point x="198.10855102539062" y="816.599967956543" type="line"/>
    </contour>
  </outline>
</glyph>
<glyph name="w" format="2">
  <advance width="1377.4728334081726"/>
  <unicode hex="0077"/>
  <anchor x="688.7364167040862" y="932.9897283340817" name="above" identifier="above"/>
  <anchor x="688.7364167040862" y="-116.3897620116749" name="below" identifier="below"/>
  <outline>
    <contour>
      <point x="1324.1517715454102" y="816.599967956543" type="line"/>
      <point x="1170.6310729980469" y="816.599967956543" type="line"/>
      <point x="969.7669296264648" y="192.10137939453125" type="line"/>
      <point x="760.4521179199219" y="808.7277374267578" type="line"/>
      <point x="617.0207214355469" y="808.7277374267578" type="line"/>
      <point x="407.7059097290039" y="192.10137939453125" type="line"/>
      <point x="206.84175872802734" y="816.599967956543" type="line"/>
      <point x="53.32106018066406" y="816.599967956543" type="line"/>
      <point x="322.64893341064453" y="0" type="line"/>
      <point x="482.9270935058594" y="0" type="line"/>
      <point x="688.7364196777344" y="613.6143569946289" type="line"/>
      <point x="894.5457534790039" y="0" type="line"/>
      <point x="1054.8239135742188" y="0" type="line"/>
    </contour>
  </outline>
</glyph>
<glyph name="x" format="2">
  <advance width="892.5920577617053"/>
  <unicode hex="0078"/>
  <anchor x="446.29602888086646" y="932.5112815884477" name="above" identifier="above"/>
  <outline>
    <contour>
      <point x="55.75450897216797" y="0" type="line"/>
      <point x="232.55348205566406" y="0" type="line"/>
      <point x="446.29602813720703" y="288.4676513671875" type="line"/>
      <point x="660.0385818481445" y="0" type="line"/>
      <point x="836.8375473022461" y="0" type="line"/>
      <point x="534.6955184936523" y="407.77188873291016" type="line"/>
      <point x="836.8375473022461" y="815.5437698364258" type="line"/>
      <point x="660.0385818481445" y="815.5437698364258" type="line"/>
      <point x="446.29602813720703" y="527.0761184692383" type="line"/>
      <point x="232.55348205566406" y="815.5437698364258" type="line"/>
      <point x="55.75450897216797" y="815.5437698364258" type="line"/>
      <point x="357.89654541015625" y="407.77188873291016" type="line"/>
    </contour>
  </outline>
</glyph>
<glyph name="y" format="2">
  <advance width="916.3754512635379"/>
  <unicode hex="0079"/>
  <outline>
    <contour>
      <point x="198.84190368652344" y="-423.0324935913086" type="line"/>
      <point x="355.7380905151367" y="-423.0324935913086" type="line"/>
      <point x="873.4223785400391" y="787.5812301635742" type="line"/>
      <point x="716.5261993408203" y="787.5812301635742" type="line"/>
      <point x="458.18772888183594" y="183.4522247314453" type="line"/>
      <point x="199.84925842285156" y="787.5812301635742" type="line"/>
      <point x="42.95307159423828" y="787.5812301635742" type="line"/>
      <point x="379.73963165283203" y="0" type="line"/>
      <point x="379.73963928222656" y="0" type="line"/>
    </contour>
  </outline>
</glyph>
<glyph name="z" format="2">
  <advance width="873.4873646209733"/>
  <unicode hex="007A"/>
  <outline>
    <contour>
      <point x="86.81588745117188" y="0" type="line"/>
      <point x="786.6714782714844" y="0" type="line"/>
      <point x="786.6714782714844" y="144.25992584228516" type="line"/>
      <point x="290.2843551635742" y="144.25992584228516" type="line"/>
      <point x="786.6714782714844" y="643.3212966918945" type="line"/>
      <point x="786.6714782714844" y="787.5812301635742" type="line"/>
      <point x="86.81588745117188" y="787.5812301635742" type="line"/>
      <point x="86.81588745117188" y="643.3212966918945" type="line"/>
      <point x="583.203010559082" y="643.3212966918945" type="line"/>
      <point x="86.81588745117188" y="144.25992584228516" type="line"/>
    </contour>
  </outline>
</glyph>
<glyph name="braceleft" format="2">
  <advance width="585.9422382671479"/>
  <unicode hex="007B"/>
  <outline>
    <contour>
      <point x="237.89891841458888" y="147.8700408935547" type="line"/>
      <point x="237.8989165677543" y="-133.30236189719432"/>
      <point x="437.9723736639057" y="-144.25992732583256"/>
      <point x="530.02888" y="-144.25993205481896" type="curve"/>
      <point x="557.610107421875" y="-144.2599334716797" type="line"/>
      <point x="557.610107421875" y="0" type="line"/>
      <point x="517.5278309037219" y="-3.3676505561766445e-15" type="line"/>
      <point x="463.4469724975457" y="3.255344458049848e-15"/>
      <point x="382.1588413369737" y="4.387109275072845"/>
      <point x="382.15883948321" y="147.87004" type="curve"/>
      <point x="382.1588368815361" y="349.24188232421875" type="line"/>
      <point x="382.1588360145215" y="416.34957340731216"/>
      <point x="382.15884183969104" y="495.0754192252765"/>
      <point x="306.49644470214844" y="569.2409820556641" type="curve"/>
      <point x="382.15883962356594" y="643.4094411882205"/>
      <point x="382.15884035023635" y="722.1332793480926"/>
      <point x="382.15883948321" y="789.24188" type="curve"/>
      <point x="382.15883672002565" y="1003.1147741920784" type="line"/>
      <point x="382.15883602131447" y="1057.1956325982546"/>
      <point x="386.54594927507287" y="1138.483750934594"/>
      <point x="530.0288800000001" y="1138.483749638745" type="curve"/>
      <point x="557.610107421875" y="1138.4837493896484" type="line"/>
      <point x="557.610107421875" y="1282.7436828613281" type="line"/>
      <point x="530.0288772583008" y="1282.7436828613281" type="line"/>
      <point x="248.85647446755178" y="1282.7436828613281"/>
      <point x="237.89892034192457" y="1082.6702263360944"/>
      <point x="237.8989197372666" y="990.6137200000001" type="curve"/>
      <point x="237.89891833247782" y="776.740837263081" type="line"/>
      <point x="237.89891797725662" y="722.6599788569048"/>
      <point x="233.51181072492713" y="641.3718378093134"/>
      <point x="90.02887999999999" y="641.3718408467819" type="curve"/>
      <point x="62.44764709472656" y="641.3718414306641" type="line"/>
      <point x="62.44764709472656" y="497.1119079589844" type="line"/>
      <point x="90.02887725830078" y="497.1119079589844" type="line"/>
      <point x="233.51181036835348" y="497.1119079589844"/>
      <point x="237.89892017459889" y="415.8237899723415"/>
      <point x="237.89891981937768" y="361.74292835150396" type="curve"/>
    </contour>
  </outline>
</glyph>
<glyph name="bar" format="2">
  <advance width="444.60649819494586"/>
  <unicode hex="007C"/>
  <outline>
    <contour>
      <point x="150.17328519855596" y="-144.25992779783394" type="line"/>
      <point x="294.4332129963899" y="-144.25992779783394" type="line"/>
      <point x="294.4332129963899" y="1282.7436823104692" type="line"/>
      <point x="150.17328519855596" y="1282.7436823104692" type="line"/>
    </contour>
  </outline>
</glyph>
<glyph name="braceright" format="2">
  <advance width="585.9422382671479"/>
  <unicode hex="007D"/>
  <outline>
    <contour>
      <point x="95.91336059570312" y="-144.25992584228516" type="line"/>
      <point x="235.0676714685921" y="-144.25992779783394"/>
      <point x="348.043321299639" y="-31.284277966786927"/>
      <point x="348.043321299639" y="107.8700361010831" type="curve"/>
      <point x="348.04331970214844" y="389.2418746948242" type="line"/>
      <point x="348.043321299639" y="448.77697038844764"/>
      <point x="396.37826426859203" y="497.1119133574007"/>
      <point x="455.913357400722" y="497.1119133574007" type="curve"/>
      <point x="523.4945831298828" y="497.1119155883789" type="line"/>
      <point x="523.4945831298828" y="641.3718414306641" type="line"/>
      <point x="455.9133605957031" y="641.3718414306641" type="line"/>
      <point x="396.37826426859203" y="641.3718411552346"/>
      <point x="348.043321299639" y="689.7067841241877"/>
      <point x="348.043321299639" y="749.2418772563176" type="curve"/>
      <point x="348.04331970214844" y="1030.6137161254883" type="line"/>
      <point x="348.043321299639" y="1169.7680324794223"/>
      <point x="235.06767146859204" y="1282.7436823104692"/>
      <point x="95.91335740072199" y="1282.7436823104692" type="curve"/>
      <point x="28.332130432128906" y="1282.7436828613281" type="line"/>
      <point x="28.332130432128906" y="1138.483757019043" type="line"/>
      <point x="95.91336059570312" y="1138.483757019043" type="line"/>
      <point x="155.44845053285198" y="1138.4837545126354"/>
      <point x="203.78339350180505" y="1090.1488115436823"/>
      <point x="203.78339350180505" y="1030.6137184115523" type="curve"/>
      <point x="203.78339385986328" y="749.2418746948242" type="line"/>
      <point x="203.78339350180505" y="678.7643918103635"/>
      <point x="232.76298767635365" y="615.0020442436731"/>
      <point x="279.44578552246094" y="569.2427673339844" type="curve"/>
      <point x="232.76298767635367" y="523.4817102689622"/>
      <point x="203.78339350180508" y="459.7193627022718"/>
      <point x="203.78339350180508" y="389.2418772563176" type="curve"/>
      <point x="203.78339385986328" y="107.87003326416016" type="line"/>
      <point x="203.78339350180505" y="48.334942968953065"/>
      <point x="155.44845053285198" y="0.0"/>
      <point x="95.91335740072199" y="0.0" type="curve"/>
      <point x="28.332130432128906" y="0" type="line"/>
      <point x="28.332130432128906" y="-144.25992584228516" type="line"/>
    </contour>
  </outline>
</glyph>
<glyph name="tilde" format="2">
  <advance width="1012.002887975852"/>
  <unicode hex="007E"/>
  <outline>
    <contour>
      <point x="98.59182739257812" y="361.7226867675781" type="line"/>
      <point x="242.07247924804688" y="361.7226867675781" type="line"/>
      <point x="242.07247924804688" y="378.1517448425293" type="line"/>
      <point x="242.07247924804688" y="465.08115248707696"/>
      <point x="302.7254684594525" y="493.54963"/>
      <point x="346.04131" y="493.54963" type="curve" smooth="yes"/>
      <point x="378.9188436749372" y="493.54963"/>
      <point x="402.38013787949984" y="477.14603441143436"/>
      <point x="417.87117436274974" y="465.86512314950437" type="curve"/>
      <point x="500.55775075010894" y="405.6509514388387" type="line"/>
      <point x="534.4303054945823" y="380.9842169243058"/>
      <point x="586.9747539337079" y="345.97825000000006"/>
      <point x="664.68224" y="345.97825000000006" type="curve" smooth="yes"/>
      <point x="787.021318438472" y="345.97825"/>
      <point x="913.4110795607884" y="436.90461954740465"/>
      <point x="913.4110585717038" y="604.856786447754" type="curve"/>
      <point x="913.4110565185547" y="621.2858428955078" type="line"/>
      <point x="769.9304122924805" y="621.2858428955078" type="line"/>
      <point x="769.9304122924805" y="604.8567848205566" type="line"/>
      <point x="769.9304122924805" y="517.927377176009"/>
      <point x="709.2774215405475" y="489.4589"/>
      <point x="665.96158" y="489.4589" type="curve" smooth="yes"/>
      <point x="633.0840463250628" y="489.4589"/>
      <point x="609.6227424041058" y="505.86250338309316"/>
      <point x="594.1317055669364" y="517.143414159018" type="curve"/>
      <point x="511.4451335303966" y="577.3575787314728" type="line"/>
      <point x="477.57257801204605" y="602.0243121833113"/>
      <point x="425.028136066292" y="637.0302800000001"/>
      <point x="347.32065" y="637.0302800000001" type="curve" smooth="yes"/>
      <point x="224.98157156152791" y="637.03028"/>
      <point x="98.59184465001518" y="546.1039102841389"/>
      <point x="98.59182893028031" y="378.15174338378904" type="curve"/>
    </contour>
  </outline>
</glyph>
<glyph name="inv_exclamation" format="2">
  <advance width="416.4043321299639"/>
  <unicode hex="00A1"/>
  <outline>
    <contour>
      <point x="100.98195" y="723.94578" type="curve" smooth="yes"/>
      <point x="100.98195" y="664.76933"/>
      <point x="149.02572" y="616.72556"/>
      <point x="208.20217" y="616.72556" type="curve" smooth="yes"/>
      <point x="267.37861" y="616.72556"/>
      <point x="315.42238" y="664.76933"/>
      <point x="315.42238" y="723.94578" type="curve" smooth="yes"/>
      <point x="315.42238" y="783.12223"/>
      <point x="267.37861" y="831.16599"/>
      <point x="208.20217" y="831.16599" type="curve" smooth="yes"/>
      <point x="149.02572" y="831.16599"/>
      <point x="100.98195" y="783.12223"/>
    </contour>
    <contour>
      <point x="280.33213" y="508.85553" type="line"/>
      <point x="136.0722" y="508.85553" type="line"/>
      <point x="136.0722" y="-266.162" type="line"/>
      <point x="280.33213" y="-266.162" type="line"/>
    </contour>
  </outline>
</glyph>
<glyph name="invertedexclam" format="2">
  <advance width="417.3140794223827"/>
  <unicode hex="00A1"/>
  <outline>
    <contour>
      <point x="101.43682310469313" y="695.361010830325" type="curve" smooth="yes"/>
      <point x="101.43682310469312" y="636.1845628375451"/>
      <point x="149.48059171841152" y="588.1407942238267"/>
      <point x="208.65703971119132" y="588.1407942238267" type="curve" smooth="yes"/>
      <point x="267.8334877039711" y="588.1407942238267"/>
      <point x="315.8772563176895" y="636.1845628375451"/>
      <point x="315.87725631768956" y="695.361010830325" type="curve" smooth="yes"/>
      <point x="315.87725631768956" y="754.5374588231047"/>
      <point x="267.8334877039712" y="802.5812274368232"/>
      <point x="208.65703971119135" y="802.5812274368232" type="curve" smooth="yes"/>
      <point x="149.48059171841157" y="802.5812274368232"/>
      <point x="101.43682310469313" y="754.5374588231049"/>
    </contour>
    <contour>
      <point x="280.7870036101083" y="480.27075812274364" type="line"/>
      <point x="136.52707581227435" y="480.27075812274364" type="line"/>
      <point x="136.52707581227423" y="-307.4187725631769" type="line"/>
      <point x="280.7870036101082" y="-307.4187725631769" type="line"/>
    </contour>
  </outline>
</glyph>
<glyph name="cent" format="2">
  <advance width="935.0905620698895"/>
  <unicode hex="00A2"/>
  <outline>
    <contour>
      <point x="418.40794372558594" y="0" type="line"/>
      <point x="533.8158874511719" y="0" type="line"/>
      <point x="533.8158874511719" y="106.0255126953125" type="line"/>
      <point x="687.4956014599693" y="127.76843529157239"/>
      <point x="813.8077814313748" y="235.11737742630729"/>
      <point x="862.895616221514" y="378.22280332930245" type="curve"/>
      <point x="705.0361709594727" y="378.2228012084961" type="line"/>
      <point x="668.5183087496874" y="315.31993276787705"/>
      <point x="606.8351374152562" y="268.8236846169435"/>
      <point x="533.8158874511719" y="252.56471252441406" type="curve"/>
      <point x="533.8158874511719" y="768.9514236450195" type="line"/>
      <point x="606.8380621028437" y="752.6921834324722"/>
      <point x="668.5231528665768" y="706.194130067789"/>
      <point x="705.0403453399987" y="643.2934421580621" type="curve"/>
      <point x="862.8948822021484" y="643.2934417724609" type="line"/>
      <point x="813.8063886504447" y="786.3997442838972"/>
      <point x="687.4948614186546" y="893.7477957698754"/>
      <point x="533.8158874511719" y="915.4943618774414" type="curve"/>
      <point x="533.8158874511719" y="1021.516242980957" type="line"/>
      <point x="418.40794372558594" y="1021.516242980957" type="line"/>
      <point x="418.40794372558594" y="915.4907760620117" type="line"/>
      <point x="220.07313929931698" y="887.4275102211087"/>
      <point x="67.3212996389891" y="716.7906085641624"/>
      <point x="67.32129963898916" y="510.75812274368224" type="curve" smooth="yes"/>
      <point x="67.32129963898916" y="304.72563692320216"/>
      <point x="220.07313929931695" y="134.08873526625584"/>
      <point x="418.40794372558594" y="106.02543640136719" type="curve"/>
    </contour>
    <contour>
      <point x="211.5812274368231" y="510.7581227436823" type="curve" smooth="yes"/>
      <point x="211.5812274368231" y="636.9400647413479"/>
      <point x="300.12016699491306" y="742.6058054687229"/>
      <point x="418.40794372558594" y="768.953369140625" type="curve"/>
      <point x="418.40794372558594" y="252.56398010253906" type="line"/>
      <point x="300.12016699491306" y="278.9104400186417"/>
      <point x="211.5812274368231" y="384.5761807460168"/>
    </contour>
  </outline>
</glyph>
<glyph name="pound" format="2">
  <advance width="974.9241877256317"/>
  <unicode hex="00A3"/>
  <outline>
    <contour>
      <point x="86.36100769042969" y="0" type="line"/>
      <point x="873.9422378540039" y="0" type="line"/>
      <point x="873.9422378540039" y="144.2599334716797" type="line"/>
      <point x="347.5884475708008" y="144.2599334716797" type="line"/>
      <point x="347.5884475708008" y="436.1531677246094" type="line"/>
      <point x="698.490966796875" y="436.1531677246094" type="line"/>
      <point x="698.490966796875" y="548.7560577392578" type="line"/>
      <point x="347.5884475708008" y="548.7560577392578" type="line"/>
      <point x="347.5884475708008" y="742.0211410522461" type="line"/>
      <point x="347.5884475708008" y="900.8035595873521"/>
      <point x="460.3492954949071" y="953.06807"/>
      <point x="538.63538" y="953.06807" type="curve" smooth="yes"/>
      <point x="644.0770600000001" y="953.06807"/>
      <point x="729.68231" y="867.46281"/>
      <point x="729.68231" y="762.02114" type="curve"/>
      <point x="873.9422378540039" y="762.0211410522461" type="line"/>
      <point x="873.94224" y="947.0820329296876"/>
      <point x="723.6962700000003" y="1097.328"/>
      <point x="538.63538" y="1097.328" type="curve" smooth="yes"/>
      <point x="378.10830235412186" y="1097.328"/>
      <point x="203.3285182387553" y="979.3243545802782"/>
      <point x="203.3285201621002" y="742.02114" type="curve"/>
      <point x="203.32852172851562" y="548.7560577392578" type="line"/>
      <point x="86.36100769042969" y="548.7560577392578" type="line"/>
      <point x="86.36100769042969" y="436.1531677246094" type="line"/>
      <point x="203.32852172851562" y="436.1531677246094" type="line"/>
      <point x="203.32852172851562" y="144.2599334716797" type="line"/>
      <point x="86.36100769042969" y="144.2599334716797" type="line"/>
    </contour>
  </outline>
</glyph>
<glyph name="currency" format="2">
  <advance width="1006.9573924906794"/>
  <unicode hex="00A4"/>
  <outline>
    <contour>
      <point x="820.1032400000001" y="539.9999999999999" type="curve" smooth="yes"/>
      <point x="820.10324" y="601.2737596480799"/>
      <point x="802.6602697529149" y="658.5056435109843"/>
      <point x="772.4733123779297" y="706.9874420166016" type="curve"/>
      <point x="964.0043182373047" y="898.5184478759766" type="line"/>
      <point x="861.9971466064453" y="1000.5256271362305" type="line"/>
      <point x="670.4663162231445" y="808.9947967529297" type="line"/>
      <point x="621.9771604712301" y="839.1837673017828"/>
      <point x="564.7486151516" y="856.62455"/>
      <point x="503.4787000000001" y="856.62455" type="curve" smooth="yes"/>
      <point x="442.20878134225" y="856.62455"/>
      <point x="384.9802337457786" y="839.1837673017828"/>
      <point x="336.4912567138672" y="808.9946136474609" type="curve"/>
      <point x="144.96024322509766" y="1000.5256271362305" type="line"/>
      <point x="42.95307159423828" y="898.5184478759766" type="line"/>
      <point x="234.48390197753906" y="706.9876174926758" type="line"/>
      <point x="204.29702075418862" y="658.5053170657453"/>
      <point x="186.85414999999998" y="601.27358489824"/>
      <point x="186.85415" y="540.0" type="curve" smooth="yes"/>
      <point x="186.85415" y="478.72624035192"/>
      <point x="204.29712024708516" y="421.4943564890156"/>
      <point x="234.4840850830078" y="373.01256561279297" type="curve"/>
      <point x="42.95307159423828" y="181.48155212402344" type="line"/>
      <point x="144.96024322509766" y="79.47437286376953" type="line"/>
      <point x="336.49107360839844" y="271.0052032470703" type="line"/>
      <point x="384.98023374577855" y="240.81623269821716"/>
      <point x="442.20878134224995" y="223.37544999999997"/>
      <point x="503.47869999999995" y="223.37545" type="curve" smooth="yes"/>
      <point x="564.7486151516" y="223.37545"/>
      <point x="621.9771604712301" y="240.8162326982172"/>
      <point x="670.4661331176758" y="271.00538635253906" type="curve"/>
      <point x="861.9971466064453" y="79.47437286376953" type="line"/>
      <point x="964.0043182373047" y="181.48155212402344" type="line"/>
      <point x="772.4734954833984" y="373.0123748779297" type="line"/>
      <point x="802.6603692458115" y="421.49468293425457"/>
      <point x="820.1032400000001" y="478.72641510176"/>
    </contour>
    <contour>
      <point x="675.84332" y="540.0" type="curve" smooth="yes"/>
      <point x="675.84332" y="444.86938"/>
      <point x="598.60932" y="367.63538"/>
      <point x="503.4787" y="367.63538" type="curve" smooth="yes"/>
      <point x="408.34807" y="367.63538"/>
      <point x="331.11408" y="444.86938"/>
      <point x="331.11408" y="540.0" type="curve" smooth="yes"/>
      <point x="331.11408" y="635.13062"/>
      <point x="408.34807" y="712.36462"/>
      <point x="503.4787" y="712.36462" type="curve" smooth="yes"/>
      <point x="598.60932" y="712.36462"/>
      <point x="675.84332" y="635.13062"/>
    </contour>
  </outline>
</glyph>
<glyph name="yen" format="2">
  <advance width="1042.1511001347103"/>
  <unicode hex="00A5"/>
  <outline>
    <contour>
      <point x="126.56275177001953" y="184.23200225830078" type="line"/>
      <point x="447.99658966064453" y="184.23200225830078" type="line"/>
      <point x="447.99658966064453" y="0" type="line"/>
      <point x="594.1545104980469" y="0" type="line"/>
      <point x="594.1545104980469" y="184.23200225830078" type="line"/>
      <point x="915.5883483886719" y="184.23200225830078" type="line"/>
      <point x="915.5883483886719" y="299.8739471435547" type="line"/>
      <point x="594.1545104980469" y="299.8739471435547" type="line"/>
      <point x="594.1545104980469" y="408.1406784057617" type="line"/>
      <point x="915.5883483886719" y="408.1406784057617" type="line"/>
      <point x="915.5883483886719" y="523.7826309204102" type="line"/>
      <point x="667.5259780883789" y="523.7826309204102" type="line"/>
      <point x="1021.7182312011719" y="1082.03076171875" type="line"/>
      <point x="850.422492980957" y="1082.03076171875" type="line"/>
      <point x="521.0755462646484" y="562.1288070678711" type="line"/>
      <point x="191.72860717773438" y="1082.03076171875" type="line"/>
      <point x="20.43286895751953" y="1082.03076171875" type="line"/>
      <point x="374.6251220703125" y="523.7826309204102" type="line"/>
      <point x="126.56275177001953" y="523.7826309204102" type="line"/>
      <point x="126.56275177001953" y="408.1406784057617" type="line"/>
      <point x="447.99658966064453" y="408.1406784057617" type="line"/>
      <point x="447.99658966064453" y="299.8739471435547" type="line"/>
      <point x="126.56275177001953" y="299.8739471435547" type="line"/>
    </contour>
  </outline>
</glyph>
<glyph name="brokenbar" format="2">
  <advance width="443.05702739110916"/>
  <unicode hex="00A6"/>
  <outline>
    <contour>
      <point x="147.08756" y="660.45128" type="line"/>
      <point x="295.96947" y="660.45128" type="line"/>
      <point x="295.96947" y="1220.75887" type="line"/>
      <point x="147.08756" y="1220.75887" type="line"/>
    </contour>
    <contour>
      <point x="147.08756" y="-74.44095" type="line"/>
      <point x="295.96947" y="-74.44095" type="line"/>
      <point x="295.96947" y="485.86664" type="line"/>
      <point x="147.08756" y="485.86664" type="line"/>
    </contour>
  </outline>
</glyph>
<glyph name="section" format="2">
  <advance width="803.6967509025271"/>
  <unicode hex="00A7"/>
  <outline>
    <contour>
      <point x="401.84838" y="375.25993" type="curve" smooth="yes"/>
      <point x="375.86886675395" y="375.25993"/>
      <point x="351.23652425515286" y="379.1955251828791"/>
      <point x="329.1825866699219" y="386.2470245361328" type="curve"/>
      <point x="326.12303161621094" y="387.25425720214844" type="line"/>
      <point x="323.1582489013672" y="388.26414489746094" type="line"/>
      <point x="320.9717254638672" y="389.05696868896484" type="line"/>
      <point x="317.35475158691406" y="390.4024963378906" type="line"/>
      <point x="316.1690902709961" y="390.8735122680664" type="line"/>
      <point x="300.5068607156633" y="397.0279168822655"/>
      <point x="286.4221887395902" y="404.8325421518691"/>
      <point x="274.42855072021484" y="413.92901611328125" type="curve"/>
      <point x="274.3244400024414" y="414.00736236572266" type="line"/>
      <point x="270.5276794433594" y="416.99537658691406" type="line"/>
      <point x="270.23511505126953" y="417.23323822021484" type="line"/>
      <point x="266.73126220703125" y="420.1985855102539" type="line"/>
      <point x="266.32096099853516" y="420.55943298339844" type="line"/>
      <point x="263.0674057006836" y="423.52437591552734" type="line"/>
      <point x="262.58998107910156" y="423.9793930053711" type="line"/>
      <point x="259.5540313720703" y="426.9637985229492" type="line"/>
      <point x="259.05249786376953" y="427.48302459716797" type="line"/>
      <point x="256.2046432495117" y="430.5098876953125" type="line"/>
      <point x="255.7229232788086" y="431.05330657958984" type="line"/>
      <point x="253.02953338623047" y="434.15758514404297" type="line"/>
      <point x="252.6302719116211" y="434.6502990722656" type="line"/>
      <point x="250.03778076171875" y="437.90225982666016" type="line"/>
      <point x="249.85753631591797" y="438.14678955078125" type="line"/>
      <point x="246.42539205815632" y="442.65861232881093"/>
      <point x="243.42058262798585" y="447.35205428537955"/>
      <point x="240.87931060791016" y="452.24185943603516" type="curve"/>
      <point x="240.1934585571289" y="453.5334167480469" type="line"/>
      <point x="239.04949951171875" y="455.93707275390625" type="line"/>
      <point x="238.20188903808594" y="457.7565612792969" type="line"/>
      <point x="237.27257537841797" y="459.99007415771484" type="line"/>
      <point x="236.44522857666016" y="462.04817962646484" type="line"/>
      <point x="235.6764678955078" y="464.2002487182617" type="line"/>
      <point x="234.92872619628906" y="466.4044876098633" type="line"/>
      <point x="234.2977066040039" y="468.5136184692383" type="line"/>
      <point x="233.65740966796875" y="470.82220458984375" type="line"/>
      <point x="233.15302276611328" y="472.90802001953125" type="line"/>
      <point x="232.63634490966797" y="475.2981643676758" type="line"/>
      <point x="232.2529754638672" y="477.3707580566406" type="line"/>
      <point x="231.8705596923828" y="479.8297576904297" type="line"/>
      <point x="231.60535430908203" y="481.89359283447266" type="line"/>
      <point x="231.3651885986328" y="484.41593170166016" type="line"/>
      <point x="231.2167205810547" y="486.4696807861328" type="line"/>
      <point x="231.09852600097656" y="489.8356018066406" type="line"/>
      <point x="231.07581329345703" y="490.8628234863281" type="line"/>
      <point x="231.07581" y="554.66579"/>
      <point x="307.59643" y="606.4657"/>
      <point x="401.84838" y="606.4657" type="curve" smooth="yes"/>
      <point x="427.89122779334" y="606.4657"/>
      <point x="452.580328868202" y="602.5108924515514"/>
      <point x="474.6754379272461" y="595.4285736083984" type="curve"/>
      <point x="479.4581527709961" y="593.8294906616211" type="line"/>
      <point x="480.67945098876953" y="593.4134826660156" type="line"/>
      <point x="484.6636199951172" y="591.9475021362305" type="line"/>
      <point x="486.48268127441406" y="591.2708053588867" type="line"/>
      <point x="488.9051513671875" y="590.2948913574219" type="line"/>
      <point x="493.4213362944924" y="588.499687517313"/>
      <point x="497.8035687862166" y="586.5459948576196"/>
      <point x="502.03932189941406" y="584.4626770019531" type="curve"/>
      <point x="502.1087646484375" y="584.4295272827148" type="line"/>
      <point x="506.62728118896484" y="582.1214599609375" type="line"/>
      <point x="507.08287048339844" y="581.8856430053711" type="line"/>
      <point x="511.31248474121094" y="579.5600051879883" type="line"/>
      <point x="511.91583251953125" y="579.2220611572266" type="line"/>
      <point x="515.9292678833008" y="576.8494644165039" type="line"/>
      <point x="516.6014862060547" y="576.4425430297852" type="line"/>
      <point x="520.4318313598633" y="574.0099411010742" type="line"/>
      <point x="521.1334075927734" y="573.5513229370117" type="line"/>
      <point x="524.8000717163086" y="571.0505599975586" type="line"/>
      <point x="525.5046081542969" y="570.553337097168" type="line"/>
      <point x="529.0224533081055" y="567.9766235351562" type="line"/>
      <point x="529.7062072753906" y="567.4555053710938" type="line"/>
      <point x="533.0899810791016" y="564.7924957275391" type="line"/>
      <point x="533.7272872924805" y="564.2675704956055" type="line"/>
      <point x="536.9956436157227" y="561.5015335083008" type="line"/>
      <point x="537.5507202148438" y="561.0067825317383" type="line"/>
      <point x="540.7328414916992" y="558.1069412231445" type="line"/>
      <point x="541.1444931030273" y="557.7091598510742" type="line"/>
      <point x="544.2953414916992" y="554.6118240356445" type="line"/>
      <point x="544.4259490966797" y="554.4746475219727" type="line"/>
      <point x="549.7425454425418" y="549.0327069587868"/>
      <point x="554.3965962751241" y="543.2646059361107"/>
      <point x="558.3101806640625" y="537.1907958984375" type="curve"/>
      <point x="559.0659027099609" y="536.03564453125" type="line"/>
      <point x="560.5629119873047" y="533.5379486083984" type="line"/>
      <point x="561.4923553466797" y="531.9515762329102" type="line"/>
      <point x="562.7442245483398" y="529.6201248168945" type="line"/>
      <point x="563.6944885253906" y="527.7904891967773" type="line"/>
      <point x="564.7590560913086" y="525.5536270141602" type="line"/>
      <point x="565.6669540405273" y="523.5554733276367" type="line"/>
      <point x="566.5723648071289" y="521.3794021606445" type="line"/>
      <point x="567.4043960571289" y="519.2495193481445" type="line"/>
      <point x="568.1664733886719" y="517.1161499023438" type="line"/>
      <point x="568.9013900756836" y="514.8753967285156" type="line"/>
      <point x="569.5295257568359" y="512.7759094238281" type="line"/>
      <point x="570.152717590332" y="510.4345703125" type="line"/>
      <point x="570.6528244018555" y="508.36646270751953" type="line"/>
      <point x="571.1530227661133" y="505.92677307128906" type="line"/>
      <point x="571.5288925170898" y="503.8946990966797" type="line"/>
      <point x="571.8967361450195" y="501.3468704223633" type="line"/>
      <point x="572.1512832641602" y="499.36602783203125" type="line"/>
      <point x="572.3772048950195" y="496.67821502685547" type="line"/>
      <point x="572.5158386230469" y="494.76053619384766" type="line"/>
      <point x="572.6209411621094" y="490.8628234863281" type="line"/>
      <point x="572.62094" y="427.05985"/>
      <point x="496.10032" y="375.25993"/>
    </contour>
    <contour>
      <point x="94.61372375488281" y="115.39710998535156" type="line"/>
      <point x="94.61372" y="-10.81011"/>
      <point x="232.28095" y="-113.27437"/>
      <point x="401.84838" y="-113.27437" type="curve" smooth="yes"/>
      <point x="571.4158" y="-113.27437"/>
      <point x="709.08303" y="-10.81011"/>
      <point x="709.08303" y="115.39711" type="curve"/>
      <point x="709.08303" y="185.09402780665"/>
      <point x="667.1129009404683" y="247.5959634125829"/>
      <point x="600.9538421630859" y="289.5358123779297" type="curve"/>
      <point x="671.6904650294252" y="337.20309303614187"/>
      <point x="716.88087" y="409.7141089734001"/>
      <point x="716.88087" y="490.86282" type="curve"/>
      <point x="716.88087" y="492.58445996876"/>
      <point x="716.8605292147337" y="494.30221200077756"/>
      <point x="716.8200302124023" y="495.97669982910156" type="curve"/>
      <point x="716.88087" y="493.29177076896"/>
      <point x="716.8403936687171" y="495.7130182072468"/>
      <point x="716.7599716186523" y="497.7123336791992" type="curve"/>
      <point x="716.7268306422094" y="499.1191253530252"/>
      <point x="716.6869047383683" y="500.11198264538973"/>
      <point x="716.6402359008789" y="501.06524658203125" type="curve"/>
      <point x="716.6040327149909" y="501.87406584871906"/>
      <point x="716.5637789321567" y="502.64222039753986"/>
      <point x="716.5194931030273" y="503.1579055786133" type="curve"/>
      <point x="716.466372212115" y="504.32742986813156"/>
      <point x="716.4074296652136" y="505.246365954972"/>
      <point x="716.3427124023438" y="506.126953125" type="curve"/>
      <point x="716.2862612372843" y="506.9668661370235"/>
      <point x="716.225409587006" y="507.76640791265754"/>
      <point x="716.1601715087891" y="508.3856735229492" type="curve"/>
      <point x="716.0883438393571" y="509.44126393766936"/>
      <point x="716.0112014364948" y="510.3192537164934"/>
      <point x="715.9287719726562" y="511.1603317260742" type="curve"/>
      <point x="715.8514548080843" y="512.022068483293"/>
      <point x="715.7694868042482" y="512.8435936642742"/>
      <point x="715.6828765869141" y="513.5253219604492" type="curve"/>
      <point x="715.5934419361317" y="514.5073892361298"/>
      <point x="715.499074080737" y="515.3533545471777"/>
      <point x="715.3997802734375" y="516.1637725830078" type="curve"/>
      <point x="715.3009309219144" y="517.0440142533114"/>
      <point x="715.1971933353951" y="517.8842896558391"/>
      <point x="715.088623046875" y="518.6103515625" type="curve"/>
      <point x="714.9827331723338" y="519.5363540536507"/>
      <point x="714.8722052994252" y="520.3535113476994"/>
      <point x="714.757080078125" y="521.1363830566406" type="curve"/>
      <point x="714.6359936957546" y="522.0336084097962"/>
      <point x="714.5098303206883" y="522.8908293403744"/>
      <point x="714.3786315917969" y="523.6517791748047" type="curve"/>
      <point x="714.2574229587188" y="524.5309918929067"/>
      <point x="714.1319119424745" y="525.3203011758417"/>
      <point x="714.0021209716797" y="526.076530456543" type="curve"/>
      <point x="713.8579648977947" y="526.9906552094526"/>
      <point x="713.7084964150916" y="527.8649499615893"/>
      <point x="713.5537414550781" y="528.6563262939453" type="curve"/>
      <point x="713.4186521194671" y="529.4925456636452"/>
      <point x="713.2795574452826" y="530.2533120783578"/>
      <point x="713.1364440917969" y="530.982536315918" type="curve"/>
      <point x="712.9681584503269" y="531.9146288941719"/>
      <point x="712.7943577036442" y="532.8067406857348"/>
      <point x="712.6150436401367" y="533.6259384155273" type="curve"/>
      <point x="712.4676233853896" y="534.4209826131322"/>
      <point x="712.3164661136051" y="535.1521284376535"/>
      <point x="712.1616287231445" y="535.8529205322266" type="curve"/>
      <point x="711.9680150824591" y="536.8042618187785"/>
      <point x="711.7686066518963" y="537.715743710012"/>
      <point x="711.5634689331055" y="538.5620498657227" type="curve"/>
      <point x="711.4055203950796" y="539.3159803658353"/>
      <point x="711.2441381846071" y="540.0153773109113"/>
      <point x="711.0794067382812" y="540.6857299804688" type="curve"/>
      <point x="710.8590554220082" y="541.6580907833556"/>
      <point x="710.6326476708842" y="542.5904450304411"/>
      <point x="710.4002304077148" y="543.4639663696289" type="curve"/>
      <point x="710.2337511081039" y="544.1761254488277"/>
      <point x="710.0641549900558" y="544.8415706931034"/>
      <point x="709.8915176391602" y="545.4794692993164" type="curve"/>
      <point x="709.6428263551239" y="546.4747790628135"/>
      <point x="709.3877178904445" y="547.4301829525576"/>
      <point x="709.1262741088867" y="548.3319625854492" type="curve"/>
      <point x="708.9536179104235" y="549.0005579657659"/>
      <point x="708.7781871651245" y="549.6291095878885"/>
      <point x="708.5999526977539" y="550.2319488525391" type="curve"/>
      <point x="708.3210015712651" y="551.2526986300438"/>
      <point x="708.0353027144524" y="552.2333629192435"/>
      <point x="707.7428512573242" y="553.164909362793" type="curve"/>
      <point x="707.566542721546" y="553.7880224302932"/>
      <point x="707.3878501178697" y="554.3768237531627"/>
      <point x="707.2067184448242" y="554.9413604736328" type="curve"/>
      <point x="706.8953236692852" y="555.9902518854889"/>
      <point x="706.5767556993675" y="556.9990302454113"/>
      <point x="706.251091003418" y="557.9620819091797" type="curve"/>
      <point x="706.0742361418364" y="558.5364843021089"/>
      <point x="705.8953060728427" y="559.0819752565131"/>
      <point x="705.7142181396484" y="559.6050720214844" type="curve"/>
      <point x="705.3677366101659" y="560.6854646081771"/>
      <point x="705.0136095502896" y="561.7257283525203"/>
      <point x="704.6518936157227" y="562.7233581542969" type="curve"/>
      <point x="704.4779569948939" y="563.2455238040977"/>
      <point x="704.3023254872338" y="563.7434667640415"/>
      <point x="704.1249542236328" y="564.2205810546875" type="curve"/>
      <point x="703.7405005051562" y="565.3358003153294"/>
      <point x="703.3477796841194" y="566.4111145085056"/>
      <point x="702.9468383789062" y="567.4465942382812" type="curve"/>
      <point x="702.7799538708413" y="567.9119801737708"/>
      <point x="702.6115895231504" y="568.3578811144044"/>
      <point x="702.441764831543" y="568.7850646972656" type="curve"/>
      <point x="702.0155997575579" y="569.9398940329286"/>
      <point x="701.5805656389535" y="571.0548033988548"/>
      <point x="701.1366882324219" y="572.1319885253906" type="curve"/>
      <point x="700.981584751428" y="572.5354845614124"/>
      <point x="700.825376693243" y="572.9234464143311"/>
      <point x="700.6681060791016" y="573.2947006225586" type="curve"/>
      <point x="700.196172015752" y="574.4937269654839"/>
      <point x="699.7144706021561" y="575.6534231358722"/>
      <point x="699.2230987548828" y="576.7773590087891" type="curve"/>
      <point x="699.0854256151583" y="577.1127179544159"/>
      <point x="698.9469298975854" y="577.4363947337932"/>
      <point x="698.8076095581055" y="577.7460250854492" type="curve"/>
      <point x="698.2846420210228" y="578.9956762499481"/>
      <point x="697.7509950771174" y="580.2064544412614"/>
      <point x="697.2068099975586" y="581.3828582763672" type="curve"/>
      <point x="697.093461337401" y="581.642233449603"/>
      <point x="696.9796886521793" y="581.8932066776568"/>
      <point x="696.865478515625" y="582.1328048706055" type="curve"/>
      <point x="696.2852307035408" y="583.4404544147742"/>
      <point x="695.6931750911367" y="584.7100630426196"/>
      <point x="695.0894927978516" y="585.9464492797852" type="curve"/>
      <point x="695.0089390389558" y="586.1201054563728"/>
      <point x="694.9281157492649" y="586.2888516333459"/>
      <point x="694.8470993041992" y="586.4496688842773" type="curve"/>
      <point x="694.2018844831991" y="587.8243183152703"/>
      <point x="693.5435418793669" y="589.1620856751758"/>
      <point x="692.8721618652344" y="590.4676132202148" type="curve"/>
      <point x="692.8349357435633" y="590.5434119025323"/>
      <point x="692.7976688509483" y="590.6172383323603"/>
      <point x="692.7603988647461" y="590.687385559082" type="curve"/>
      <point x="660.6042455915367" y="654.3533440515965"/>
      <point x="598.6533625691877" y="705.2211405255767"/>
      <point x="521.29931640625" y="731.3537979125977" type="curve"/>
      <point x="520.487818632806" y="731.6402452350785"/>
      <point x="519.6745349616019" y="731.912392977916"/>
      <point x="518.8593597412109" y="732.1808242797852" type="curve"/>
      <point x="518.572135038553" y="732.2758345013336"/>
      <point x="518.2846459588826" y="732.3702677626351"/>
      <point x="517.9968795776367" y="732.4587097167969" type="curve"/>
      <point x="516.3721466772008" y="732.9982954760268"/>
      <point x="514.7407060302677" y="733.5199967260467"/>
      <point x="513.1026763916016" y="734.0268020629883" type="curve"/>
      <point x="324.32491302490234" y="793.2114181518555" type="line"/>
      <point x="277.90852" y="807.76365"/>
      <point x="246.67148" y="835.09639"/>
      <point x="246.67148" y="866.32852" type="curve"/>
      <point x="246.67148" y="912.91652"/>
      <point x="316.20392" y="950.74007"/>
      <point x="401.84838" y="950.74007" type="curve" smooth="yes"/>
      <point x="487.49283" y="950.74007"/>
      <point x="557.02527" y="912.91652"/>
      <point x="557.02527" y="866.32852" type="curve"/>
      <point x="701.2852020263672" y="866.3285217285156" type="line"/>
      <point x="701.2852" y="992.53574"/>
      <point x="567.11206" y="1095.0"/>
      <point x="401.84838" y="1095.0" type="curve" smooth="yes"/>
      <point x="236.5847" y="1095.0"/>
      <point x="102.41155" y="992.53574"/>
      <point x="102.41155" y="866.32852" type="curve"/>
      <point x="102.41155" y="797.5494773831"/>
      <point x="142.24572380480015" y="735.7776550550313"/>
      <point x="205.2606658935547" y="693.8575668334961" type="curve"/>
      <point x="133.08028700327174" y="646.2345219868572"/>
      <point x="86.81588000000002" y="572.9701592865301"/>
      <point x="86.81587999999999" y="490.8628200000001" type="curve"/>
      <point x="86.81588" y="489.1417536"/>
      <point x="86.83620723152" y="487.42457254752003"/>
      <point x="86.87667083740234" y="485.75011444091797" type="curve"/>
      <point x="86.81588" y="488.43718182832"/>
      <point x="86.85624739814858" y="486.01922979999864"/>
      <point x="86.93645477294922" y="484.02259063720703" type="curve"/>
      <point x="86.96962303229162" y="482.6140565456337"/>
      <point x="87.00961137154798" y="481.61891656378225"/>
      <point x="87.0563735961914" y="480.66280364990234" type="curve"/>
      <point x="87.09245536833433" y="479.8571046450055"/>
      <point x="87.13257811399399" y="479.09103651195824"/>
      <point x="87.17671203613281" y="478.57716369628906" type="curve"/>
      <point x="87.22989651621688" y="477.4058559897722"/>
      <point x="87.28891941827236" y="476.48521474885814"/>
      <point x="87.35374450683594" y="475.60237884521484" type="curve"/>
      <point x="87.40994825189435" y="474.76654022195555"/>
      <point x="87.47051605269584" y="473.9703027175266"/>
      <point x="87.53543853759766" y="473.3541259765625" type="curve"/>
      <point x="87.60747446015402" y="472.29508053736015"/>
      <point x="87.68486484573815" y="471.4138430338134"/>
      <point x="87.76758575439453" y="470.5690612792969" type="curve"/>
      <point x="87.84438588182253" y="469.71351560367015"/>
      <point x="87.92576705472801" y="468.89742242704847"/>
      <point x="88.01171875" y="468.2210464477539" type="curve"/>
      <point x="88.10162904394562" y="467.2333802528957"/>
      <point x="88.19655798613988" y="466.3819400700758"/>
      <point x="88.29647064208984" y="465.56575775146484" type="curve"/>
      <point x="88.39449325026884" y="464.6933328116913"/>
      <point x="88.49729681169653" y="463.86017465773494"/>
      <point x="88.6048812866211" y="463.1407470703125" type="curve"/>
      <point x="88.71163156514883" y="462.2069775483454"/>
      <point x="88.82304784090688" y="461.3828416043411"/>
      <point x="88.93914031982422" y="460.59276580810547" type="curve"/>
      <point x="89.05901265967206" y="459.704974346039"/>
      <point x="89.18385042268325" y="458.8563276519524"/>
      <point x="89.3136215209961" y="458.1037292480469" type="curve"/>
      <point x="89.43603041399726" y="457.21542260734174"/>
      <point x="89.56286873023724" y="456.41737214817294"/>
      <point x="89.6941146850586" y="455.6520538330078" type="curve"/>
      <point x="89.83660590132841" y="454.74896249666705"/>
      <point x="89.98427309692464" y="453.88478436911873"/>
      <point x="90.13706970214844" y="453.10347747802734" type="curve"/>
      <point x="90.27392335919816" y="452.2559461449886"/>
      <point x="90.41489387173776" y="451.4845621714775"/>
      <point x="90.56000518798828" y="450.74462890625" type="curve"/>
      <point x="90.72597447390312" y="449.8258239294034"/>
      <point x="90.89734578151467" y="448.94577026048336"/>
      <point x="91.07405090332031" y="448.1385192871094" type="curve"/>
      <point x="91.22395077139723" y="447.32969207037627"/>
      <point x="91.37767449253325" y="446.58580420467615"/>
      <point x="91.53524780273438" y="445.87217712402344" type="curve"/>
      <point x="91.72571606110782" y="444.93672582812525"/>
      <point x="91.92177140478373" y="444.04015916580914"/>
      <point x="92.12338256835938" y="443.2084197998047" type="curve"/>
      <point x="92.28482535675816" y="442.437386187285"/>
      <point x="92.44981204330819" y="441.72206532340687"/>
      <point x="92.61832427978516" y="441.035888671875" type="curve"/>
      <point x="92.83450271685273" y="440.0824006363551"/>
      <point x="93.05653717274015" y="439.1676626948516"/>
      <point x="93.28436279296875" y="438.3114242553711" type="curve"/>
      <point x="93.45538254924912" y="437.579350410709"/>
      <point x="93.62969738857404" y="436.89511563267064"/>
      <point x="93.80728912353516" y="436.23851013183594" type="curve"/>
      <point x="94.05066384559618" y="435.26494152311375"/>
      <point x="94.30017760056059" y="434.3301131942309"/>
      <point x="94.5557861328125" y="433.4484405517578" type="curve"/>
      <point x="94.73442950595475" y="432.75618492830375"/>
      <point x="94.9160506077726" y="432.1052185210553"/>
      <point x="95.10059356689453" y="431.48069763183594" type="curve"/>
      <point x="95.37269508964623" y="430.485467613141"/>
      <point x="95.65123925936052" y="429.5290041086256"/>
      <point x="95.9361343383789" y="428.62149810791016" type="curve"/>
      <point x="96.12019875905021" y="427.9704935913215"/>
      <point x="96.30691709776421" y="427.3550431244717"/>
      <point x="96.49630737304688" y="426.7644271850586" type="curve"/>
      <point x="96.79909757463308" y="425.7449785186741"/>
      <point x="97.10866986070529" y="424.7643627934724"/>
      <point x="97.42501068115234" y="423.8288345336914" type="curve"/>
      <point x="97.61163850628968" y="423.22218339994475"/>
      <point x="97.80062286979866" y="422.64587902203124"/>
      <point x="97.99189758300781" y="422.09310150146484" type="curve"/>
      <point x="98.327671422612" y="421.0465121193127"/>
      <point x="98.67061922383478" y="420.03879622946863"/>
      <point x="99.020751953125" y="419.0730209350586" type="curve"/>
      <point x="99.20699516559866" y="418.5134144766054"/>
      <point x="99.39526544993473" y="417.9795155947105"/>
      <point x="99.58557891845703" y="417.4673309326172" type="curve"/>
      <point x="99.95676533164598" y="416.3909979610749"/>
      <point x="100.33568585383946" y="415.35323103215404"/>
      <point x="100.72224426269531" y="414.35479736328125" type="curve"/>
      <point x="100.90460185215082" y="413.8457825964263"/>
      <point x="101.0886659842335" y="413.35822327324917"/>
      <point x="101.27448272705078" y="412.89056396484375" type="curve"/>
      <point x="101.68428781027716" y="411.78045931122256"/>
      <point x="102.10230290503354" y="410.70898744530973"/>
      <point x="102.5285415649414" y="409.6744689941406" type="curve"/>
      <point x="102.70288448931606" y="409.22046614930963"/>
      <point x="102.87852137762304" y="408.78421381286336"/>
      <point x="103.05557250976562" y="408.3660202026367" type="curve"/>
      <point x="103.50763052425721" y="407.2178683049014"/>
      <point x="103.96852918625021" y="406.1081626091444"/>
      <point x="104.43829345703125" y="405.0334930419922" type="curve"/>
      <point x="104.59974740158016" y="404.6397767465096"/>
      <point x="104.76224111641505" y="404.2600205305144"/>
      <point x="104.92570495605469" y="403.89654541015625" type="curve"/>
      <point x="105.42421811783544" y="402.70561427498126"/>
      <point x="105.93236195046323" y="401.5527054316689"/>
      <point x="106.45011138916016" y="400.4332504272461" type="curve"/>
      <point x="106.5929124848797" y="400.10609462160033"/>
      <point x="106.73645318231966" y="399.78949611243337"/>
      <point x="106.88076782226562" y="399.4865493774414" type="curve"/>
      <point x="107.43092311849026" y="398.2468958936045"/>
      <point x="107.99169780376216" y="397.04451379140806"/>
      <point x="108.56301879882812" y="395.8741683959961" type="curve"/>
      <point x="108.68014672331739" y="395.62135533015595"/>
      <point x="108.79770195496633" y="395.3759860168576"/>
      <point x="108.91576385498047" y="395.1414566040039" type="curve"/>
      <point x="109.52412197664538" y="393.84538726640676"/>
      <point x="110.14419352476007" y="392.5857247749013"/>
      <point x="110.77582550048828" y="391.3572235107422" type="curve"/>
      <point x="110.85836376849515" y="391.1889346114149"/>
      <point x="110.94117501476427" y="391.0249583258992"/>
      <point x="111.024169921875" y="390.86861419677734" type="curve"/>
      <point x="111.69889276784288" y="389.5066556974116"/>
      <point x="112.3866310295491" y="388.17985403969686"/>
      <point x="113.08732604980469" y="386.8833694458008" type="curve"/>
      <point x="113.12405514583286" y="386.81246319866943"/>
      <point x="113.1608683189122" y="386.74315456024044"/>
      <point x="113.19779968261719" y="386.67706298828125" type="curve"/>
      <point x="145.50660747792642" y="325.8794015144698"/>
      <point x="205.19407032065425" y="277.2291789972274"/>
      <point x="279.3669662475586" y="251.40208435058594" type="curve"/>
      <point x="283.2279123654654" y="250.05511321721934"/>
      <point x="287.12786717150095" y="248.77009816986742"/>
      <point x="291.06539154052734" y="247.55518341064453" type="curve"/>
      <point x="291.8501968383789" y="247.3120880126953" type="line"/>
      <point x="485.0119400024414" y="187.98677825927734" type="line"/>
      <point x="532.79788" y="173.3104"/>
      <point x="564.8231" y="146.25514"/>
      <point x="564.8231" y="115.39711" type="curve"/>
      <point x="564.8231" y="68.80911"/>
      <point x="491.79658" y="30.98556"/>
      <point x="401.84838" y="30.98556" type="curve" smooth="yes"/>
      <point x="311.90017" y="30.98556"/>
      <point x="238.87365" y="68.80911"/>
      <point x="238.87365" y="115.39711" type="curve"/>
    </contour>
  </outline>
</glyph>
<glyph name="diaeresis" format="2">
  <advance width="700.1415162454873"/>
  <unicode hex="00A8"/>
  <outline>
    <contour>
      <point x="315.87726" y="1298.71068" type="curve" smooth="yes"/>
      <point x="315.87726" y="1357.88712"/>
      <point x="267.83349" y="1405.93089"/>
      <point x="208.65704" y="1405.93089" type="curve" smooth="yes"/>
      <point x="149.48059" y="1405.93089"/>
      <point x="101.43682" y="1357.88712"/>
      <point x="101.43682" y="1298.71068" type="curve" smooth="yes"/>
      <point x="101.43682" y="1239.53423"/>
      <point x="149.48059" y="1191.49046"/>
      <point x="208.65704" y="1191.49046" type="curve" smooth="yes"/>
      <point x="267.83349" y="1191.49046"/>
      <point x="315.87726" y="1239.53423"/>
    </contour>
    <contour>
      <point x="598.70469" y="1298.71068" type="curve" smooth="yes"/>
      <point x="598.70469" y="1357.88712"/>
      <point x="550.66092" y="1405.93089"/>
      <point x="491.48448" y="1405.93089" type="curve" smooth="yes"/>
      <point x="432.30803" y="1405.93089"/>
      <point x="384.26426" y="1357.88712"/>
      <point x="384.26426" y="1298.71068" type="curve" smooth="yes"/>
      <point x="384.26426" y="1239.53423"/>
      <point x="432.30803" y="1191.49046"/>
      <point x="491.48448" y="1191.49046" type="curve" smooth="yes"/>
      <point x="550.66092" y="1191.49046"/>
      <point x="598.70469" y="1239.53423"/>
    </contour>
  </outline>
</glyph>
<glyph name="copyright" format="2">
  <advance width="1229.1425684777726"/>
  <unicode hex="00A9"/>
  <outline>
    <contour>
      <point x="1159.64818" y="541.01538" type="curve" smooth="yes"/>
      <point x="1159.64818" y="841.85151"/>
      <point x="915.40741" y="1086.09228"/>
      <point x="614.57128" y="1086.09228" type="curve" smooth="yes"/>
      <point x="313.73516" y="1086.09228"/>
      <point x="69.49439" y="841.85151"/>
      <point x="69.49439" y="541.01538" type="curve" smooth="yes"/>
      <point x="69.49439" y="240.17925"/>
      <point x="313.73516" y="-4.06152"/>
      <point x="614.57128" y="-4.06152" type="curve" smooth="yes"/>
      <point x="915.40741" y="-4.06152"/>
      <point x="1159.64818" y="240.17925"/>
    </contour>
    <contour>
      <point x="1031.19618" y="541.01538" type="curve" smooth="yes"/>
      <point x="1031.19618" y="311.07384"/>
      <point x="844.51282" y="124.39048"/>
      <point x="614.57128" y="124.39048" type="curve" smooth="yes"/>
      <point x="384.62974" y="124.39048"/>
      <point x="197.94639" y="311.07384"/>
      <point x="197.94639" y="541.01538" type="curve" smooth="yes"/>
      <point x="197.94639" y="770.95692"/>
      <point x="384.62974" y="957.64028"/>
      <point x="614.57128" y="957.64028" type="curve" smooth="yes"/>
      <point x="844.51282" y="957.64028"/>
      <point x="1031.19618" y="770.95692"/>
    </contour>
    <contour>
      <point x="613.56953" y="242.56742" type="curve" smooth="yes"/>
      <point x="751.56531" y="242.56742"/>
      <point x="868.00321" y="334.40677"/>
      <point x="903.6241" y="460.02428" type="curve"/>
      <point x="764.44676" y="460.02428" type="line"/>
      <point x="735.61464" y="406.82431"/>
      <point x="679.28246" y="370.66422"/>
      <point x="614.57128" y="370.66422" type="curve" smooth="yes"/>
      <point x="520.55192" y="370.66422"/>
      <point x="444.22012" y="446.99602"/>
      <point x="444.22012" y="541.01538" type="curve"/>
      <point x="444.22012" y="635.03474"/>
      <point x="520.55192" y="711.36654"/>
      <point x="614.57128" y="711.36654" type="curve" smooth="yes"/>
      <point x="679.28256" y="711.36654"/>
      <point x="735.61481" y="675.20635"/>
      <point x="764.44694" y="622.00648" type="curve"/>
      <point x="903.6236" y="622.00648" type="line"/>
      <point x="868.00209" y="747.62487"/>
      <point x="751.56464" y="839.46334"/>
      <point x="613.56953" y="839.46334" type="curve" smooth="yes"/>
      <point x="446.7215" y="839.46334"/>
      <point x="311.30589" y="705.98706"/>
      <point x="311.30589" y="541.01538" type="curve"/>
      <point x="311.30589" y="376.0437"/>
      <point x="446.7215" y="242.56742"/>
    </contour>
  </outline>
</glyph>
<glyph name="ordinal_a" format="2">
  <advance width="650.2251734351206"/>
  <unicode hex="00AA"/>
  <anchor x="554.025203820074" y="1017.8515478339349" name="above" identifier="above"/>
  <anchor x="554.025203820074" y="-116.96750902527076" name="below" identifier="below"/>
  <anchor x="1018.8131627547176" y="0" name="ogonek" identifier="ogonek"/>
  <outline>
    <contour>
      <point x="435.5246887207031" y="637.322021484375" type="line"/>
      <point x="549.2432174682617" y="637.322021484375" type="line"/>
      <point x="549.2432174682617" y="1087.7640380859375" type="line"/>
      <point x="435.5246887207031" y="1087.7640380859375" type="line"/>
      <point x="435.5246887207031" y="1063.6923217773438" type="line"/>
      <point x="400.1649223542043" y="1085.0454048435158"/>
      <point x="358.73464573568" y="1097.328"/>
      <point x="314.45825" y="1097.328" type="curve" smooth="yes"/>
      <point x="184.8769" y="1097.328"/>
      <point x="79.67329" y="992.12438"/>
      <point x="79.67329" y="862.54303" type="curve" smooth="yes"/>
      <point x="79.67329" y="732.96168"/>
      <point x="184.8769" y="627.75806"/>
      <point x="314.45825" y="627.75806" type="curve" smooth="yes"/>
      <point x="358.73464573568003" y="627.75806"/>
      <point x="400.16492235420435" y="640.0406551564843"/>
      <point x="435.5246887207031" y="661.3940277099609" type="curve"/>
    </contour>
    <contour>
      <point x="435.52469" y="862.54303" type="curve" smooth="yes"/>
      <point x="435.52469" y="795.72464"/>
      <point x="381.27664" y="741.47659"/>
      <point x="314.45825" y="741.47659" type="curve" smooth="yes"/>
      <point x="247.63987" y="741.47659"/>
      <point x="193.39181" y="795.72464"/>
      <point x="193.39181" y="862.54303" type="curve" smooth="yes"/>
      <point x="193.39181" y="929.36142"/>
      <point x="247.63987" y="983.60947"/>
      <point x="314.45825" y="983.60947" type="curve" smooth="yes"/>
      <point x="381.27664" y="983.60947"/>
      <point x="435.52469" y="929.36142"/>
    </contour>
    <contour>
      <point x="79.67329" y="444.88029" type="line"/>
      <point x="549.24322" y="444.88029" type="line"/>
      <point x="549.24322" y="534.18405" type="line"/>
      <point x="79.67329" y="534.18405" type="line"/>
    </contour>
  </outline>
</glyph>
<glyph name="ordinalfeminine" format="2">
  <advance width="636.5573646209386"/>
  <unicode hex="00AA"/>
  <outline>
    <contour>
      <point x="418.22191619873047" y="686.2093887329102" type="line"/>
      <point x="535.1205444335938" y="686.2093887329102" type="line"/>
      <point x="535.1205444335938" y="1124.7686614990234" type="line"/>
      <point x="418.22191619873047" y="1124.7686614990234" type="line"/>
      <point x="418.22191619873047" y="1104.2351989746094" type="line"/>
      <point x="385.4988970722941" y="1122.4913113723262"/>
      <point x="347.8138481906723" y="1132.890451263538"/>
      <point x="307.7191155234657" y="1132.890451263538" type="curve" smooth="yes"/>
      <point x="182.21285294863216" y="1132.890451263538"/>
      <point x="80.31768953068594" y="1030.9952878455915"/>
      <point x="80.31768953068594" y="905.4890252707581" type="curve" smooth="yes"/>
      <point x="80.31768953068591" y="779.9827626959245"/>
      <point x="182.2128529486321" y="678.0875992779784"/>
      <point x="307.7191155234657" y="678.0875992779784" type="curve" smooth="yes"/>
      <point x="347.8138481906723" y="678.0875992779784"/>
      <point x="385.4988970722941" y="688.4867391691901"/>
      <point x="418.22191619873047" y="706.749870300293" type="curve"/>
    </contour>
    <contour>
      <point x="418.2219133574007" y="905.489025270758" type="curve" smooth="yes"/>
      <point x="418.2219133574007" y="844.5008713941859"/>
      <point x="368.7072694000379" y="794.986227436823"/>
      <point x="307.7191155234657" y="794.9862274368231" type="curve" smooth="yes"/>
      <point x="246.7309616468935" y="794.9862274368231"/>
      <point x="197.21631768953068" y="844.500871394186"/>
      <point x="197.21631768953068" y="905.489025270758" type="curve" smooth="yes"/>
      <point x="197.21631768953068" y="966.4771791473303"/>
      <point x="246.73096164689355" y="1015.9918231046931"/>
      <point x="307.7191155234657" y="1015.9918231046931" type="curve" smooth="yes"/>
      <point x="368.7072694000379" y="1015.9918231046931"/>
      <point x="418.2219133574007" y="966.4771791473303"/>
    </contour>
    <contour>
      <point x="80.31768953068591" y="495.2098272305312" type="line"/>
      <point x="535.1205415162456" y="495.2098272305312" type="line"/>
      <point x="535.1205415162456" y="584.5135920577617" type="line"/>
      <point x="80.31768953068591" y="584.5135920577617" type="line"/>
    </contour>
  </outline>
</glyph>
<glyph name="angleleft_dbl" format="2">
  <advance width="888.7112707678491"/>
  <unicode hex="00AB"/>
  <outline>
    <contour>
      <point x="390.29905700683594" y="491.5042724609375" type="line"/>
      <point x="615.8876876831055" y="206.33167266845703" type="line"/>
      <point x="790.1194381713867" y="206.33167266845703" type="line"/>
      <point x="564.5308074951172" y="491.5042724609375" type="line"/>
      <point x="790.1194381713867" y="776.6768569946289" type="line"/>
      <point x="615.8876876831055" y="776.6768569946289" type="line"/>
    </contour>
    <contour>
      <point x="98.59182739257812" y="491.5042724609375" type="line"/>
      <point x="319.56597900390625" y="211.18123626708984" type="line"/>
      <point x="493.56263732910156" y="211.18123626708984" type="line"/>
      <point x="272.58849334716797" y="491.5042724609375" type="line"/>
      <point x="493.56263732910156" y="771.8272933959961" type="line"/>
      <point x="319.56597900390625" y="771.8272933959961" type="line"/>
    </contour>
  </outline>
</glyph>
<glyph name="logicalnot" format="2">
  <advance width="989.5451263537906"/>
  <unicode hex="00AC"/>
  <outline>
    <contour>
      <point x="100.98194885253906" y="419.1335678100586" type="line"/>
      <point x="744.3032531738281" y="419.1335678100586" type="line"/>
      <point x="744.3032531738281" y="0" type="line"/>
      <point x="888.5631790161133" y="0" type="line"/>
      <point x="888.5631790161133" y="563.3935012817383" type="line"/>
      <point x="100.98194885253906" y="563.3935012817383" type="line"/>
    </contour>
  </outline>
</glyph>
<glyph name="registered" format="2">
  <advance width="1229.1425684777726"/>
  <unicode hex="00AE"/>
  <outline>
    <contour>
      <point x="1159.64818" y="541.01538" type="curve" smooth="yes"/>
      <point x="1159.64818" y="841.85151"/>
      <point x="915.40741" y="1086.09228"/>
      <point x="614.57128" y="1086.09228" type="curve" smooth="yes"/>
      <point x="313.73516" y="1086.09228"/>
      <point x="69.49439" y="841.85151"/>
      <point x="69.49439" y="541.01538" type="curve" smooth="yes"/>
      <point x="69.49439" y="240.17925"/>
      <point x="313.73516" y="-4.06152"/>
      <point x="614.57128" y="-4.06152" type="curve" smooth="yes"/>
      <point x="915.40741" y="-4.06152"/>
      <point x="1159.64818" y="240.17925"/>
    </contour>
    <contour>
      <point x="1031.19618" y="541.01538" type="curve" smooth="yes"/>
      <point x="1031.19618" y="311.07384"/>
      <point x="844.51282" y="124.39048"/>
      <point x="614.57128" y="124.39048" type="curve" smooth="yes"/>
      <point x="384.62974" y="124.39048"/>
      <point x="197.94639" y="311.07384"/>
      <point x="197.94639" y="541.01538" type="curve" smooth="yes"/>
      <point x="197.94639" y="770.95692"/>
      <point x="384.62974" y="957.64028"/>
      <point x="614.57128" y="957.64028" type="curve" smooth="yes"/>
      <point x="844.51282" y="957.64028"/>
      <point x="1031.19618" y="770.95692"/>
    </contour>
    <contour>
      <point x="507.90032958984375" y="707.7227783203125" type="line"/>
      <point x="669.1418461369824" y="707.7227783203125" type="line"/>
      <point x="735.1748688751272" y="707.7227783203125"/>
      <point x="755.94503" y="662.0027686354941"/>
      <point x="755.94503" y="630.73297" type="curve" smooth="yes"/>
      <point x="755.94503" y="599.4631684484276"/>
      <point x="735.1748647480421" y="553.7431694439346"/>
      <point x="669.1418403101105" y="553.7431700970635" type="curve"/>
      <point x="507.90032958984375" y="553.7431716918945" type="line"/>
    </contour>
    <contour>
      <point x="381.15081787109375" y="253.28308868408203" type="line"/>
      <point x="507.90032958984375" y="253.28308868408203" type="line"/>
      <point x="507.90032958984375" y="437.0117492675781" type="line"/>
      <point x="642.8622283935547" y="437.0117492675781" type="line"/>
      <point x="759.9512634277344" y="253.28308868408203" type="line"/>
      <point x="907.4414596557617" y="253.28308868408203" type="line"/>
      <point x="775.6437072753906" y="458.3263854980469" type="line"/>
      <point x="841.3311243042859" y="489.5899363202918"/>
      <point x="886.12931" y="552.9375964167599"/>
      <point x="886.1293099999999" y="632.3685799999998" type="curve" smooth="yes"/>
      <point x="886.12931" y="720.0321316826439"/>
      <point x="828.1410738041014" y="828.747661114179"/>
      <point x="658.95522" y="828.7476598506321" type="curve"/>
      <point x="381.15081787109375" y="828.7476577758789" type="line"/>
    </contour>
  </outline>
</glyph>
<glyph name="macron" format="2">
  <advance width="759.3059566787003"/>
  <unicode hex="00AF"/>
  <outline>
    <contour>
      <point x="100.98195" y="1249.92548" type="line"/>
      <point x="658.32401" y="1249.92548" type="line"/>
      <point x="658.32401" y="1350.90743" type="line"/>
      <point x="100.98195" y="1350.90743" type="line"/>
    </contour>
  </outline>
</glyph>
<glyph name="degree" format="2">
  <advance width="670.4875874013728"/>
  <unicode hex="00B0"/>
  <outline>
    <contour>
      <point x="600.9932" y="832.0258" type="curve" smooth="yes"/>
      <point x="600.9932" y="978.69689"/>
      <point x="481.91488" y="1097.7752"/>
      <point x="335.24379" y="1097.7752" type="curve" smooth="yes"/>
      <point x="188.5727" y="1097.7752"/>
      <point x="69.49439" y="978.69689"/>
      <point x="69.49439" y="832.0258" type="curve" smooth="yes"/>
      <point x="69.49439" y="685.35471"/>
      <point x="188.5727" y="566.27639"/>
      <point x="335.24379" y="566.27639" type="curve" smooth="yes"/>
      <point x="481.91488" y="566.27639"/>
      <point x="600.9932" y="685.35471"/>
    </contour>
    <contour>
      <point x="465.41974" y="832.0258" type="curve" smooth="yes"/>
      <point x="465.41974" y="760.17974"/>
      <point x="407.08985" y="701.84985"/>
      <point x="335.24379" y="701.84985" type="curve" smooth="yes"/>
      <point x="263.39773" y="701.84985"/>
      <point x="205.06785" y="760.17974"/>
      <point x="205.06785" y="832.0258" type="curve" smooth="yes"/>
      <point x="205.06785" y="903.87186"/>
      <point x="263.39773" y="962.20174"/>
      <point x="335.24379" y="962.20174" type="curve" smooth="yes"/>
      <point x="407.08985" y="962.20174"/>
      <point x="465.41974" y="903.87186"/>
    </contour>
  </outline>
</glyph>
<glyph name="plusminus" format="2">
  <advance width="898.9169286035024"/>
  <unicode hex="00B1"/>
  <outline>
    <contour>
      <point x="376.0390090942383" y="237.73916625976562" type="line"/>
      <point x="522.8779220581055" y="237.73916625976562" type="line"/>
      <point x="522.8779220581055" y="515.1863479614258" type="line"/>
      <point x="800.3251037597656" y="515.1863479614258" type="line"/>
      <point x="800.3251037597656" y="662.025260925293" type="line"/>
      <point x="522.8779220581055" y="662.025260925293" type="line"/>
      <point x="522.8779220581055" y="939.4724426269531" type="line"/>
      <point x="376.0390090942383" y="939.4724426269531" type="line"/>
      <point x="376.0390090942383" y="662.025260925293" type="line"/>
      <point x="98.59182739257812" y="662.025260925293" type="line"/>
      <point x="98.59182739257812" y="515.1863479614258" type="line"/>
      <point x="376.0390090942383" y="515.1863479614258" type="line"/>
    </contour>
    <contour>
      <point x="98.59183" y="43.53609" type="line"/>
      <point x="800.3251" y="43.53609" type="line"/>
      <point x="800.3251" y="190.375" type="line"/>
      <point x="98.59183" y="190.375" type="line"/>
    </contour>
  </outline>
</glyph>
<glyph name="sup_two" format="2">
  <advance width="666.5736049510057"/>
  <unicode hex="00B2"/>
  <outline>
    <contour>
      <point x="106.31169128417969" y="380.1829528808594" type="line"/>
      <point x="571.1708221435547" y="380.1829528808594" type="line"/>
      <point x="571.1708221435547" y="499.94274139404297" type="line"/>
      <point x="289.06597900390625" y="499.94274139404297" type="line"/>
      <point x="474.58606222644704" y="660.8878519435957" type="line"/>
      <point x="503.686037013041" y="686.1330899666915"/>
      <point x="571.17082" y="747.6257681932627"/>
      <point x="571.17082" y="852.54361" type="curve"/>
      <point x="571.17082" y="983.00281"/>
      <point x="465.25451000000004" y="1088.91911"/>
      <point x="334.79531" y="1088.91911" type="curve" smooth="yes"/>
      <point x="204.33612" y="1088.91911"/>
      <point x="98.4198" y="983.0028"/>
      <point x="98.4198" y="852.54361" type="curve"/>
      <point x="218.1795883178711" y="852.5436096191406" type="line"/>
      <point x="218.17959" y="916.90558"/>
      <point x="270.43334" y="969.15933"/>
      <point x="334.79531" y="969.15933" type="curve" smooth="yes"/>
      <point x="399.1572799999999" y="969.15933"/>
      <point x="451.41104" y="916.90558"/>
      <point x="451.41104" y="852.54361" type="curve"/>
      <point x="451.41104" y="800.2795376935753"/>
      <point x="416.71202936742026" y="769.2258139248873"/>
      <point x="400.18077607845146" y="754.8843776174135" type="curve"/>
      <point x="106.31169128417969" y="499.94274139404297" type="line"/>
    </contour>
  </outline>
</glyph>
<glyph name="sup_three" format="2">
  <advance width="672.6076431150077"/>
  <unicode hex="00B3"/>
  <outline>
    <contour>
      <point x="92.38577270507812" y="585.0563735961914" type="line"/>
      <point x="92.38577" y="466.62527"/>
      <point x="202.35772" y="370.47424"/>
      <point x="337.81233" y="370.47424" type="curve" smooth="yes"/>
      <point x="473.26694" y="370.47424"/>
      <point x="583.2389" y="466.62527"/>
      <point x="583.2389" y="585.05637" type="curve"/>
      <point x="583.2389" y="646.9574636236"/>
      <point x="553.1956381458754" y="702.7718604461406"/>
      <point x="505.1733856201172" y="741.9342880249023" type="curve"/>
      <point x="546.011073137194" y="778.7697203109205"/>
      <point x="571.17082" y="829.02955187075"/>
      <point x="571.17082" y="884.39892" type="curve"/>
      <point x="571.17082" y="997.27669"/>
      <point x="466.60639" y="1088.91911"/>
      <point x="337.81233" y="1088.91911" type="curve" smooth="yes"/>
      <point x="209.01828" y="1088.91911"/>
      <point x="104.45384" y="997.27669"/>
      <point x="104.45384" y="884.39892" type="curve"/>
      <point x="224.21363067626953" y="884.3989181518555" type="line"/>
      <point x="224.21363" y="931.17946"/>
      <point x="275.1155" y="969.15933"/>
      <point x="337.81233" y="969.15933" type="curve" smooth="yes"/>
      <point x="400.50916" y="969.15933"/>
      <point x="451.41104" y="931.17946"/>
      <point x="451.41104" y="884.39892" type="curve"/>
      <point x="451.41104" y="837.61837"/>
      <point x="400.50916" y="799.6385"/>
      <point x="337.81233" y="799.6385" type="curve"/>
      <point x="277.9324417114258" y="799.6384963989258" type="line"/>
      <point x="277.9324417114258" y="679.8787231445312" type="line"/>
      <point x="337.8123321533203" y="679.8787231445312" type="line"/>
      <point x="407.16972" y="679.87872"/>
      <point x="463.47911" y="637.39025"/>
      <point x="463.47911" y="585.05637" type="curve"/>
      <point x="463.47911" y="532.72249"/>
      <point x="407.16972" y="490.23402"/>
      <point x="337.81233" y="490.23402" type="curve" smooth="yes"/>
      <point x="268.45495" y="490.23402"/>
      <point x="212.14555" y="532.72249"/>
      <point x="212.14555" y="585.05637" type="curve"/>
    </contour>
  </outline>
</glyph>
<glyph name="acute" format="2">
  <advance width="545.3789699180262"/>
  <unicode hex="00B4"/>
  <anchor x="179.23252961825415" y="1525.0392905253705" name="above" identifier="above"/>
  <outline>
    <contour>
      <point x="98.59183" y="1198.42052" type="line"/>
      <point x="254.34038" y="1198.42052" type="line"/>
      <point x="446.78714" y="1486.2427" type="line"/>
      <point x="279.97289" y="1486.2427" type="line"/>
    </contour>
  </outline>
</glyph>
